<svg width="240" height="81" viewBox="0 0 240 81" fill="none" xmlns="http://www.w3.org/2000/svg">
<path d="M0.936 16V0.863999H2.08L2.542 2.778V16H0.936ZM11.408 16L1.838 3.02L2.08 0.863999L11.628 13.844L11.408 16ZM11.408 16L10.924 14.174V0.863999H12.552V16H11.408ZM20.8048 16.22C19.7634 16.22 18.8321 15.9853 18.0108 15.516C17.1894 15.0467 16.5368 14.4013 16.0528 13.58C15.5834 12.7587 15.3488 11.8347 15.3488 10.808C15.3488 9.796 15.5834 8.88667 16.0528 8.08C16.5221 7.25867 17.1601 6.61333 17.9668 6.144C18.7734 5.67467 19.6754 5.44 20.6728 5.44C21.6114 5.44 22.4401 5.65267 23.1588 6.078C23.8921 6.50333 24.4641 7.09733 24.8748 7.86C25.3001 8.608 25.5128 9.47333 25.5128 10.456C25.5128 10.5733 25.5054 10.7127 25.4908 10.874C25.4761 11.0207 25.4468 11.1967 25.4028 11.402H16.4488V10.082H24.5668L24.0168 10.566C24.0314 9.80333 23.8994 9.15067 23.6208 8.608C23.3568 8.05067 22.9681 7.62533 22.4548 7.332C21.9561 7.024 21.3474 6.87 20.6288 6.87C19.8808 6.87 19.2281 7.03133 18.6708 7.354C18.1134 7.67667 17.6734 8.13133 17.3508 8.718C17.0428 9.29 16.8888 9.972 16.8888 10.764C16.8888 11.556 17.0501 12.2527 17.3727 12.854C17.7101 13.4553 18.1721 13.9247 18.7588 14.262C19.3601 14.5993 20.0494 14.768 20.8268 14.768C21.4574 14.768 22.0368 14.658 22.5648 14.438C23.0928 14.2033 23.5401 13.8587 23.9068 13.404L24.8968 14.416C24.4128 14.988 23.8114 15.4353 23.0928 15.758C22.3888 16.066 21.6261 16.22 20.8048 16.22ZM30.6217 16L26.6397 5.66H28.2457L31.3917 14.24L30.8197 14.262L33.9437 5.66H34.8457L37.9697 14.262L37.3977 14.24L40.5217 5.66H42.1497L38.1457 16H37.2437L34.0537 7.53H34.7137L31.5457 16H30.6217ZM49.4998 16.22C48.7078 16.22 47.9965 16.0587 47.3658 15.736C46.7351 15.4133 46.2145 14.9733 45.8038 14.416C45.4078 13.844 45.1658 13.184 45.0778 12.436V9.202C45.1658 8.43933 45.4151 7.77933 45.8258 7.222C46.2365 6.65 46.7571 6.21 47.3878 5.902C48.0331 5.594 48.7371 5.44 49.4998 5.44C50.4531 5.44 51.3111 5.682 52.0738 6.166C52.8365 6.63533 53.4378 7.28067 53.8778 8.102C54.3325 8.90867 54.5598 9.82533 54.5598 10.852C54.5598 11.864 54.3398 12.7733 53.8998 13.58C53.4598 14.3867 52.8511 15.032 52.0738 15.516C51.3111 15.9853 50.4531 16.22 49.4998 16.22ZM49.2358 14.746C49.9691 14.746 50.6145 14.5847 51.1718 14.262C51.7291 13.9247 52.1618 13.4627 52.4698 12.876C52.7925 12.2747 52.9538 11.5927 52.9538 10.83C52.9538 10.0527 52.7925 9.37067 52.4698 8.784C52.1618 8.19733 51.7291 7.73533 51.1718 7.398C50.6145 7.06067 49.9765 6.892 49.2578 6.892C48.5391 6.892 47.9011 7.06067 47.3438 7.398C46.8011 7.73533 46.3758 8.19733 46.0678 8.784C45.7598 9.37067 45.6058 10.0527 45.6058 10.83C45.6058 11.5927 45.7598 12.2747 46.0678 12.876C46.3758 13.4627 46.8011 13.9247 47.3438 14.262C47.8865 14.5847 48.5171 14.746 49.2358 14.746ZM44.1538 20.356V5.66H45.6938V8.3L45.3858 10.808L45.6938 13.338V20.356H44.1538ZM61.7089 16.22C60.7116 16.22 59.8023 15.978 58.9809 15.494C58.1743 15.01 57.5289 14.3573 57.0449 13.536C56.5756 12.7147 56.3409 11.798 56.3409 10.786C56.3409 9.78867 56.5756 8.88667 57.0449 8.08C57.5289 7.27333 58.1743 6.63533 58.9809 6.166C59.8023 5.682 60.7116 5.44 61.7089 5.44C62.7209 5.44 63.6303 5.67467 64.4369 6.144C65.2436 6.61333 65.8816 7.25867 66.3509 8.08C66.8349 8.88667 67.0769 9.78867 67.0769 10.786C67.0769 11.8127 66.8349 12.7367 66.3509 13.558C65.8816 14.3647 65.2436 15.01 64.4369 15.494C63.6303 15.978 62.7209 16.22 61.7089 16.22ZM61.7089 14.724C62.4423 14.724 63.0876 14.5553 63.6449 14.218C64.2169 13.8807 64.6643 13.4113 64.9869 12.81C65.3243 12.2087 65.4929 11.534 65.4929 10.786C65.4929 10.038 65.3243 9.378 64.9869 8.806C64.6643 8.21933 64.2169 7.75733 63.6449 7.42C63.0876 7.08267 62.4423 6.914 61.7089 6.914C60.9903 6.914 60.3449 7.08267 59.7729 7.42C59.2009 7.75733 58.7536 8.21933 58.4309 8.806C58.1083 9.378 57.9469 10.038 57.9469 10.786C57.9469 11.5487 58.1083 12.2307 58.4309 12.832C58.7536 13.4187 59.2009 13.8807 59.7729 14.218C60.3449 14.5553 60.9903 14.724 61.7089 14.724ZM69.5268 16V5.66H71.0668V16H69.5268ZM71.0668 9.972L70.4288 9.686C70.4288 8.38067 70.7442 7.34667 71.3748 6.584C72.0202 5.82133 72.9002 5.44 74.0148 5.44C74.5282 5.44 74.9975 5.53533 75.4228 5.726C75.8482 5.902 76.2442 6.188 76.6108 6.584L75.5988 7.662C75.3495 7.38333 75.0708 7.18533 74.7628 7.068C74.4695 6.95067 74.1322 6.892 73.7508 6.892C72.9588 6.892 72.3135 7.156 71.8148 7.684C71.3162 8.19733 71.0668 8.96 71.0668 9.972ZM79.7481 16V1.304H81.2881V16H79.7481ZM77.1301 7.046V5.66H83.8841V7.046H77.1301ZM1.97 41.224V39.86H6.37C7.36733 39.86 8.13 39.6107 8.658 39.112C9.186 38.5987 9.45 37.9167 9.45 37.066C9.45 36.2447 9.186 35.5773 8.658 35.064C8.13 34.536 7.36733 34.272 6.37 34.272H1.97V32.864H6.37C7.35267 32.864 8.196 33.0473 8.9 33.414C9.604 33.766 10.1393 34.2573 10.506 34.888C10.8873 35.5187 11.078 36.2373 11.078 37.044C11.078 37.88 10.8873 38.6133 10.506 39.244C10.1393 39.8747 9.604 40.366 8.9 40.718C8.196 41.0553 7.35267 41.224 6.37 41.224H1.97ZM0.936 48V32.864H2.542V48H0.936ZM10.088 48L4.412 41.004L5.974 40.498L12.156 48H10.088ZM14.5571 48V32.864H16.1631V48H14.5571ZM30.0862 48.22C28.9715 48.22 27.9522 47.9047 27.0282 47.274C26.1042 46.6287 25.3635 45.7193 24.8062 44.546C24.2635 43.3727 23.9922 41.994 23.9922 40.41C23.9922 38.8113 24.2635 37.44 24.8062 36.296C25.3488 35.1373 26.0748 34.2427 26.9842 33.612C27.9082 32.9667 28.9275 32.644 30.0422 32.644C31.1715 32.644 32.1908 32.9593 33.1002 33.59C34.0242 34.2207 34.7575 35.1227 35.3002 36.296C35.8428 37.4547 36.1142 38.8333 36.1142 40.432C36.1142 42.016 35.8428 43.3947 35.3002 44.568C34.7575 45.7413 34.0315 46.6433 33.1222 47.274C32.2128 47.9047 31.2008 48.22 30.0862 48.22ZM30.0422 46.702C30.9075 46.702 31.6702 46.46 32.3302 45.976C33.0048 45.4773 33.5328 44.766 33.9142 43.842C34.2955 42.9033 34.4862 41.7593 34.4862 40.41C34.4862 39.0753 34.2955 37.946 33.9142 37.022C33.5328 36.0833 33.0048 35.372 32.3302 34.888C31.6702 34.404 30.9075 34.162 30.0422 34.162C29.1915 34.162 28.4288 34.404 27.7542 34.888C27.0942 35.372 26.5735 36.076 26.1922 37C25.8108 37.924 25.6202 39.0607 25.6202 40.41C25.6202 41.7593 25.8108 42.9033 26.1922 43.842C26.5735 44.766 27.0942 45.4773 27.7542 45.976C28.4288 46.46 29.1915 46.702 30.0422 46.702ZM38.0352 47.01L43.6452 41.158C44.2906 40.4687 44.7892 39.8893 45.1412 39.42C45.5079 38.9507 45.7572 38.5253 45.8892 38.144C46.0359 37.748 46.1092 37.3373 46.1092 36.912C46.1092 36.0467 45.8379 35.372 45.2952 34.888C44.7526 34.3893 44.0339 34.14 43.1392 34.14C42.3179 34.14 41.5992 34.338 40.9832 34.734C40.3672 35.1153 39.8172 35.6947 39.3332 36.472L38.2112 35.482C38.7979 34.558 39.5019 33.854 40.3232 33.37C41.1446 32.886 42.0979 32.644 43.1832 32.644C44.0926 32.644 44.8846 32.82 45.5592 33.172C46.2486 33.524 46.7766 34.0227 47.1432 34.668C47.5246 35.3133 47.7152 36.0687 47.7152 36.934C47.7152 37.5353 47.6346 38.0853 47.4732 38.584C47.3119 39.068 47.0259 39.5813 46.6152 40.124C46.2192 40.652 45.6546 41.2973 44.9212 42.06L40.1692 46.944L38.0352 47.01ZM38.0352 48V47.01L39.3552 46.548H48.0892V48H38.0352ZM55.1521 48.22C54.1694 48.22 53.2967 48.0293 52.5341 47.648C51.7861 47.2667 51.1994 46.746 50.7741 46.086C50.3487 45.4113 50.1361 44.6487 50.1361 43.798C50.1361 43.1233 50.2681 42.5073 50.5321 41.95C50.8107 41.378 51.1994 40.894 51.6981 40.498C52.1967 40.0873 52.7761 39.8087 53.4361 39.662L53.6121 40.124C53.0254 39.9627 52.5267 39.706 52.1161 39.354C51.7054 39.002 51.3901 38.584 51.1701 38.1C50.9501 37.6013 50.8401 37.0807 50.8401 36.538C50.8401 35.7607 51.0234 35.086 51.3901 34.514C51.7714 33.9273 52.2847 33.4653 52.9301 33.128C53.5901 32.7907 54.3307 32.622 55.1521 32.622C55.9881 32.622 56.7287 32.7907 57.3741 33.128C58.0341 33.4653 58.5474 33.9273 58.9141 34.514C59.2807 35.086 59.4641 35.7607 59.4641 36.538C59.4641 37.0807 59.3541 37.6013 59.1341 38.1C58.9287 38.584 58.6207 39.002 58.2101 39.354C57.7994 39.706 57.2934 39.9627 56.6921 40.124L56.8681 39.662C57.5427 39.8087 58.1221 40.0873 58.6061 40.498C59.1047 40.894 59.4861 41.378 59.7501 41.95C60.0287 42.5073 60.1681 43.1233 60.1681 43.798C60.1681 44.6487 59.9554 45.4113 59.5301 46.086C59.1194 46.746 58.5327 47.2667 57.7701 47.648C57.0221 48.0293 56.1494 48.22 55.1521 48.22ZM55.1521 46.768C55.8267 46.768 56.4207 46.636 56.9341 46.372C57.4621 46.108 57.8727 45.7413 58.1661 45.272C58.4594 44.788 58.6061 44.2453 58.6061 43.644C58.6061 43.028 58.4594 42.4927 58.1661 42.038C57.8727 41.5687 57.4621 41.202 56.9341 40.938C56.4207 40.6593 55.8267 40.52 55.1521 40.52C54.4921 40.52 53.8981 40.6593 53.3701 40.938C52.8567 41.202 52.4461 41.5687 52.1381 42.038C51.8447 42.4927 51.6981 43.028 51.6981 43.644C51.6981 44.2453 51.8447 44.788 52.1381 45.272C52.4461 45.7413 52.8567 46.108 53.3701 46.372C53.8834 46.636 54.4774 46.768 55.1521 46.768ZM55.1521 39.266C55.9734 39.266 56.6407 39.024 57.1541 38.54C57.6821 38.0413 57.9461 37.4033 57.9461 36.626C57.9461 35.8487 57.6821 35.218 57.1541 34.734C56.6407 34.25 55.9734 34.008 55.1521 34.008C54.3454 34.008 53.6781 34.25 53.1501 34.734C52.6221 35.218 52.3581 35.8487 52.3581 36.626C52.3581 37.4033 52.6221 38.0413 53.1501 38.54C53.6781 39.024 54.3454 39.266 55.1521 39.266ZM62.0548 42.984L67.7088 32.864H69.5128L63.7708 42.984H62.0548ZM62.0548 43.996V42.984L62.7368 42.544H73.5168V43.996H62.0548ZM69.6888 48V37.902H71.2728V48H69.6888ZM81.6057 48.22C80.491 48.22 79.4717 47.9047 78.5477 47.274C77.6237 46.6287 76.883 45.7193 76.3257 44.546C75.783 43.3727 75.5117 41.994 75.5117 40.41C75.5117 38.8113 75.783 37.44 76.3257 36.296C76.8684 35.1373 77.5944 34.2427 78.5037 33.612C79.4277 32.9667 80.447 32.644 81.5617 32.644C82.691 32.644 83.7104 32.9593 84.6197 33.59C85.5437 34.2207 86.277 35.1227 86.8197 36.296C87.3624 37.4547 87.6337 38.8333 87.6337 40.432C87.6337 42.016 87.3624 43.3947 86.8197 44.568C86.277 45.7413 85.551 46.6433 84.6417 47.274C83.7324 47.9047 82.7204 48.22 81.6057 48.22ZM81.5617 46.702C82.427 46.702 83.1897 46.46 83.8497 45.976C84.5244 45.4773 85.0524 44.766 85.4337 43.842C85.815 42.9033 86.0057 41.7593 86.0057 40.41C86.0057 39.0753 85.815 37.946 85.4337 37.022C85.0524 36.0833 84.5244 35.372 83.8497 34.888C83.1897 34.404 82.427 34.162 81.5617 34.162C80.711 34.162 79.9484 34.404 79.2737 34.888C78.6137 35.372 78.093 36.076 77.7117 37C77.3304 37.924 77.1397 39.0607 77.1397 40.41C77.1397 41.7593 77.3304 42.9033 77.7117 43.842C78.093 44.766 78.6137 45.4773 79.2737 45.976C79.9484 46.46 80.711 46.702 81.5617 46.702ZM6.458 80.22C5.358 80.22 4.37533 79.978 3.51 79.494C2.65933 78.9953 1.98467 78.3207 1.486 77.47C0.987333 76.6047 0.738 75.6367 0.738 74.566V64.864H2.366V74.478C2.366 75.3287 2.542 76.0693 2.894 76.7C3.246 77.3307 3.73 77.8147 4.346 78.152C4.97667 78.4893 5.68067 78.658 6.458 78.658C7.23533 78.658 7.92467 78.4893 8.526 78.152C9.142 77.8147 9.626 77.338 9.978 76.722C10.3447 76.0913 10.528 75.3507 10.528 74.5V64.864H12.134V74.588C12.134 75.6587 11.8847 76.6193 11.386 77.47C10.902 78.3207 10.2273 78.9953 9.362 79.494C8.51133 79.978 7.54333 80.22 6.458 80.22ZM22.9532 80V73.928C22.9532 73.0187 22.6819 72.2853 22.1392 71.728C21.6112 71.156 20.9072 70.87 20.0272 70.87C19.4259 70.87 18.8979 71.002 18.4432 71.266C17.9885 71.53 17.6292 71.8893 17.3652 72.344C17.1012 72.7987 16.9692 73.3193 16.9692 73.906L16.2652 73.51C16.2652 72.7327 16.4485 72.036 16.8152 71.42C17.1819 70.804 17.6732 70.32 18.2892 69.968C18.9199 69.616 19.6385 69.44 20.4452 69.44C21.2372 69.44 21.9412 69.6307 22.5572 70.012C23.1732 70.3933 23.6499 70.9067 23.9872 71.552C24.3392 72.1973 24.5152 72.9013 24.5152 73.664V80H22.9532ZM15.4292 80V69.66H16.9692V80H15.4292ZM27.396 80V69.66H28.958V80H27.396ZM28.166 67.416C27.8727 67.416 27.6233 67.3133 27.418 67.108C27.2127 66.888 27.11 66.6313 27.11 66.338C27.11 66.03 27.2127 65.7733 27.418 65.568C27.6233 65.3627 27.8727 65.26 28.166 65.26C28.4887 65.26 28.7453 65.3627 28.936 65.568C29.1413 65.7733 29.244 66.03 29.244 66.338C29.244 66.6313 29.1413 66.888 28.936 67.108C28.7453 67.3133 28.4887 67.416 28.166 67.416ZM33.6856 80V65.304H35.2256V80H33.6856ZM31.0676 71.046V69.66H37.8216V71.046H31.0676ZM44.3516 80.22C43.3103 80.22 42.379 79.9853 41.5576 79.516C40.7363 79.0467 40.0836 78.4013 39.5996 77.58C39.1303 76.7587 38.8956 75.8347 38.8956 74.808C38.8956 73.796 39.1303 72.8867 39.5996 72.08C40.069 71.2587 40.707 70.6133 41.5136 70.144C42.3203 69.6747 43.2223 69.44 44.2196 69.44C45.1583 69.44 45.987 69.6527 46.7056 70.078C47.439 70.5033 48.011 71.0973 48.4216 71.86C48.847 72.608 49.0596 73.4733 49.0596 74.456C49.0596 74.5733 49.0523 74.7127 49.0376 74.874C49.023 75.0207 48.9936 75.1967 48.9496 75.402H39.9956V74.082H48.1136L47.5636 74.566C47.5783 73.8033 47.4463 73.1507 47.1676 72.608C46.9036 72.0507 46.515 71.6253 46.0016 71.332C45.503 71.024 44.8943 70.87 44.1756 70.87C43.4276 70.87 42.775 71.0313 42.2176 71.354C41.6603 71.6767 41.2203 72.1313 40.8976 72.718C40.5896 73.29 40.4356 73.972 40.4356 74.764C40.4356 75.556 40.597 76.2527 40.9196 76.854C41.257 77.4553 41.719 77.9247 42.3056 78.262C42.907 78.5993 43.5963 78.768 44.3736 78.768C45.0043 78.768 45.5836 78.658 46.1116 78.438C46.6396 78.2033 47.087 77.8587 47.4536 77.404L48.4436 78.416C47.9596 78.988 47.3583 79.4353 46.6396 79.758C45.9356 80.066 45.173 80.22 44.3516 80.22ZM55.8155 80.22C54.8622 80.22 54.0042 79.9853 53.2415 79.516C52.4788 79.0467 51.8702 78.4087 51.4155 77.602C50.9755 76.7807 50.7555 75.864 50.7555 74.852C50.7555 73.8253 50.9755 72.9087 51.4155 72.102C51.8702 71.2807 52.4788 70.6353 53.2415 70.166C54.0042 69.682 54.8622 69.44 55.8155 69.44C56.5928 69.44 57.2968 69.594 57.9275 69.902C58.5582 70.21 59.0788 70.65 59.4895 71.222C59.9148 71.7793 60.1642 72.4393 60.2375 73.202V76.436C60.1495 77.184 59.9002 77.844 59.4895 78.416C59.0935 78.9733 58.5802 79.4133 57.9495 79.736C57.3188 80.0587 56.6075 80.22 55.8155 80.22ZM56.0795 78.746C56.7982 78.746 57.4288 78.5847 57.9715 78.262C58.5142 77.9247 58.9395 77.4627 59.2475 76.876C59.5555 76.2747 59.7095 75.5927 59.7095 74.83C59.7095 74.0527 59.5482 73.3707 59.2255 72.784C58.9175 72.1973 58.4922 71.7353 57.9495 71.398C57.4068 71.0607 56.7762 70.892 56.0575 70.892C55.3388 70.892 54.7008 71.0607 54.1435 71.398C53.5862 71.7353 53.1462 72.2047 52.8235 72.806C52.5155 73.3927 52.3615 74.0673 52.3615 74.83C52.3615 75.5927 52.5155 76.2747 52.8235 76.876C53.1462 77.4627 53.5862 77.9247 54.1435 78.262C54.7155 78.5847 55.3608 78.746 56.0795 78.746ZM61.1615 80H59.6215V77.228L59.9295 74.676L59.6215 72.19V64.424H61.1615V80ZM73.5652 80.22C72.3919 80.22 71.3799 80 70.5292 79.56C69.6786 79.1053 68.9306 78.4747 68.2852 77.668L69.4072 76.568C69.9206 77.2867 70.5146 77.822 71.1892 78.174C71.8786 78.526 72.6926 78.702 73.6312 78.702C74.5992 78.702 75.3839 78.482 75.9852 78.042C76.5866 77.602 76.8872 76.9933 76.8872 76.216C76.8872 75.6147 76.7479 75.1233 76.4692 74.742C76.1906 74.346 75.8239 74.0307 75.3692 73.796C74.9292 73.5467 74.4379 73.3267 73.8952 73.136C73.3526 72.9453 72.8099 72.7473 72.2672 72.542C71.7392 72.322 71.2479 72.0507 70.7932 71.728C70.3386 71.4053 69.9719 70.9947 69.6932 70.496C69.4292 69.9973 69.2972 69.3593 69.2972 68.582C69.2972 67.7607 69.4952 67.0567 69.8912 66.47C70.2872 65.8833 70.8299 65.436 71.5192 65.128C72.2086 64.8053 72.9932 64.644 73.8732 64.644C74.8559 64.644 75.7286 64.8347 76.4912 65.216C77.2686 65.5973 77.9139 66.1107 78.4272 66.756L77.3272 67.856C76.8579 67.2987 76.3446 66.8733 75.7872 66.58C75.2299 66.2867 74.5772 66.14 73.8292 66.14C72.9492 66.14 72.2452 66.3453 71.7172 66.756C71.1892 67.1667 70.9252 67.7387 70.9252 68.472C70.9252 69.044 71.0572 69.506 71.3212 69.858C71.5999 70.21 71.9666 70.5033 72.4212 70.738C72.8759 70.9727 73.3672 71.1853 73.8952 71.376C74.4379 71.552 74.9806 71.75 75.5232 71.97C76.0659 72.19 76.5572 72.4687 76.9972 72.806C77.4519 73.1433 77.8186 73.576 78.0972 74.104C78.3759 74.6173 78.5152 75.2773 78.5152 76.084C78.5152 77.3893 78.0679 78.4087 77.1732 79.142C76.2932 79.8607 75.0906 80.22 73.5652 80.22ZM82.7989 80V65.304H84.3389V80H82.7989ZM80.1809 71.046V69.66H86.9349V71.046H80.1809ZM93.1789 80.22C92.1962 80.22 91.3162 79.9853 90.5389 79.516C89.7616 79.032 89.1456 78.3867 88.6909 77.58C88.2509 76.7733 88.0309 75.864 88.0309 74.852C88.0309 73.8253 88.2509 72.9087 88.6909 72.102C89.1456 71.2807 89.7616 70.6353 90.5389 70.166C91.3162 69.682 92.1889 69.44 93.1569 69.44C93.9489 69.44 94.6529 69.6013 95.2689 69.924C95.8996 70.232 96.4056 70.672 96.7869 71.244C97.1829 71.8013 97.4249 72.454 97.5129 73.202V76.436C97.4249 77.184 97.1829 77.844 96.7869 78.416C96.4056 78.988 95.8996 79.4353 95.2689 79.758C94.6529 80.066 93.9562 80.22 93.1789 80.22ZM93.4209 78.746C94.4916 78.746 95.3496 78.3867 95.9949 77.668C96.6549 76.9493 96.9849 76.0033 96.9849 74.83C96.9849 74.0527 96.8309 73.3707 96.5229 72.784C96.2296 72.1827 95.8116 71.7207 95.2689 71.398C94.7409 71.0607 94.1176 70.892 93.3989 70.892C92.6656 70.892 92.0129 71.0607 91.4409 71.398C90.8836 71.7353 90.4362 72.2047 90.0989 72.806C89.7762 73.3927 89.6149 74.0673 89.6149 74.83C89.6149 75.5927 89.7762 76.2673 90.0989 76.854C90.4362 77.4407 90.8909 77.9027 91.4629 78.24C92.0349 78.5773 92.6876 78.746 93.4209 78.746ZM96.8969 80V77.228L97.2049 74.676L96.8969 72.19V69.66H98.4369V80H96.8969ZM103.08 80V65.304H104.62V80H103.08ZM100.462 71.046V69.66H107.216V71.046H100.462ZM113.746 80.22C112.705 80.22 111.773 79.9853 110.952 79.516C110.131 79.0467 109.478 78.4013 108.994 77.58C108.525 76.7587 108.29 75.8347 108.29 74.808C108.29 73.796 108.525 72.8867 108.994 72.08C109.463 71.2587 110.101 70.6133 110.908 70.144C111.715 69.6747 112.617 69.44 113.614 69.44C114.553 69.44 115.381 69.6527 116.1 70.078C116.833 70.5033 117.405 71.0973 117.816 71.86C118.241 72.608 118.454 73.4733 118.454 74.456C118.454 74.5733 118.447 74.7127 118.432 74.874C118.417 75.0207 118.388 75.1967 118.344 75.402H109.39V74.082H117.508L116.958 74.566C116.973 73.8033 116.841 73.1507 116.562 72.608C116.298 72.0507 115.909 71.6253 115.396 71.332C114.897 71.024 114.289 70.87 113.57 70.87C112.822 70.87 112.169 71.0313 111.612 71.354C111.055 71.6767 110.615 72.1313 110.292 72.718C109.984 73.29 109.83 73.972 109.83 74.764C109.83 75.556 109.991 76.2527 110.314 76.854C110.651 77.4553 111.113 77.9247 111.7 78.262C112.301 78.5993 112.991 78.768 113.768 78.768C114.399 78.768 114.978 78.658 115.506 78.438C116.034 78.2033 116.481 77.8587 116.848 77.404L117.838 78.416C117.354 78.988 116.753 79.4353 116.034 79.758C115.33 80.066 114.567 80.22 113.746 80.22ZM123.978 80.22C123.421 80.22 122.885 80.1467 122.372 80C121.859 79.8387 121.389 79.6187 120.964 79.34C120.553 79.0613 120.194 78.7313 119.886 78.35L120.876 77.338C121.287 77.8367 121.749 78.2107 122.262 78.46C122.79 78.6947 123.377 78.812 124.022 78.812C124.711 78.812 125.247 78.68 125.628 78.416C126.024 78.152 126.222 77.7853 126.222 77.316C126.222 76.876 126.083 76.5313 125.804 76.282C125.525 76.0327 125.166 75.8347 124.726 75.688C124.301 75.5413 123.846 75.402 123.362 75.27C122.878 75.1233 122.416 74.9473 121.976 74.742C121.536 74.522 121.177 74.2213 120.898 73.84C120.634 73.4587 120.502 72.96 120.502 72.344C120.502 71.7573 120.641 71.2513 120.92 70.826C121.213 70.386 121.624 70.0487 122.152 69.814C122.695 69.5647 123.333 69.44 124.066 69.44C124.843 69.44 125.547 69.5793 126.178 69.858C126.809 70.1367 127.315 70.5473 127.696 71.09L126.706 72.08C126.398 71.684 126.009 71.3833 125.54 71.178C125.085 70.958 124.572 70.848 124 70.848C123.34 70.848 122.834 70.98 122.482 71.244C122.145 71.4933 121.976 71.8233 121.976 72.234C121.976 72.63 122.115 72.9453 122.394 73.18C122.673 73.4 123.025 73.5833 123.45 73.73C123.89 73.862 124.352 74.0013 124.836 74.148C125.32 74.28 125.782 74.4633 126.222 74.698C126.662 74.918 127.014 75.226 127.278 75.622C127.557 76.0033 127.696 76.524 127.696 77.184C127.696 78.108 127.359 78.8487 126.684 79.406C126.024 79.9487 125.122 80.22 123.978 80.22ZM139.547 80.22C138.549 80.22 137.64 79.978 136.819 79.494C136.012 79.01 135.367 78.3573 134.883 77.536C134.413 76.7147 134.179 75.798 134.179 74.786C134.179 73.7887 134.413 72.8867 134.883 72.08C135.367 71.2733 136.012 70.6353 136.819 70.166C137.64 69.682 138.549 69.44 139.547 69.44C140.559 69.44 141.468 69.6747 142.275 70.144C143.081 70.6133 143.719 71.2587 144.189 72.08C144.673 72.8867 144.915 73.7887 144.915 74.786C144.915 75.8127 144.673 76.7367 144.189 77.558C143.719 78.3647 143.081 79.01 142.275 79.494C141.468 79.978 140.559 80.22 139.547 80.22ZM139.547 78.724C140.28 78.724 140.925 78.5553 141.483 78.218C142.055 77.8807 142.502 77.4113 142.825 76.81C143.162 76.2087 143.331 75.534 143.331 74.786C143.331 74.038 143.162 73.378 142.825 72.806C142.502 72.2193 142.055 71.7573 141.483 71.42C140.925 71.0827 140.28 70.914 139.547 70.914C138.828 70.914 138.183 71.0827 137.611 71.42C137.039 71.7573 136.591 72.2193 136.269 72.806C135.946 73.378 135.785 74.038 135.785 74.786C135.785 75.5487 135.946 76.2307 136.269 76.832C136.591 77.4187 137.039 77.8807 137.611 78.218C138.183 78.5553 138.828 78.724 139.547 78.724ZM148.518 80V67.9C148.518 67.1813 148.672 66.5433 148.98 65.986C149.302 65.4287 149.742 64.996 150.3 64.688C150.872 64.3653 151.517 64.204 152.236 64.204C152.793 64.204 153.284 64.3067 153.71 64.512C154.135 64.7027 154.524 64.974 154.876 65.326L153.864 66.338C153.629 66.1033 153.38 65.9347 153.116 65.832C152.866 65.7147 152.573 65.656 152.236 65.656C151.546 65.656 151.011 65.8613 150.63 66.272C150.263 66.668 150.08 67.2253 150.08 67.944V80H148.518ZM145.922 71.046V69.66H153.534V71.046H145.922ZM159.035 80L165.239 64.864H166.449L172.587 80H170.849L165.503 66.624H166.141L160.751 80H159.035ZM161.873 76.062V74.632H169.793V76.062H161.873ZM174.972 80V69.66H176.512V80H174.972ZM182.078 80V73.664C182.078 72.8133 181.821 72.1387 181.308 71.64C180.795 71.1267 180.149 70.87 179.372 70.87C178.844 70.87 178.36 70.9873 177.92 71.222C177.495 71.442 177.15 71.7573 176.886 72.168C176.637 72.5787 176.512 73.07 176.512 73.642L175.808 73.356C175.808 72.564 175.984 71.8747 176.336 71.288C176.688 70.7013 177.157 70.2467 177.744 69.924C178.345 69.6013 179.02 69.44 179.768 69.44C180.501 69.44 181.154 69.6013 181.726 69.924C182.313 70.2467 182.775 70.7013 183.112 71.288C183.464 71.8747 183.64 72.5713 183.64 73.378V80H182.078ZM189.206 80V73.664C189.206 72.8133 188.949 72.1387 188.436 71.64C187.923 71.1267 187.27 70.87 186.478 70.87C185.965 70.87 185.488 70.9873 185.048 71.222C184.623 71.442 184.278 71.7573 184.014 72.168C183.765 72.5787 183.64 73.07 183.64 73.642L182.716 73.356C182.76 72.564 182.965 71.8747 183.332 71.288C183.713 70.7013 184.205 70.2467 184.806 69.924C185.422 69.6013 186.097 69.44 186.83 69.44C187.563 69.44 188.223 69.6013 188.81 69.924C189.411 70.2467 189.881 70.7013 190.218 71.288C190.57 71.8747 190.746 72.5713 190.746 73.378V80H189.206ZM198.416 80.22C197.375 80.22 196.443 79.9853 195.622 79.516C194.801 79.0467 194.148 78.4013 193.664 77.58C193.195 76.7587 192.96 75.8347 192.96 74.808C192.96 73.796 193.195 72.8867 193.664 72.08C194.133 71.2587 194.771 70.6133 195.578 70.144C196.385 69.6747 197.287 69.44 198.284 69.44C199.223 69.44 200.051 69.6527 200.77 70.078C201.503 70.5033 202.075 71.0973 202.486 71.86C202.911 72.608 203.124 73.4733 203.124 74.456C203.124 74.5733 203.117 74.7127 203.102 74.874C203.087 75.0207 203.058 75.1967 203.014 75.402H194.06V74.082H202.178L201.628 74.566C201.643 73.8033 201.511 73.1507 201.232 72.608C200.968 72.0507 200.579 71.6253 200.066 71.332C199.567 71.024 198.959 70.87 198.24 70.87C197.492 70.87 196.839 71.0313 196.282 71.354C195.725 71.6767 195.285 72.1313 194.962 72.718C194.654 73.29 194.5 73.972 194.5 74.764C194.5 75.556 194.661 76.2527 194.984 76.854C195.321 77.4553 195.783 77.9247 196.37 78.262C196.971 78.5993 197.661 78.768 198.438 78.768C199.069 78.768 199.648 78.658 200.176 78.438C200.704 78.2033 201.151 77.8587 201.518 77.404L202.508 78.416C202.024 78.988 201.423 79.4353 200.704 79.758C200 80.066 199.237 80.22 198.416 80.22ZM205.48 80V69.66H207.02V80H205.48ZM207.02 73.972L206.382 73.686C206.382 72.3807 206.697 71.3467 207.328 70.584C207.973 69.8213 208.853 69.44 209.968 69.44C210.481 69.44 210.951 69.5353 211.376 69.726C211.801 69.902 212.197 70.188 212.564 70.584L211.552 71.662C211.303 71.3833 211.024 71.1853 210.716 71.068C210.423 70.9507 210.085 70.892 209.704 70.892C208.912 70.892 208.267 71.156 207.768 71.684C207.269 72.1973 207.02 72.96 207.02 73.972ZM214.203 80V69.66H215.765V80H214.203ZM214.973 67.416C214.679 67.416 214.43 67.3133 214.225 67.108C214.019 66.888 213.917 66.6313 213.917 66.338C213.917 66.03 214.019 65.7733 214.225 65.568C214.43 65.3627 214.679 65.26 214.973 65.26C215.295 65.26 215.552 65.3627 215.743 65.568C215.948 65.7733 216.051 66.03 216.051 66.338C216.051 66.6313 215.948 66.888 215.743 67.108C215.552 67.3133 215.295 67.416 214.973 67.416ZM223.594 80.22C222.582 80.22 221.666 79.9853 220.844 79.516C220.038 79.032 219.392 78.3793 218.908 77.558C218.439 76.7367 218.204 75.82 218.204 74.808C218.204 73.796 218.439 72.8867 218.908 72.08C219.392 71.2587 220.038 70.6133 220.844 70.144C221.666 69.6747 222.582 69.44 223.594 69.44C224.372 69.44 225.098 69.5867 225.772 69.88C226.447 70.1733 227.019 70.584 227.488 71.112L226.476 72.146C226.124 71.75 225.699 71.4493 225.2 71.244C224.702 71.024 224.166 70.914 223.594 70.914C222.861 70.914 222.208 71.0827 221.636 71.42C221.064 71.7573 220.617 72.2193 220.294 72.806C219.972 73.378 219.81 74.0453 219.81 74.808C219.81 75.556 219.972 76.2307 220.294 76.832C220.617 77.4187 221.064 77.8807 221.636 78.218C222.208 78.5553 222.861 78.724 223.594 78.724C224.181 78.724 224.724 78.6213 225.222 78.416C225.721 78.196 226.146 77.888 226.498 77.492L227.532 78.526C227.048 79.0687 226.462 79.4867 225.772 79.78C225.098 80.0733 224.372 80.22 223.594 80.22ZM233.988 80.22C233.005 80.22 232.125 79.9853 231.348 79.516C230.57 79.032 229.954 78.3867 229.5 77.58C229.06 76.7733 228.84 75.864 228.84 74.852C228.84 73.8253 229.06 72.9087 229.5 72.102C229.954 71.2807 230.57 70.6353 231.348 70.166C232.125 69.682 232.998 69.44 233.966 69.44C234.758 69.44 235.462 69.6013 236.078 69.924C236.708 70.232 237.214 70.672 237.596 71.244C237.992 71.8013 238.234 72.454 238.322 73.202V76.436C238.234 77.184 237.992 77.844 237.596 78.416C237.214 78.988 236.708 79.4353 236.078 79.758C235.462 80.066 234.765 80.22 233.988 80.22ZM234.23 78.746C235.3 78.746 236.158 78.3867 236.804 77.668C237.464 76.9493 237.794 76.0033 237.794 74.83C237.794 74.0527 237.64 73.3707 237.332 72.784C237.038 72.1827 236.62 71.7207 236.078 71.398C235.55 71.0607 234.926 70.892 234.208 70.892C233.474 70.892 232.822 71.0607 232.25 71.398C231.692 71.7353 231.245 72.2047 230.908 72.806C230.585 73.3927 230.424 74.0673 230.424 74.83C230.424 75.5927 230.585 76.2673 230.908 76.854C231.245 77.4407 231.7 77.9027 232.272 78.24C232.844 78.5773 233.496 78.746 234.23 78.746ZM237.706 80V77.228L238.014 74.676L237.706 72.19V69.66H239.245V80H237.706Z" fill="white"/>
</svg>
