<svg width="196" height="70" viewBox="0 0 196 70" fill="none" xmlns="http://www.w3.org/2000/svg">
<path d="M0.584 13V0.616H1.52L1.898 2.182V13H0.584ZM9.152 13L1.322 2.38L1.52 0.616L9.332 11.236L9.152 13ZM9.152 13L8.756 11.506V0.616H10.088V13H9.152ZM16.8403 13.18C15.9883 13.18 15.2263 12.988 14.5543 12.604C13.8823 12.22 13.3483 11.692 12.9523 11.02C12.5683 10.348 12.3763 9.592 12.3763 8.752C12.3763 7.924 12.5683 7.18 12.9523 6.52C13.3363 5.848 13.8583 5.32 14.5183 4.936C15.1783 4.552 15.9163 4.36 16.7323 4.36C17.5003 4.36 18.1783 4.534 18.7663 4.882C19.3663 5.23 19.8343 5.716 20.1703 6.34C20.5183 6.952 20.6923 7.66 20.6923 8.464C20.6923 8.56 20.6863 8.674 20.6743 8.806C20.6623 8.926 20.6383 9.07 20.6023 9.238H13.2763V8.158H19.9183L19.4683 8.554C19.4803 7.93 19.3723 7.396 19.1443 6.952C18.9283 6.496 18.6103 6.148 18.1903 5.908C17.7823 5.656 17.2843 5.53 16.6963 5.53C16.0843 5.53 15.5503 5.662 15.0943 5.926C14.6383 6.19 14.2783 6.562 14.0143 7.042C13.7623 7.51 13.6363 8.068 13.6363 8.716C13.6363 9.364 13.7683 9.934 14.0322 10.426C14.3083 10.918 14.6863 11.302 15.1663 11.578C15.6583 11.854 16.2223 11.992 16.8583 11.992C17.3743 11.992 17.8483 11.902 18.2803 11.722C18.7123 11.53 19.0783 11.248 19.3783 10.876L20.1883 11.704C19.7923 12.172 19.3003 12.538 18.7123 12.802C18.1363 13.054 17.5123 13.18 16.8403 13.18ZM24.8723 13L21.6143 4.54H22.9283L25.5023 11.56L25.0343 11.578L27.5903 4.54H28.3283L30.8843 11.578L30.4163 11.56L32.9723 4.54H34.3043L31.0283 13H30.2903L27.6803 6.07H28.2203L25.6283 13H24.8723ZM40.318 13.18C39.67 13.18 39.088 13.048 38.572 12.784C38.056 12.52 37.63 12.16 37.294 11.704C36.97 11.236 36.772 10.696 36.7 10.084V7.438C36.772 6.814 36.976 6.274 37.312 5.818C37.648 5.35 38.074 4.99 38.59 4.738C39.118 4.486 39.694 4.36 40.318 4.36C41.098 4.36 41.8 4.558 42.424 4.954C43.048 5.338 43.54 5.866 43.9 6.538C44.272 7.198 44.458 7.948 44.458 8.788C44.458 9.616 44.278 10.36 43.918 11.02C43.558 11.68 43.06 12.208 42.424 12.604C41.8 12.988 41.098 13.18 40.318 13.18ZM40.102 11.974C40.702 11.974 41.23 11.842 41.686 11.578C42.142 11.302 42.496 10.924 42.748 10.444C43.012 9.952 43.144 9.394 43.144 8.77C43.144 8.134 43.012 7.576 42.748 7.096C42.496 6.616 42.142 6.238 41.686 5.962C41.23 5.686 40.708 5.548 40.12 5.548C39.532 5.548 39.01 5.686 38.554 5.962C38.11 6.238 37.762 6.616 37.51 7.096C37.258 7.576 37.132 8.134 37.132 8.77C37.132 9.394 37.258 9.952 37.51 10.444C37.762 10.924 38.11 11.302 38.554 11.578C38.998 11.842 39.514 11.974 40.102 11.974ZM35.944 16.564V4.54H37.204V6.7L36.952 8.752L37.204 10.822V16.564H35.944ZM50.3073 13.18C49.4913 13.18 48.7473 12.982 48.0753 12.586C47.4153 12.19 46.8873 11.656 46.4913 10.984C46.1073 10.312 45.9153 9.562 45.9153 8.734C45.9153 7.918 46.1073 7.18 46.4913 6.52C46.8873 5.86 47.4153 5.338 48.0753 4.954C48.7473 4.558 49.4913 4.36 50.3073 4.36C51.1353 4.36 51.8793 4.552 52.5393 4.936C53.1993 5.32 53.7213 5.848 54.1053 6.52C54.5013 7.18 54.6993 7.918 54.6993 8.734C54.6993 9.574 54.5013 10.33 54.1053 11.002C53.7213 11.662 53.1993 12.19 52.5393 12.586C51.8793 12.982 51.1353 13.18 50.3073 13.18ZM50.3073 11.956C50.9073 11.956 51.4353 11.818 51.8913 11.542C52.3593 11.266 52.7253 10.882 52.9893 10.39C53.2653 9.898 53.4033 9.346 53.4033 8.734C53.4033 8.122 53.2653 7.582 52.9893 7.114C52.7253 6.634 52.3593 6.256 51.8913 5.98C51.4353 5.704 50.9073 5.566 50.3073 5.566C49.7193 5.566 49.1913 5.704 48.7233 5.98C48.2553 6.256 47.8893 6.634 47.6253 7.114C47.3613 7.582 47.2293 8.122 47.2293 8.734C47.2293 9.358 47.3613 9.916 47.6253 10.408C47.8893 10.888 48.2553 11.266 48.7233 11.542C49.1913 11.818 49.7193 11.956 50.3073 11.956ZM56.7038 13V4.54H57.9638V13H56.7038ZM57.9638 8.068L57.4418 7.834C57.4418 6.766 57.6998 5.92 58.2158 5.296C58.7438 4.672 59.4638 4.36 60.3758 4.36C60.7958 4.36 61.1798 4.438 61.5278 4.594C61.8758 4.738 62.1998 4.972 62.4998 5.296L61.6718 6.178C61.4678 5.95 61.2398 5.788 60.9878 5.692C60.7478 5.596 60.4718 5.548 60.1598 5.548C59.5118 5.548 58.9838 5.764 58.5758 6.196C58.1678 6.616 57.9638 7.24 57.9638 8.068ZM65.0666 13V0.975999H66.3266V13H65.0666ZM62.9246 5.674V4.54H68.4506V5.674H62.9246ZM1.43 35.456V34.34H5.03C5.846 34.34 6.47 34.136 6.902 33.728C7.334 33.308 7.55 32.75 7.55 32.054C7.55 31.382 7.334 30.836 6.902 30.416C6.47 29.984 5.846 29.768 5.03 29.768H1.43V28.616H5.03C5.834 28.616 6.524 28.766 7.1 29.066C7.676 29.354 8.114 29.756 8.414 30.272C8.726 30.788 8.882 31.376 8.882 32.036C8.882 32.72 8.726 33.32 8.414 33.836C8.114 34.352 7.676 34.754 7.1 35.042C6.524 35.318 5.834 35.456 5.03 35.456H1.43ZM0.584 41V28.616H1.898V41H0.584ZM8.072 41L3.428 35.276L4.706 34.862L9.764 41H8.072ZM11.7285 41V28.616H13.0425V41H11.7285ZM24.4341 41.18C23.5221 41.18 22.6881 40.922 21.9321 40.406C21.1761 39.878 20.5701 39.134 20.1141 38.174C19.6701 37.214 19.4481 36.086 19.4481 34.79C19.4481 33.482 19.6701 32.36 20.1141 31.424C20.5581 30.476 21.1521 29.744 21.8961 29.228C22.6521 28.7 23.4861 28.436 24.3981 28.436C25.3221 28.436 26.1561 28.694 26.9001 29.21C27.6561 29.726 28.2561 30.464 28.7001 31.424C29.1441 32.372 29.3661 33.5 29.3661 34.808C29.3661 36.104 29.1441 37.232 28.7001 38.192C28.2561 39.152 27.6621 39.89 26.9181 40.406C26.1741 40.922 25.3461 41.18 24.4341 41.18ZM24.3981 39.938C25.1061 39.938 25.7301 39.74 26.2701 39.344C26.8221 38.936 27.2541 38.354 27.5661 37.598C27.8781 36.83 28.0341 35.894 28.0341 34.79C28.0341 33.698 27.8781 32.774 27.5661 32.018C27.2541 31.25 26.8221 30.668 26.2701 30.272C25.7301 29.876 25.1061 29.678 24.3981 29.678C23.7021 29.678 23.0781 29.876 22.5261 30.272C21.9861 30.668 21.5601 31.244 21.2481 32C20.9361 32.756 20.7801 33.686 20.7801 34.79C20.7801 35.894 20.9361 36.83 21.2481 37.598C21.5601 38.354 21.9861 38.936 22.5261 39.344C23.0781 39.74 23.7021 39.938 24.3981 39.938ZM30.9379 40.19L35.5279 35.402C36.0559 34.838 36.4639 34.364 36.7519 33.98C37.0519 33.596 37.2559 33.248 37.3639 32.936C37.4839 32.612 37.5439 32.276 37.5439 31.928C37.5439 31.22 37.3219 30.668 36.8779 30.272C36.4339 29.864 35.8459 29.66 35.1139 29.66C34.4419 29.66 33.8539 29.822 33.3499 30.146C32.8459 30.458 32.3959 30.932 31.9999 31.568L31.0819 30.758C31.5619 30.002 32.1379 29.426 32.8099 29.03C33.4819 28.634 34.2619 28.436 35.1499 28.436C35.8939 28.436 36.5419 28.58 37.0939 28.868C37.6579 29.156 38.0899 29.564 38.3899 30.092C38.7019 30.62 38.8579 31.238 38.8579 31.946C38.8579 32.438 38.7919 32.888 38.6599 33.296C38.5279 33.692 38.2939 34.112 37.9579 34.556C37.6339 34.988 37.1719 35.516 36.5719 36.14L32.6839 40.136L30.9379 40.19ZM30.9379 41V40.19L32.0179 39.812H39.1639V41H30.9379ZM44.9426 41.18C44.1386 41.18 43.4246 41.024 42.8006 40.712C42.1886 40.4 41.7086 39.974 41.3606 39.434C41.0126 38.882 40.8386 38.258 40.8386 37.562C40.8386 37.01 40.9466 36.506 41.1626 36.05C41.3906 35.582 41.7086 35.186 42.1166 34.862C42.5246 34.526 42.9986 34.298 43.5386 34.178L43.6826 34.556C43.2026 34.424 42.7946 34.214 42.4586 33.926C42.1226 33.638 41.8646 33.296 41.6846 32.9C41.5046 32.492 41.4146 32.066 41.4146 31.622C41.4146 30.986 41.5646 30.434 41.8646 29.966C42.1766 29.486 42.5966 29.108 43.1246 28.832C43.6646 28.556 44.2706 28.418 44.9426 28.418C45.6266 28.418 46.2326 28.556 46.7606 28.832C47.3006 29.108 47.7206 29.486 48.0206 29.966C48.3206 30.434 48.4706 30.986 48.4706 31.622C48.4706 32.066 48.3806 32.492 48.2006 32.9C48.0326 33.296 47.7806 33.638 47.4446 33.926C47.1086 34.214 46.6946 34.424 46.2026 34.556L46.3466 34.178C46.8986 34.298 47.3726 34.526 47.7686 34.862C48.1766 35.186 48.4886 35.582 48.7046 36.05C48.9326 36.506 49.0466 37.01 49.0466 37.562C49.0466 38.258 48.8726 38.882 48.5246 39.434C48.1886 39.974 47.7086 40.4 47.0846 40.712C46.4726 41.024 45.7586 41.18 44.9426 41.18ZM44.9426 39.992C45.4946 39.992 45.9806 39.884 46.4006 39.668C46.8326 39.452 47.1686 39.152 47.4086 38.768C47.6486 38.372 47.7686 37.928 47.7686 37.436C47.7686 36.932 47.6486 36.494 47.4086 36.122C47.1686 35.738 46.8326 35.438 46.4006 35.222C45.9806 34.994 45.4946 34.88 44.9426 34.88C44.4026 34.88 43.9166 34.994 43.4846 35.222C43.0646 35.438 42.7286 35.738 42.4766 36.122C42.2366 36.494 42.1166 36.932 42.1166 37.436C42.1166 37.928 42.2366 38.372 42.4766 38.768C42.7286 39.152 43.0646 39.452 43.4846 39.668C43.9046 39.884 44.3906 39.992 44.9426 39.992ZM44.9426 33.854C45.6146 33.854 46.1606 33.656 46.5806 33.26C47.0126 32.852 47.2286 32.33 47.2286 31.694C47.2286 31.058 47.0126 30.542 46.5806 30.146C46.1606 29.75 45.6146 29.552 44.9426 29.552C44.2826 29.552 43.7366 29.75 43.3046 30.146C42.8726 30.542 42.6566 31.058 42.6566 31.694C42.6566 32.33 42.8726 32.852 43.3046 33.26C43.7366 33.656 44.2826 33.854 44.9426 33.854ZM50.5903 36.896L55.2163 28.616H56.6923L51.9943 36.896H50.5903ZM50.5903 37.724V36.896L51.1483 36.536H59.9683V37.724H50.5903ZM56.8363 41V32.738H58.1323V41H56.8363ZM66.5865 41.18C65.6745 41.18 64.8405 40.922 64.0845 40.406C63.3285 39.878 62.7225 39.134 62.2665 38.174C61.8225 37.214 61.6005 36.086 61.6005 34.79C61.6005 33.482 61.8225 32.36 62.2665 31.424C62.7105 30.476 63.3045 29.744 64.0485 29.228C64.8045 28.7 65.6385 28.436 66.5505 28.436C67.4745 28.436 68.3085 28.694 69.0525 29.21C69.8085 29.726 70.4085 30.464 70.8525 31.424C71.2965 32.372 71.5185 33.5 71.5185 34.808C71.5185 36.104 71.2965 37.232 70.8525 38.192C70.4085 39.152 69.8145 39.89 69.0705 40.406C68.3265 40.922 67.4985 41.18 66.5865 41.18ZM66.5505 39.938C67.2585 39.938 67.8825 39.74 68.4225 39.344C68.9745 38.936 69.4065 38.354 69.7185 37.598C70.0305 36.83 70.1865 35.894 70.1865 34.79C70.1865 33.698 70.0305 32.774 69.7185 32.018C69.4065 31.25 68.9745 30.668 68.4225 30.272C67.8825 29.876 67.2585 29.678 66.5505 29.678C65.8545 29.678 65.2305 29.876 64.6785 30.272C64.1385 30.668 63.7125 31.244 63.4005 32C63.0885 32.756 62.9325 33.686 62.9325 34.79C62.9325 35.894 63.0885 36.83 63.4005 37.598C63.7125 38.354 64.1385 38.936 64.6785 39.344C65.2305 39.74 65.8545 39.938 66.5505 39.938ZM5.102 69.18C4.202 69.18 3.398 68.982 2.69 68.586C1.994 68.178 1.442 67.626 1.034 66.93C0.626 66.222 0.422 65.43 0.422 64.554V56.616H1.754V64.482C1.754 65.178 1.898 65.784 2.186 66.3C2.474 66.816 2.87 67.212 3.374 67.488C3.89 67.764 4.466 67.902 5.102 67.902C5.738 67.902 6.302 67.764 6.794 67.488C7.298 67.212 7.694 66.822 7.982 66.318C8.282 65.802 8.432 65.196 8.432 64.5V56.616H9.746V64.572C9.746 65.448 9.542 66.234 9.134 66.93C8.738 67.626 8.186 68.178 7.478 68.586C6.782 68.982 5.99 69.18 5.102 69.18ZM18.5981 69V64.032C18.5981 63.288 18.3761 62.688 17.9321 62.232C17.5001 61.764 16.9241 61.53 16.2041 61.53C15.7121 61.53 15.2801 61.638 14.9081 61.854C14.5361 62.07 14.2421 62.364 14.0261 62.736C13.8101 63.108 13.7021 63.534 13.7021 64.014L13.1261 63.69C13.1261 63.054 13.2761 62.484 13.5761 61.98C13.8761 61.476 14.2781 61.08 14.7821 60.792C15.2981 60.504 15.8861 60.36 16.5461 60.36C17.1941 60.36 17.7701 60.516 18.2741 60.828C18.7781 61.14 19.1681 61.56 19.4441 62.088C19.7321 62.616 19.8761 63.192 19.8761 63.816V69H18.5981ZM12.4421 69V60.54H13.7021V69H12.4421ZM22.2331 69V60.54H23.5111V69H22.2331ZM22.8631 58.704C22.6231 58.704 22.4191 58.62 22.2511 58.452C22.0831 58.272 21.9991 58.062 21.9991 57.822C21.9991 57.57 22.0831 57.36 22.2511 57.192C22.4191 57.024 22.6231 56.94 22.8631 56.94C23.1271 56.94 23.3371 57.024 23.4931 57.192C23.6611 57.36 23.7451 57.57 23.7451 57.822C23.7451 58.062 23.6611 58.272 23.4931 58.452C23.3371 58.62 23.1271 58.704 22.8631 58.704ZM27.3791 69V56.976H28.6391V69H27.3791ZM25.2371 61.674V60.54H30.7631V61.674H25.2371ZM36.1059 69.18C35.2539 69.18 34.4919 68.988 33.8199 68.604C33.1479 68.22 32.6139 67.692 32.2179 67.02C31.8339 66.348 31.6419 65.592 31.6419 64.752C31.6419 63.924 31.8339 63.18 32.2179 62.52C32.6019 61.848 33.1239 61.32 33.7839 60.936C34.4439 60.552 35.1819 60.36 35.9979 60.36C36.7659 60.36 37.4439 60.534 38.0319 60.882C38.6319 61.23 39.0999 61.716 39.4359 62.34C39.7839 62.952 39.9579 63.66 39.9579 64.464C39.9579 64.56 39.9519 64.674 39.9399 64.806C39.9279 64.926 39.9039 65.07 39.8679 65.238H32.5419V64.158H39.1839L38.7339 64.554C38.7459 63.93 38.6379 63.396 38.4099 62.952C38.1939 62.496 37.8759 62.148 37.4559 61.908C37.0479 61.656 36.5499 61.53 35.9619 61.53C35.3499 61.53 34.8159 61.662 34.3599 61.926C33.9039 62.19 33.5439 62.562 33.2799 63.042C33.0279 63.51 32.9019 64.068 32.9019 64.716C32.9019 65.364 33.0339 65.934 33.2979 66.426C33.5739 66.918 33.9519 67.302 34.4319 67.578C34.9239 67.854 35.4879 67.992 36.1239 67.992C36.6399 67.992 37.1139 67.902 37.5459 67.722C37.9779 67.53 38.3439 67.248 38.6439 66.876L39.4539 67.704C39.0579 68.172 38.5659 68.538 37.9779 68.802C37.4019 69.054 36.7779 69.18 36.1059 69.18ZM45.4854 69.18C44.7054 69.18 44.0034 68.988 43.3794 68.604C42.7554 68.22 42.2574 67.698 41.8854 67.038C41.5254 66.366 41.3454 65.616 41.3454 64.788C41.3454 63.948 41.5254 63.198 41.8854 62.538C42.2574 61.866 42.7554 61.338 43.3794 60.954C44.0034 60.558 44.7054 60.36 45.4854 60.36C46.1214 60.36 46.6974 60.486 47.2134 60.738C47.7294 60.99 48.1554 61.35 48.4914 61.818C48.8394 62.274 49.0434 62.814 49.1034 63.438V66.084C49.0314 66.696 48.8274 67.236 48.4914 67.704C48.1674 68.16 47.7474 68.52 47.2314 68.784C46.7154 69.048 46.1334 69.18 45.4854 69.18ZM45.7014 67.974C46.2894 67.974 46.8054 67.842 47.2494 67.578C47.6934 67.302 48.0414 66.924 48.2934 66.444C48.5454 65.952 48.6714 65.394 48.6714 64.77C48.6714 64.134 48.5394 63.576 48.2754 63.096C48.0234 62.616 47.6754 62.238 47.2314 61.962C46.7874 61.686 46.2714 61.548 45.6834 61.548C45.0954 61.548 44.5734 61.686 44.1174 61.962C43.6614 62.238 43.3014 62.622 43.0374 63.114C42.7854 63.594 42.6594 64.146 42.6594 64.77C42.6594 65.394 42.7854 65.952 43.0374 66.444C43.3014 66.924 43.6614 67.302 44.1174 67.578C44.5854 67.842 45.1134 67.974 45.7014 67.974ZM49.8594 69H48.5994V66.732L48.8514 64.644L48.5994 62.61V56.256H49.8594V69ZM60.0079 69.18C59.0479 69.18 58.2199 69 57.5239 68.64C56.8279 68.268 56.2159 67.752 55.6879 67.092L56.6059 66.192C57.0259 66.78 57.5119 67.218 58.0639 67.506C58.6279 67.794 59.2939 67.938 60.0619 67.938C60.8539 67.938 61.4959 67.758 61.9879 67.398C62.4799 67.038 62.7259 66.54 62.7259 65.904C62.7259 65.412 62.6119 65.01 62.3839 64.698C62.1559 64.374 61.8559 64.116 61.4839 63.924C61.1239 63.72 60.7219 63.54 60.2779 63.384C59.8339 63.228 59.3899 63.066 58.9459 62.898C58.5139 62.718 58.1119 62.496 57.7399 62.232C57.3679 61.968 57.0679 61.632 56.8399 61.224C56.6239 60.816 56.5159 60.294 56.5159 59.658C56.5159 58.986 56.6779 58.41 57.0019 57.93C57.3259 57.45 57.7699 57.084 58.3339 56.832C58.8979 56.568 59.5399 56.436 60.2599 56.436C61.0639 56.436 61.7779 56.592 62.4019 56.904C63.0379 57.216 63.5659 57.636 63.9859 58.164L63.0859 59.064C62.7019 58.608 62.2819 58.26 61.8259 58.02C61.3699 57.78 60.8359 57.66 60.2239 57.66C59.5039 57.66 58.9279 57.828 58.4959 58.164C58.0639 58.5 57.8479 58.968 57.8479 59.568C57.8479 60.036 57.9559 60.414 58.1719 60.702C58.3999 60.99 58.6999 61.23 59.0719 61.422C59.4439 61.614 59.8459 61.788 60.2779 61.944C60.7219 62.088 61.1659 62.25 61.6099 62.43C62.0539 62.61 62.4559 62.838 62.8159 63.114C63.1879 63.39 63.4879 63.744 63.7159 64.176C63.9439 64.596 64.0579 65.136 64.0579 65.796C64.0579 66.864 63.6919 67.698 62.9599 68.298C62.2399 68.886 61.2559 69.18 60.0079 69.18ZM67.5627 69V56.976H68.8227V69H67.5627ZM65.4207 61.674V60.54H70.9467V61.674H65.4207ZM76.0555 69.18C75.2515 69.18 74.5315 68.988 73.8955 68.604C73.2595 68.208 72.7555 67.68 72.3835 67.02C72.0235 66.36 71.8435 65.616 71.8435 64.788C71.8435 63.948 72.0235 63.198 72.3835 62.538C72.7555 61.866 73.2595 61.338 73.8955 60.954C74.5315 60.558 75.2455 60.36 76.0375 60.36C76.6855 60.36 77.2615 60.492 77.7655 60.756C78.2815 61.008 78.6955 61.368 79.0075 61.836C79.3315 62.292 79.5295 62.826 79.6015 63.438V66.084C79.5295 66.696 79.3315 67.236 79.0075 67.704C78.6955 68.172 78.2815 68.538 77.7655 68.802C77.2615 69.054 76.6915 69.18 76.0555 69.18ZM76.2535 67.974C77.1295 67.974 77.8315 67.68 78.3595 67.092C78.8995 66.504 79.1695 65.73 79.1695 64.77C79.1695 64.134 79.0435 63.576 78.7915 63.096C78.5515 62.604 78.2095 62.226 77.7655 61.962C77.3335 61.686 76.8235 61.548 76.2355 61.548C75.6355 61.548 75.1015 61.686 74.6335 61.962C74.1775 62.238 73.8115 62.622 73.5355 63.114C73.2715 63.594 73.1395 64.146 73.1395 64.77C73.1395 65.394 73.2715 65.946 73.5355 66.426C73.8115 66.906 74.1835 67.284 74.6515 67.56C75.1195 67.836 75.6535 67.974 76.2535 67.974ZM79.0975 69V66.732L79.3495 64.644L79.0975 62.61V60.54H80.3575V69H79.0975ZM84.1565 69V56.976H85.4165V69H84.1565ZM82.0145 61.674V60.54H87.5405V61.674H82.0145ZM92.8832 69.18C92.0312 69.18 91.2692 68.988 90.5972 68.604C89.9252 68.22 89.3912 67.692 88.9952 67.02C88.6112 66.348 88.4192 65.592 88.4192 64.752C88.4192 63.924 88.6112 63.18 88.9952 62.52C89.3792 61.848 89.9012 61.32 90.5612 60.936C91.2212 60.552 91.9592 60.36 92.7752 60.36C93.5432 60.36 94.2212 60.534 94.8092 60.882C95.4092 61.23 95.8772 61.716 96.2132 62.34C96.5612 62.952 96.7352 63.66 96.7352 64.464C96.7352 64.56 96.7292 64.674 96.7172 64.806C96.7052 64.926 96.6812 65.07 96.6452 65.238H89.3192V64.158H95.9612L95.5112 64.554C95.5232 63.93 95.4152 63.396 95.1872 62.952C94.9712 62.496 94.6532 62.148 94.2332 61.908C93.8252 61.656 93.3272 61.53 92.7392 61.53C92.1272 61.53 91.5932 61.662 91.1372 61.926C90.6812 62.19 90.3212 62.562 90.0572 63.042C89.8052 63.51 89.6792 64.068 89.6792 64.716C89.6792 65.364 89.8112 65.934 90.0752 66.426C90.3512 66.918 90.7292 67.302 91.2092 67.578C91.7012 67.854 92.2652 67.992 92.9012 67.992C93.4172 67.992 93.8912 67.902 94.3232 67.722C94.7552 67.53 95.1212 67.248 95.4212 66.876L96.2312 67.704C95.8352 68.172 95.3432 68.538 94.7552 68.802C94.1792 69.054 93.5552 69.18 92.8832 69.18ZM101.255 69.18C100.799 69.18 100.361 69.12 99.9408 69C99.5208 68.868 99.1368 68.688 98.7888 68.46C98.4528 68.232 98.1588 67.962 97.9068 67.65L98.7168 66.822C99.0528 67.23 99.4308 67.536 99.8508 67.74C100.283 67.932 100.763 68.028 101.291 68.028C101.855 68.028 102.293 67.92 102.605 67.704C102.929 67.488 103.091 67.188 103.091 66.804C103.091 66.444 102.977 66.162 102.749 65.958C102.521 65.754 102.227 65.592 101.867 65.472C101.519 65.352 101.147 65.238 100.751 65.13C100.355 65.01 99.9768 64.866 99.6168 64.698C99.2568 64.518 98.9628 64.272 98.7348 63.96C98.5188 63.648 98.4108 63.24 98.4108 62.736C98.4108 62.256 98.5248 61.842 98.7528 61.494C98.9928 61.134 99.3288 60.858 99.7608 60.666C100.205 60.462 100.727 60.36 101.327 60.36C101.963 60.36 102.539 60.474 103.055 60.702C103.571 60.93 103.985 61.266 104.297 61.71L103.487 62.52C103.235 62.196 102.917 61.95 102.533 61.782C102.161 61.602 101.741 61.512 101.273 61.512C100.733 61.512 100.319 61.62 100.031 61.836C99.7548 62.04 99.6168 62.31 99.6168 62.646C99.6168 62.97 99.7308 63.228 99.9588 63.42C100.187 63.6 100.475 63.75 100.823 63.87C101.183 63.978 101.561 64.092 101.957 64.212C102.353 64.32 102.731 64.47 103.091 64.662C103.451 64.842 103.739 65.094 103.955 65.418C104.183 65.73 104.297 66.156 104.297 66.696C104.297 67.452 104.021 68.058 103.469 68.514C102.929 68.958 102.191 69.18 101.255 69.18ZM113.993 69.18C113.177 69.18 112.433 68.982 111.761 68.586C111.101 68.19 110.573 67.656 110.177 66.984C109.793 66.312 109.601 65.562 109.601 64.734C109.601 63.918 109.793 63.18 110.177 62.52C110.573 61.86 111.101 61.338 111.761 60.954C112.433 60.558 113.177 60.36 113.993 60.36C114.821 60.36 115.565 60.552 116.225 60.936C116.885 61.32 117.407 61.848 117.791 62.52C118.187 63.18 118.385 63.918 118.385 64.734C118.385 65.574 118.187 66.33 117.791 67.002C117.407 67.662 116.885 68.19 116.225 68.586C115.565 68.982 114.821 69.18 113.993 69.18ZM113.993 67.956C114.593 67.956 115.121 67.818 115.577 67.542C116.045 67.266 116.411 66.882 116.675 66.39C116.951 65.898 117.089 65.346 117.089 64.734C117.089 64.122 116.951 63.582 116.675 63.114C116.411 62.634 116.045 62.256 115.577 61.98C115.121 61.704 114.593 61.566 113.993 61.566C113.405 61.566 112.877 61.704 112.409 61.98C111.941 62.256 111.575 62.634 111.311 63.114C111.047 63.582 110.915 64.122 110.915 64.734C110.915 65.358 111.047 65.916 111.311 66.408C111.575 66.888 111.941 67.266 112.409 67.542C112.877 67.818 113.405 67.956 113.993 67.956ZM121.333 69V59.1C121.333 58.512 121.459 57.99 121.711 57.534C121.975 57.078 122.335 56.724 122.791 56.472C123.259 56.208 123.787 56.076 124.375 56.076C124.831 56.076 125.233 56.16 125.581 56.328C125.929 56.484 126.247 56.706 126.535 56.994L125.707 57.822C125.515 57.63 125.311 57.492 125.095 57.408C124.891 57.312 124.651 57.264 124.375 57.264C123.811 57.264 123.373 57.432 123.061 57.768C122.761 58.092 122.611 58.548 122.611 59.136V69H121.333ZM119.209 61.674V60.54H125.437V61.674H119.209ZM129.937 69L135.013 56.616H136.003L141.025 69H139.603L135.229 58.056H135.751L131.341 69H129.937ZM132.259 65.778V64.608H138.739V65.778H132.259ZM142.977 69V60.54H144.237V69H142.977ZM148.791 69V63.816C148.791 63.12 148.581 62.568 148.161 62.16C147.741 61.74 147.213 61.53 146.577 61.53C146.145 61.53 145.749 61.626 145.389 61.818C145.041 61.998 144.759 62.256 144.543 62.592C144.339 62.928 144.237 63.33 144.237 63.798L143.661 63.564C143.661 62.916 143.805 62.352 144.093 61.872C144.381 61.392 144.765 61.02 145.245 60.756C145.737 60.492 146.289 60.36 146.901 60.36C147.501 60.36 148.035 60.492 148.503 60.756C148.983 61.02 149.361 61.392 149.637 61.872C149.925 62.352 150.069 62.922 150.069 63.582V69H148.791ZM154.623 69V63.816C154.623 63.12 154.413 62.568 153.993 62.16C153.573 61.74 153.039 61.53 152.391 61.53C151.971 61.53 151.581 61.626 151.221 61.818C150.873 61.998 150.591 62.256 150.375 62.592C150.171 62.928 150.069 63.33 150.069 63.798L149.313 63.564C149.349 62.916 149.517 62.352 149.817 61.872C150.129 61.392 150.531 61.02 151.023 60.756C151.527 60.492 152.079 60.36 152.679 60.36C153.279 60.36 153.819 60.492 154.299 60.756C154.791 61.02 155.175 61.392 155.451 61.872C155.739 62.352 155.883 62.922 155.883 63.582V69H154.623ZM162.159 69.18C161.307 69.18 160.545 68.988 159.873 68.604C159.201 68.22 158.667 67.692 158.271 67.02C157.887 66.348 157.695 65.592 157.695 64.752C157.695 63.924 157.887 63.18 158.271 62.52C158.655 61.848 159.177 61.32 159.837 60.936C160.497 60.552 161.235 60.36 162.051 60.36C162.819 60.36 163.497 60.534 164.085 60.882C164.685 61.23 165.153 61.716 165.489 62.34C165.837 62.952 166.011 63.66 166.011 64.464C166.011 64.56 166.005 64.674 165.993 64.806C165.981 64.926 165.957 65.07 165.921 65.238H158.595V64.158H165.237L164.787 64.554C164.799 63.93 164.691 63.396 164.463 62.952C164.247 62.496 163.929 62.148 163.509 61.908C163.101 61.656 162.603 61.53 162.015 61.53C161.403 61.53 160.869 61.662 160.413 61.926C159.957 62.19 159.597 62.562 159.333 63.042C159.081 63.51 158.955 64.068 158.955 64.716C158.955 65.364 159.087 65.934 159.351 66.426C159.627 66.918 160.005 67.302 160.485 67.578C160.977 67.854 161.541 67.992 162.177 67.992C162.693 67.992 163.167 67.902 163.599 67.722C164.031 67.53 164.397 67.248 164.697 66.876L165.507 67.704C165.111 68.172 164.619 68.538 164.031 68.802C163.455 69.054 162.831 69.18 162.159 69.18ZM167.938 69V60.54H169.198V69H167.938ZM169.198 64.068L168.676 63.834C168.676 62.766 168.934 61.92 169.45 61.296C169.978 60.672 170.698 60.36 171.61 60.36C172.03 60.36 172.414 60.438 172.762 60.594C173.11 60.738 173.434 60.972 173.734 61.296L172.906 62.178C172.702 61.95 172.474 61.788 172.222 61.692C171.982 61.596 171.706 61.548 171.394 61.548C170.746 61.548 170.218 61.764 169.81 62.196C169.402 62.616 169.198 63.24 169.198 64.068ZM175.075 69V60.54H176.353V69H175.075ZM175.705 58.704C175.465 58.704 175.261 58.62 175.093 58.452C174.925 58.272 174.841 58.062 174.841 57.822C174.841 57.57 174.925 57.36 175.093 57.192C175.261 57.024 175.465 56.94 175.705 56.94C175.969 56.94 176.179 57.024 176.335 57.192C176.503 57.36 176.587 57.57 176.587 57.822C176.587 58.062 176.503 58.272 176.335 58.452C176.179 58.62 175.969 58.704 175.705 58.704ZM182.759 69.18C181.931 69.18 181.181 68.988 180.509 68.604C179.849 68.208 179.321 67.674 178.925 67.002C178.541 66.33 178.349 65.58 178.349 64.752C178.349 63.924 178.541 63.18 178.925 62.52C179.321 61.848 179.849 61.32 180.509 60.936C181.181 60.552 181.931 60.36 182.759 60.36C183.395 60.36 183.989 60.48 184.541 60.72C185.093 60.96 185.561 61.296 185.945 61.728L185.117 62.574C184.829 62.25 184.481 62.004 184.073 61.836C183.665 61.656 183.227 61.566 182.759 61.566C182.159 61.566 181.625 61.704 181.157 61.98C180.689 62.256 180.323 62.634 180.059 63.114C179.795 63.582 179.663 64.128 179.663 64.752C179.663 65.364 179.795 65.916 180.059 66.408C180.323 66.888 180.689 67.266 181.157 67.542C181.625 67.818 182.159 67.956 182.759 67.956C183.239 67.956 183.683 67.872 184.091 67.704C184.499 67.524 184.847 67.272 185.135 66.948L185.981 67.794C185.585 68.238 185.105 68.58 184.541 68.82C183.989 69.06 183.395 69.18 182.759 69.18ZM191.263 69.18C190.459 69.18 189.739 68.988 189.103 68.604C188.467 68.208 187.963 67.68 187.591 67.02C187.231 66.36 187.051 65.616 187.051 64.788C187.051 63.948 187.231 63.198 187.591 62.538C187.963 61.866 188.467 61.338 189.103 60.954C189.739 60.558 190.453 60.36 191.245 60.36C191.893 60.36 192.469 60.492 192.973 60.756C193.489 61.008 193.903 61.368 194.215 61.836C194.539 62.292 194.737 62.826 194.809 63.438V66.084C194.737 66.696 194.539 67.236 194.215 67.704C193.903 68.172 193.489 68.538 192.973 68.802C192.469 69.054 191.899 69.18 191.263 69.18ZM191.461 67.974C192.337 67.974 193.039 67.68 193.567 67.092C194.107 66.504 194.377 65.73 194.377 64.77C194.377 64.134 194.251 63.576 193.999 63.096C193.759 62.604 193.417 62.226 192.973 61.962C192.541 61.686 192.031 61.548 191.443 61.548C190.843 61.548 190.309 61.686 189.841 61.962C189.385 62.238 189.019 62.622 188.743 63.114C188.479 63.594 188.347 64.146 188.347 64.77C188.347 65.394 188.479 65.946 188.743 66.426C189.019 66.906 189.391 67.284 189.859 67.56C190.327 67.836 190.861 67.974 191.461 67.974ZM194.305 69V66.732L194.557 64.644L194.305 62.61V60.54H195.564V69H194.305Z" fill="white"/>
</svg>
