<svg width="253" height="42" viewBox="0 0 253 42" fill="none" xmlns="http://www.w3.org/2000/svg">
<path d="M10.65 41.5C6.98333 41.5 4.31667 40.7333 2.65 39.2C1.01667 37.6333 0.166667 35.05 0.1 31.45C0.0333335 28.1833 1.41561e-07 24.7 1.41561e-07 21C1.41561e-07 17.2667 0.0333335 13.7667 0.1 10.5C0.166667 6.93333 1.01667 4.38333 2.65 2.85C4.31667 1.28333 6.98333 0.499997 10.65 0.499997C14.3167 0.499997 16.95 1.28333 18.55 2.85C20.15 4.38333 21.0167 6.93333 21.15 10.5C21.2833 13.8333 21.35 17.35 21.35 21.05C21.35 24.7167 21.2833 28.1833 21.15 31.45C21.0167 35.05 20.15 37.6333 18.55 39.2C16.95 40.7333 14.3167 41.5 10.65 41.5ZM10.65 35.4C12.5833 35.4 13.5833 34.55 13.65 32.85C13.7167 31.15 13.7667 29.2833 13.8 27.25C13.8667 25.2167 13.9 23.1333 13.9 21C13.9 18.8333 13.8667 16.7333 13.8 14.7C13.7667 12.6667 13.7167 10.8 13.65 9.1C13.5833 7.43333 12.5833 6.6 10.65 6.6C8.68333 6.6 7.66667 7.43333 7.6 9.1C7.53333 10.8 7.48333 12.6667 7.45 14.7C7.41667 16.7333 7.4 18.8333 7.4 21C7.4 23.1333 7.41667 25.2167 7.45 27.25C7.48333 29.2833 7.53333 31.15 7.6 32.85C7.66667 34.55 8.68333 35.4 10.65 35.4ZM35.0152 41.5C31.2819 41.5 28.5986 40.7333 26.9652 39.2C25.3652 37.6333 24.5319 35.05 24.4652 31.45C24.2986 21.2833 24.2986 11.1333 24.4652 0.999999H31.9652C31.8986 4.33333 31.8486 7.83333 31.8152 11.5C31.8152 15.1333 31.8319 18.7667 31.8652 22.4C31.8986 26 31.9319 29.4833 31.9652 32.85C31.9652 34.55 32.9819 35.4 35.0152 35.4C37.0152 35.4 38.0152 34.55 38.0152 32.85C38.0486 29.4833 38.0819 26 38.1152 22.4C38.1486 18.7667 38.1486 15.1333 38.1152 11.5C38.1152 7.83333 38.0819 4.33333 38.0152 0.999999H45.5152C45.6819 11.1333 45.6819 21.2833 45.5152 31.45C45.4819 35.05 44.6486 37.6333 43.0152 39.2C41.4152 40.7333 38.7486 41.5 35.0152 41.5ZM49.6094 41V0.999999H59.2594C62.9927 0.999999 65.676 1.76667 67.3094 3.3C68.976 4.8 69.876 7.28333 70.0094 10.75C70.0427 11.6833 70.0594 12.5 70.0594 13.2C70.0927 13.9 70.0927 14.6 70.0594 15.3C70.0594 16 70.0427 16.8167 70.0094 17.75C69.9427 19.9167 69.576 21.7 68.9094 23.1C68.2427 24.4667 67.226 25.5167 65.8594 26.25L70.5594 41H62.6094L58.8094 27.5H57.1094V41H49.6094ZM57.1094 20.9H59.2594C61.326 20.9 62.4094 19.9833 62.5094 18.15C62.676 15.55 62.676 12.95 62.5094 10.35C62.4094 8.51666 61.326 7.6 59.2594 7.6H57.1094V20.9ZM84.5215 41V0.999999H92.0215V34.4H101.871V41H84.5215ZM114.556 41.5C110.89 41.5 108.223 40.7333 106.556 39.2C104.923 37.6333 104.073 35.05 104.006 31.45C103.94 28.1833 103.906 24.7 103.906 21C103.906 17.2667 103.94 13.7667 104.006 10.5C104.073 6.93333 104.923 4.38333 106.556 2.85C108.223 1.28333 110.89 0.499997 114.556 0.499997C118.223 0.499997 120.856 1.28333 122.456 2.85C124.056 4.38333 124.923 6.93333 125.056 10.5C125.19 13.8333 125.256 17.35 125.256 21.05C125.256 24.7167 125.19 28.1833 125.056 31.45C124.923 35.05 124.056 37.6333 122.456 39.2C120.856 40.7333 118.223 41.5 114.556 41.5ZM114.556 35.4C116.49 35.4 117.49 34.55 117.556 32.85C117.623 31.15 117.673 29.2833 117.706 27.25C117.773 25.2167 117.806 23.1333 117.806 21C117.806 18.8333 117.773 16.7333 117.706 14.7C117.673 12.6667 117.623 10.8 117.556 9.1C117.49 7.43333 116.49 6.6 114.556 6.6C112.59 6.6 111.573 7.43333 111.506 9.1C111.44 10.8 111.39 12.6667 111.356 14.7C111.323 16.7333 111.306 18.8333 111.306 21C111.306 23.1333 111.323 25.2167 111.356 27.25C111.39 29.2833 111.44 31.15 111.506 32.85C111.573 34.55 112.59 35.4 114.556 35.4ZM138.871 41.5C135.105 41.5 132.421 40.7333 130.821 39.2C129.221 37.6333 128.388 35.05 128.321 31.45C128.288 30.05 128.271 28.45 128.271 26.65C128.271 24.8167 128.271 22.9333 128.271 21C128.271 19.0333 128.271 17.1333 128.271 15.3C128.271 13.4667 128.288 11.85 128.321 10.45C128.388 7.38333 129.238 4.96667 130.871 3.2C132.538 1.4 135.205 0.499997 138.871 0.499997C142.471 0.499997 145.071 1.28333 146.671 2.85C148.305 4.38333 149.171 6.93333 149.271 10.5C149.305 11.3333 149.305 12.25 149.271 13.25C149.271 14.25 149.255 15.1667 149.221 16H141.721C141.755 15.3667 141.771 14.6333 141.771 13.8C141.771 12.9667 141.771 12.1333 141.771 11.3C141.805 10.4333 141.805 9.7 141.771 9.1C141.705 7.43333 140.738 6.6 138.871 6.6C136.905 6.6 135.888 7.43333 135.821 9.1C135.755 11.4333 135.705 14 135.671 16.8C135.638 19.6 135.638 22.4 135.671 25.2C135.705 27.9667 135.755 30.5167 135.821 32.85C135.888 34.55 136.905 35.4 138.871 35.4C140.871 35.4 141.905 34.55 141.971 32.85C142.005 32.25 142.021 31.5333 142.021 30.7C142.021 29.8333 142.021 28.9833 142.021 28.15C142.021 27.3167 142.005 26.6 141.971 26H149.471C149.505 26.8 149.521 27.7167 149.521 28.75C149.521 29.75 149.505 30.65 149.471 31.45C149.371 35.05 148.488 37.6333 146.821 39.2C145.188 40.7333 142.538 41.5 138.871 41.5ZM150.563 41L156.113 0.999999H167.913L173.463 41H165.763L164.913 32.65H159.113L158.263 41H150.563ZM159.813 26.05H164.213L163.313 17.2L162.713 7.6H161.313L160.713 17.2L159.813 26.05ZM178.399 41V7.6H171.949V0.999999H192.299V7.6H185.899V41H178.399ZM194.336 41V0.999999H201.836V41H194.336ZM216.021 41.5C212.354 41.5 209.688 40.7333 208.021 39.2C206.388 37.6333 205.538 35.05 205.471 31.45C205.404 28.1833 205.371 24.7 205.371 21C205.371 17.2667 205.404 13.7667 205.471 10.5C205.538 6.93333 206.388 4.38333 208.021 2.85C209.688 1.28333 212.354 0.499997 216.021 0.499997C219.688 0.499997 222.321 1.28333 223.921 2.85C225.521 4.38333 226.388 6.93333 226.521 10.5C226.654 13.8333 226.721 17.35 226.721 21.05C226.721 24.7167 226.654 28.1833 226.521 31.45C226.388 35.05 225.521 37.6333 223.921 39.2C222.321 40.7333 219.688 41.5 216.021 41.5ZM216.021 35.4C217.954 35.4 218.954 34.55 219.021 32.85C219.088 31.15 219.138 29.2833 219.171 27.25C219.238 25.2167 219.271 23.1333 219.271 21C219.271 18.8333 219.238 16.7333 219.171 14.7C219.138 12.6667 219.088 10.8 219.021 9.1C218.954 7.43333 217.954 6.6 216.021 6.6C214.054 6.6 213.038 7.43333 212.971 9.1C212.904 10.8 212.854 12.6667 212.821 14.7C212.788 16.7333 212.771 18.8333 212.771 21C212.771 23.1333 212.788 25.2167 212.821 27.25C212.854 29.2833 212.904 31.15 212.971 32.85C213.038 34.55 214.054 35.4 216.021 35.4ZM229.736 41V0.999999H240.586L243.586 13.75L246.336 34.4H247.636L246.236 18.15L245.636 0.999999H252.886V41H241.486L238.486 27.9L236.436 7.55H235.036L236.336 25.65L236.986 41H229.736Z" fill="white"/>
</svg>
