<svg width="283" height="87" viewBox="0 0 283 87" fill="none" xmlns="http://www.w3.org/2000/svg">
<path d="M7.5 41V31.45L6.95 29.2L7.07805e-08 0.999999H7.65L9.8 10.7L10.55 22.45H11.95L12.7 10.7L14.85 0.999999H22.5L15.55 29.15L15 31.45V41H7.5ZM33.6715 41.5C30.0048 41.5 27.3382 40.7333 25.6715 39.2C24.0382 37.6333 23.1882 35.05 23.1215 31.45C23.0548 28.1833 23.0215 24.7 23.0215 21C23.0215 17.2667 23.0548 13.7667 23.1215 10.5C23.1882 6.93333 24.0382 4.38333 25.6715 2.85C27.3382 1.28333 30.0048 0.499997 33.6715 0.499997C37.3382 0.499997 39.9715 1.28333 41.5715 2.85C43.1715 4.38333 44.0382 6.93333 44.1715 10.5C44.3048 13.8333 44.3715 17.35 44.3715 21.05C44.3715 24.7167 44.3048 28.1833 44.1715 31.45C44.0382 35.05 43.1715 37.6333 41.5715 39.2C39.9715 40.7333 37.3382 41.5 33.6715 41.5ZM33.6715 35.4C35.6048 35.4 36.6048 34.55 36.6715 32.85C36.7382 31.15 36.7882 29.2833 36.8215 27.25C36.8882 25.2167 36.9215 23.1333 36.9215 21C36.9215 18.8333 36.8882 16.7333 36.8215 14.7C36.7882 12.6667 36.7382 10.8 36.6715 9.1C36.6048 7.43333 35.6048 6.6 33.6715 6.6C31.7048 6.6 30.6882 7.43333 30.6215 9.1C30.5548 10.8 30.5048 12.6667 30.4715 14.7C30.4382 16.7333 30.4215 18.8333 30.4215 21C30.4215 23.1333 30.4382 25.2167 30.4715 27.25C30.5048 29.2833 30.5548 31.15 30.6215 32.85C30.6882 34.55 31.7048 35.4 33.6715 35.4ZM58.0367 41.5C54.3034 41.5 51.6201 40.7333 49.9867 39.2C48.3867 37.6333 47.5534 35.05 47.4867 31.45C47.3201 21.2833 47.3201 11.1333 47.4867 0.999999H54.9867C54.9201 4.33333 54.8701 7.83333 54.8367 11.5C54.8367 15.1333 54.8534 18.7667 54.8867 22.4C54.9201 26 54.9534 29.4833 54.9867 32.85C54.9867 34.55 56.0034 35.4 58.0367 35.4C60.0367 35.4 61.0367 34.55 61.0367 32.85C61.0701 29.4833 61.1034 26 61.1367 22.4C61.1701 18.7667 61.1701 15.1333 61.1367 11.5C61.1367 7.83333 61.1034 4.33333 61.0367 0.999999H68.5367C68.7034 11.1333 68.7034 21.2833 68.5367 31.45C68.5034 35.05 67.6701 37.6333 66.0367 39.2C64.4367 40.7333 61.7701 41.5 58.0367 41.5ZM72.6309 41V0.999999H82.2809C86.0142 0.999999 88.6975 1.76667 90.3309 3.3C91.9975 4.8 92.8975 7.28333 93.0309 10.75C93.0642 11.6833 93.0809 12.5 93.0809 13.2C93.1142 13.9 93.1142 14.6 93.0809 15.3C93.0809 16 93.0642 16.8167 93.0309 17.75C92.9642 19.9167 92.5975 21.7 91.9309 23.1C91.2642 24.4667 90.2475 25.5167 88.8809 26.25L93.5809 41H85.6309L81.8309 27.5H80.1309V41H72.6309ZM80.1309 20.9H82.2809C84.3475 20.9 85.4309 19.9833 85.5309 18.15C85.6975 15.55 85.6975 12.95 85.5309 10.35C85.4309 8.51666 84.3475 7.6 82.2809 7.6H80.1309V20.9ZM107.543 41V0.999999H117.693C121.46 0.999999 124.176 1.8 125.843 3.4C127.51 4.96666 128.376 7.58333 128.443 11.25C128.51 13.55 128.543 15.75 128.543 17.85C128.576 19.9167 128.576 22 128.543 24.1C128.543 26.1667 128.51 28.3667 128.443 30.7C128.376 34.3667 127.51 37 125.843 38.6C124.176 40.2 121.46 41 117.693 41H107.543ZM115.043 34.4H117.693C119.793 34.4 120.876 33.4667 120.943 31.6C121.143 24.5 121.143 17.4167 120.943 10.35C120.876 8.51666 119.793 7.6 117.693 7.6H115.043V34.4ZM130.566 41L136.116 0.999999H147.916L153.466 41H145.766L144.916 32.65H139.116L138.266 41H130.566ZM139.816 26.05H144.216L143.316 17.2L142.716 7.6H141.316L140.716 17.2L139.816 26.05ZM158.477 41V31.45L157.927 29.2L150.977 0.999999H158.627L160.777 10.7L161.527 22.45H162.927L163.677 10.7L165.827 0.999999H173.477L166.527 29.15L165.977 31.45V41H158.477ZM7.07805e-08 86L5.55 46H17.35L22.9 86H15.2L14.35 77.65H8.55L7.7 86H7.07805e-08ZM9.25 71.05H13.65L12.75 62.2L12.15 52.6H10.75L10.15 62.2L9.25 71.05ZM27.8367 86V52.6H21.3867V46H41.7367V52.6H35.3367V86H27.8367ZM60.698 86V52.6H54.248V46H74.598V52.6H68.198V86H60.698ZM76.6348 86V46H84.1348V62.35H89.3848V46H96.8848V86H89.3848V68.95H84.1348V86H76.6348ZM100.902 86V46H118.202V52.6H108.402V62.35H117.702V68.95H108.402V79.4H118.202V86H100.902ZM142.901 86.5C140.401 86.5 138.385 86.1667 136.851 85.5C135.351 84.8 134.251 83.7167 133.551 82.25C132.851 80.7833 132.451 78.85 132.351 76.45C132.318 75.05 132.285 73.4667 132.251 71.7C132.218 69.9 132.201 68.05 132.201 66.15C132.201 64.2167 132.218 62.3667 132.251 60.6C132.285 58.8333 132.318 57.2833 132.351 55.95C132.451 53.4167 132.851 51.3833 133.551 49.85C134.285 48.3167 135.401 47.2167 136.901 46.55C138.435 45.85 140.435 45.5 142.901 45.5C146.401 45.5 148.951 46.2833 150.551 47.85C152.151 49.3833 153.068 51.9333 153.301 55.5C153.368 56.2667 153.401 57.1833 153.401 58.25C153.401 59.3167 153.368 60.2333 153.301 61H145.801C145.868 60.0667 145.901 58.9167 145.901 57.55C145.901 56.1833 145.868 55.0333 145.801 54.1C145.701 52.4333 144.735 51.6 142.901 51.6C140.968 51.6 139.951 52.4333 139.851 54.1C139.718 56.4333 139.618 59 139.551 61.8C139.518 64.6 139.518 67.4 139.551 70.2C139.618 72.9667 139.718 75.5167 139.851 77.85C139.951 79.55 140.968 80.4 142.901 80.4C143.868 80.4 144.635 80.1833 145.201 79.75C145.768 79.3167 146.085 78.6833 146.151 77.85C146.185 77.45 146.201 76.95 146.201 76.35C146.235 75.7167 146.235 75.0833 146.201 74.45C146.201 73.8167 146.185 73.3167 146.151 72.95H143.401V66.45H153.451C153.518 67.9833 153.535 69.65 153.501 71.45C153.501 73.25 153.468 74.9167 153.401 76.45C153.235 80.05 152.335 82.6333 150.701 84.2C149.068 85.7333 146.468 86.5 142.901 86.5ZM154.59 86L160.14 46H171.94L177.49 86H169.79L168.94 77.65H163.14L162.29 86H154.59ZM163.84 71.05H168.24L167.34 62.2L166.74 52.6H165.34L164.74 62.2L163.84 71.05ZM179.516 86V46H187.016V79.4H196.866V86H179.516ZM199.389 86V46H206.889V79.4H216.739V86H199.389ZM219.262 86V46H236.562V52.6H226.762V62.35H236.062V68.95H226.762V79.4H236.562V86H219.262ZM239.086 86V46H248.736C252.469 46 255.153 46.7667 256.786 48.3C258.453 49.8 259.353 52.2833 259.486 55.75C259.519 56.6833 259.536 57.5 259.536 58.2C259.569 58.9 259.569 59.6 259.536 60.3C259.536 61 259.519 61.8167 259.486 62.75C259.419 64.9167 259.053 66.7 258.386 68.1C257.719 69.4667 256.703 70.5167 255.336 71.25L260.036 86H252.086L248.286 72.5H246.586V86H239.086ZM246.586 65.9H248.736C250.803 65.9 251.886 64.9833 251.986 63.15C252.153 60.55 252.153 57.95 251.986 55.35C251.886 53.5167 250.803 52.6 248.736 52.6H246.586V65.9ZM267.51 86V76.45L266.96 74.2L260.01 46H267.66L269.81 55.7L270.56 67.45H271.96L272.71 55.7L274.86 46H282.51L275.56 74.15L275.01 76.45V86H267.51Z" fill="#151515"/>
</svg>
