<svg width="199" height="87" viewBox="0 0 199 87" fill="none" xmlns="http://www.w3.org/2000/svg">
<path d="M10.6 41.5C6.83333 41.5 4.15 40.7333 2.55 39.2C0.95 37.6333 0.116667 35.05 0.0500001 31.45C0.0166668 30.05 1.41561e-07 28.45 1.41561e-07 26.65C1.41561e-07 24.8167 1.41561e-07 22.9333 1.41561e-07 21C1.41561e-07 19.0333 1.41561e-07 17.1333 1.41561e-07 15.3C1.41561e-07 13.4667 0.0166668 11.85 0.0500001 10.45C0.116667 7.38333 0.966667 4.96667 2.6 3.2C4.26667 1.4 6.93333 0.499997 10.6 0.499997C14.2 0.499997 16.8 1.28333 18.4 2.85C20.0333 4.38333 20.9 6.93333 21 10.5C21.0333 11.3333 21.0333 12.25 21 13.25C21 14.25 20.9833 15.1667 20.95 16H13.45C13.4833 15.3667 13.5 14.6333 13.5 13.8C13.5 12.9667 13.5 12.1333 13.5 11.3C13.5333 10.4333 13.5333 9.7 13.5 9.1C13.4333 7.43333 12.4667 6.6 10.6 6.6C8.63333 6.6 7.61667 7.43333 7.55 9.1C7.48333 11.4333 7.43333 14 7.4 16.8C7.36667 19.6 7.36667 22.4 7.4 25.2C7.43333 27.9667 7.48333 30.5167 7.55 32.85C7.61667 34.55 8.63333 35.4 10.6 35.4C12.6 35.4 13.6333 34.55 13.7 32.85C13.7333 32.25 13.75 31.5333 13.75 30.7C13.75 29.8333 13.75 28.9833 13.75 28.15C13.75 27.3167 13.7333 26.6 13.7 26H21.2C21.2333 26.8 21.25 27.7167 21.25 28.75C21.25 29.75 21.2333 30.65 21.2 31.45C21.1 35.05 20.2167 37.6333 18.55 39.2C16.9167 40.7333 14.2667 41.5 10.6 41.5ZM33.941 41.5C30.2743 41.5 27.6077 40.7333 25.941 39.2C24.3077 37.6333 23.4577 35.05 23.391 31.45C23.3243 28.1833 23.291 24.7 23.291 21C23.291 17.2667 23.3243 13.7667 23.391 10.5C23.4577 6.93333 24.3077 4.38333 25.941 2.85C27.6077 1.28333 30.2743 0.499997 33.941 0.499997C37.6077 0.499997 40.241 1.28333 41.841 2.85C43.441 4.38333 44.3077 6.93333 44.441 10.5C44.5743 13.8333 44.641 17.35 44.641 21.05C44.641 24.7167 44.5743 28.1833 44.441 31.45C44.3077 35.05 43.441 37.6333 41.841 39.2C40.241 40.7333 37.6077 41.5 33.941 41.5ZM33.941 35.4C35.8743 35.4 36.8743 34.55 36.941 32.85C37.0077 31.15 37.0577 29.2833 37.091 27.25C37.1577 25.2167 37.191 23.1333 37.191 21C37.191 18.8333 37.1577 16.7333 37.091 14.7C37.0577 12.6667 37.0077 10.8 36.941 9.1C36.8743 7.43333 35.8743 6.6 33.941 6.6C31.9743 6.6 30.9577 7.43333 30.891 9.1C30.8243 10.8 30.7743 12.6667 30.741 14.7C30.7077 16.7333 30.691 18.8333 30.691 21C30.691 23.1333 30.7077 25.2167 30.741 27.25C30.7743 29.2833 30.8243 31.15 30.891 32.85C30.9577 34.55 31.9743 35.4 33.941 35.4ZM47.6563 41V0.999999H59.7063L63.0063 16.15L63.6563 34.4H64.9563L65.5563 16.15L68.9063 0.999999H80.9063V41H73.4063V28.7L74.8563 7.6H73.5063L71.4063 29.2L68.3063 41H60.2563L57.2063 29.2L55.0563 7.6H53.7563L55.1563 28.7V41H47.6563ZM84.9121 41V0.999999H102.212V7.6H92.4121V17.35H101.712V23.95H92.4121V34.4H102.212V41H84.9121ZM127.261 41.5C123.494 41.5 120.761 40.7333 119.061 39.2C117.361 37.6333 116.428 35.0667 116.261 31.5C116.261 31.0667 116.244 30.75 116.211 30.55C116.211 30.35 116.211 30.15 116.211 29.95C116.211 29.75 116.211 29.4333 116.211 29C116.244 28.5667 116.261 27.9 116.261 27C116.294 24.8667 116.761 23.1667 117.661 21.9C118.561 20.6333 119.611 19.5333 120.811 18.6C119.478 15.9667 118.644 13.4333 118.311 11C117.878 7.9 118.411 5.38333 119.911 3.45C121.411 1.48333 123.928 0.499997 127.461 0.499997C130.794 0.499997 133.194 1.38333 134.661 3.15C136.128 4.88333 136.678 7.35 136.311 10.55C136.111 12.3833 135.478 14.1333 134.411 15.8C133.344 17.4667 131.778 19.0667 129.711 20.6C130.178 21.3 130.644 22 131.111 22.7C131.611 23.3667 132.128 24.0333 132.661 24.7C132.628 24.1333 132.578 23.5333 132.511 22.9C132.444 22.2333 132.361 21.5 132.261 20.7H138.261C138.428 22.2333 138.544 24.0167 138.611 26.05C138.711 28.0833 138.678 29.95 138.511 31.65C139.444 32.6833 140.311 33.6167 141.111 34.45C141.911 35.2833 142.594 35.9833 143.161 36.55L138.361 41.2C137.928 40.7333 137.478 40.2667 137.011 39.8C136.544 39.3 136.078 38.8167 135.611 38.35C134.744 39.45 133.628 40.25 132.261 40.75C130.894 41.25 129.228 41.5 127.261 41.5ZM126.511 15.1C127.711 14.2333 128.528 13.4167 128.961 12.65C129.428 11.85 129.728 11.15 129.861 10.55C130.161 9.01667 130.144 7.78333 129.811 6.85C129.478 5.88333 128.694 5.4 127.461 5.4C126.428 5.4 125.711 5.85 125.311 6.75C124.944 7.61666 124.811 8.61667 124.911 9.75C124.978 10.55 125.144 11.4 125.411 12.3C125.711 13.2 126.078 14.1333 126.511 15.1ZM127.461 35.6C129.328 35.6 130.528 34.8333 131.061 33.3C129.894 31.9333 128.744 30.5333 127.611 29.1C126.478 27.6667 125.411 26.2333 124.411 24.8C124.178 25.1333 123.978 25.5 123.811 25.9C123.644 26.3 123.544 26.7667 123.511 27.3C123.478 27.9 123.444 28.3833 123.411 28.75C123.411 29.1167 123.411 29.5167 123.411 29.95C123.444 30.35 123.478 30.9333 123.511 31.7C123.678 34.3 124.994 35.6 127.461 35.6ZM158.154 41V0.999999H167.404C171.138 0.999999 173.854 1.76667 175.554 3.3C177.288 4.8 178.154 7.28333 178.154 10.75C178.154 11.2167 178.154 11.6667 178.154 12.1C178.154 12.5333 178.138 12.9667 178.104 13.4C177.971 15.2333 177.554 16.6833 176.854 17.75C176.154 18.8167 175.071 19.6 173.604 20.1V21.3C175.138 21.8 176.254 22.6 176.954 23.7C177.688 24.8 178.088 26.2833 178.154 28.15C178.188 29.15 178.188 30.1833 178.154 31.25C178.021 34.7167 177.121 37.2167 175.454 38.75C173.821 40.25 171.138 41 167.404 41H158.154ZM165.654 17.35H167.404C168.471 17.35 169.271 17 169.804 16.3C170.371 15.5667 170.654 14.5333 170.654 13.2V10.35C170.654 8.51666 169.571 7.6 167.404 7.6H165.654V17.35ZM165.654 34.4H167.404C169.571 34.4 170.654 33.3167 170.654 31.15V28.5C170.654 26.8333 170.404 25.6667 169.904 25C169.404 24.3 168.571 23.95 167.404 23.95H165.654V34.4ZM180.713 41V0.999999H198.013V7.6H188.213V17.35H197.513V23.95H188.213V34.4H198.013V41H180.713ZM1.41561e-07 86V46H7.5V86H1.41561e-07ZM11.5234 86V46H22.3734L25.3734 58.75L28.1234 79.4H29.4234L28.0234 63.15L27.4234 46H34.6734V86H23.2734L20.2734 72.9L18.2234 52.55H16.8234L18.1234 70.65L18.7734 86H11.5234ZM48.8336 86.5C45.1669 86.5 42.5503 85.7333 40.9836 84.2C39.4503 82.6333 38.6003 80.05 38.4336 76.45C38.4003 75.65 38.3836 74.75 38.3836 73.75C38.4169 72.7167 38.5003 71.8 38.6336 71H45.6836C45.6169 72.2333 45.5669 73.45 45.5336 74.65C45.5336 75.8167 45.5836 76.8833 45.6836 77.85C45.8503 79.55 46.9003 80.4 48.8336 80.4C49.8003 80.4 50.5169 80.1833 50.9836 79.75C51.4503 79.3167 51.7336 78.6833 51.8336 77.85C52.0336 76.15 52.0336 74.4667 51.8336 72.8C51.7669 72.1 51.5503 71.4667 51.1836 70.9C50.8169 70.3333 50.2336 69.95 49.4336 69.75L45.3336 68.7C42.7336 68.0333 40.9169 66.9167 39.8836 65.35C38.8503 63.7833 38.3003 61.75 38.2336 59.25C38.2003 57.9167 38.2003 56.6667 38.2336 55.5C38.3336 53.1 38.7336 51.1667 39.4336 49.7C40.1669 48.2333 41.2836 47.1667 42.7836 46.5C44.3169 45.8333 46.3336 45.5 48.8336 45.5C52.4003 45.5 54.9836 46.2833 56.5836 47.85C58.1836 49.3833 59.0503 51.9333 59.1836 55.5C59.2169 56.2333 59.2169 57.1167 59.1836 58.15C59.1836 59.1833 59.1503 60.1333 59.0836 61H51.8836C51.9503 59.8333 51.9836 58.6833 51.9836 57.55C52.0169 56.3833 52.0003 55.2333 51.9336 54.1C51.9003 53.3 51.6003 52.6833 51.0336 52.25C50.5003 51.8167 49.7669 51.6 48.8336 51.6C47.8336 51.6 47.0836 51.8167 46.5836 52.25C46.1169 52.6833 45.8336 53.3 45.7336 54.1C45.5336 55.8 45.5336 57.5167 45.7336 59.25C45.8003 59.9167 46.0336 60.5333 46.4336 61.1C46.8336 61.6333 47.4503 62 48.2836 62.2L51.8336 63.05C54.6336 63.7167 56.5669 64.8667 57.6336 66.5C58.7003 68.1333 59.2836 70.2333 59.3836 72.8C59.4169 73.3667 59.4169 73.9833 59.3836 74.65C59.3836 75.2833 59.3669 75.8833 59.3336 76.45C59.2003 80.05 58.3336 82.6333 56.7336 84.2C55.1669 85.7333 52.5336 86.5 48.8336 86.5ZM62.4023 86V46H72.0523C75.7857 46 78.469 46.7667 80.1023 48.3C81.769 49.8 82.669 52.2833 82.8023 55.75C82.869 57.15 82.9023 58.45 82.9023 59.65C82.9023 60.85 82.869 62.15 82.8023 63.55C82.669 67.0167 81.769 69.5167 80.1023 71.05C78.469 72.55 75.7857 73.3 72.0523 73.3H69.9023V86H62.4023ZM69.9023 66.7H72.0523C74.119 66.7 75.2023 65.7833 75.3023 63.95C75.369 62.7167 75.4023 61.2833 75.4023 59.65C75.4023 58.0167 75.369 56.5833 75.3023 55.35C75.2023 53.5167 74.119 52.6 72.0523 52.6H69.9023V66.7ZM85.8398 86V46H93.3398V86H85.8398ZM97.3633 86V46H107.013C110.747 46 113.43 46.7667 115.063 48.3C116.73 49.8 117.63 52.2833 117.763 55.75C117.797 56.6833 117.813 57.5 117.813 58.2C117.847 58.9 117.847 59.6 117.813 60.3C117.813 61 117.797 61.8167 117.763 62.75C117.697 64.9167 117.33 66.7 116.663 68.1C115.997 69.4667 114.98 70.5167 113.613 71.25L118.313 86H110.363L106.563 72.5H104.863V86H97.3633ZM104.863 65.9H107.013C109.08 65.9 110.163 64.9833 110.263 63.15C110.43 60.55 110.43 57.95 110.263 55.35C110.163 53.5167 109.08 52.6 107.013 52.6H104.863V65.9ZM121.289 86V46H138.589V52.6H128.789V62.35H138.089V68.95H128.789V79.4H138.589V86H121.289ZM141.113 86V46H151.263C155.03 46 157.747 46.8 159.413 48.4C161.08 49.9667 161.947 52.5833 162.013 56.25C162.08 58.55 162.113 60.75 162.113 62.85C162.147 64.9167 162.147 67 162.113 69.1C162.113 71.1667 162.08 73.3667 162.013 75.7C161.947 79.3667 161.08 82 159.413 83.6C157.747 85.2 155.03 86 151.263 86H141.113ZM148.613 79.4H151.263C153.363 79.4 154.447 78.4667 154.513 76.6C154.713 69.5 154.713 62.4167 154.513 55.35C154.447 53.5167 153.363 52.6 151.263 52.6H148.613V79.4Z" fill="white"/>
</svg>
