<svg width="186" height="96" viewBox="0 0 186 96" fill="none" xmlns="http://www.w3.org/2000/svg">
<path d="M11.915 45.55C7.88167 45.55 4.94833 44.7067 3.115 43.02C1.31833 41.2967 0.383334 38.455 0.31 34.495C0.236667 30.9017 0.2 27.07 0.2 23C0.2 18.8933 0.236667 15.0433 0.31 11.45C0.383334 7.52667 1.31833 4.72167 3.115 3.035C4.94833 1.31166 7.88167 0.449997 11.915 0.449997C15.9483 0.449997 18.845 1.31166 20.605 3.035C22.365 4.72167 23.3183 7.52667 23.465 11.45C23.6117 15.1167 23.685 18.985 23.685 23.055C23.685 27.0883 23.6117 30.9017 23.465 34.495C23.3183 38.455 22.365 41.2967 20.605 43.02C18.845 44.7067 15.9483 45.55 11.915 45.55ZM11.915 38.84C14.0417 38.84 15.1417 37.905 15.215 36.035C15.2883 34.165 15.3433 32.1117 15.38 29.875C15.4533 27.6383 15.49 25.3467 15.49 23C15.49 20.6167 15.4533 18.3067 15.38 16.07C15.3433 13.8333 15.2883 11.78 15.215 9.91C15.1417 8.07667 14.0417 7.16 11.915 7.16C9.75167 7.16 8.63333 8.07667 8.56 9.91C8.48667 11.78 8.43167 13.8333 8.395 16.07C8.35833 18.3067 8.34 20.6167 8.34 23C8.34 25.3467 8.35833 27.6383 8.395 29.875C8.43167 32.1117 8.48667 34.165 8.56 36.035C8.63333 37.905 9.75167 38.84 11.915 38.84ZM38.7168 45.55C34.6101 45.55 31.6584 44.7067 29.8618 43.02C28.1018 41.2967 27.1851 38.455 27.1118 34.495C26.9284 23.3117 26.9284 12.1467 27.1118 0.999999H35.3618C35.2884 4.66666 35.2334 8.51666 35.1968 12.55C35.1968 16.5467 35.2151 20.5433 35.2518 24.54C35.2884 28.5 35.3251 32.3317 35.3618 36.035C35.3618 37.905 36.4801 38.84 38.7168 38.84C40.9168 38.84 42.0168 37.905 42.0168 36.035C42.0534 32.3317 42.0901 28.5 42.1268 24.54C42.1634 20.5433 42.1634 16.5467 42.1268 12.55C42.1268 8.51666 42.0901 4.66666 42.0168 0.999999H50.2668C50.4501 12.1467 50.4501 23.3117 50.2668 34.495C50.2301 38.455 49.3134 41.2967 47.5168 43.02C45.7568 44.7067 42.8234 45.55 38.7168 45.55ZM54.7703 45V0.999999H65.3853C69.492 0.999999 72.4436 1.84333 74.2403 3.53C76.0736 5.18 77.0636 7.91166 77.2103 11.725C77.247 12.7517 77.2653 13.65 77.2653 14.42C77.302 15.19 77.302 15.96 77.2653 16.73C77.2653 17.5 77.247 18.3983 77.2103 19.425C77.137 21.8083 76.7336 23.77 76.0003 25.31C75.267 26.8133 74.1486 27.9683 72.6453 28.775L77.8153 45H69.0703L64.8903 30.15H63.0203V45H54.7703ZM63.0203 22.89H65.3853C67.6586 22.89 68.8503 21.8817 68.9603 19.865C69.1436 17.005 69.1436 14.145 68.9603 11.285C68.8503 9.26833 67.6586 8.26 65.3853 8.26H63.0203V22.89ZM0.2 95V51H8.45V87.74H19.285V95H0.2ZM33.2382 95.55C29.2049 95.55 26.2716 94.7067 24.4382 93.02C22.6416 91.2967 21.7066 88.455 21.6332 84.495C21.5599 80.9017 21.5232 77.07 21.5232 73C21.5232 68.8933 21.5599 65.0433 21.6332 61.45C21.7066 57.5267 22.6416 54.7217 24.4382 53.035C26.2716 51.3117 29.2049 50.45 33.2382 50.45C37.2716 50.45 40.1682 51.3117 41.9282 53.035C43.6882 54.7217 44.6416 57.5267 44.7882 61.45C44.9349 65.1167 45.0082 68.985 45.0082 73.055C45.0082 77.0883 44.9349 80.9017 44.7882 84.495C44.6416 88.455 43.6882 91.2967 41.9282 93.02C40.1682 94.7067 37.2716 95.55 33.2382 95.55ZM33.2382 88.84C35.3649 88.84 36.4649 87.905 36.5382 86.035C36.6116 84.165 36.6666 82.1117 36.7032 79.875C36.7766 77.6383 36.8132 75.3467 36.8132 73C36.8132 70.6167 36.7766 68.3067 36.7032 66.07C36.6666 63.8333 36.6116 61.78 36.5382 59.91C36.4649 58.0767 35.3649 57.16 33.2382 57.16C31.0749 57.16 29.9566 58.0767 29.8832 59.91C29.8099 61.78 29.7549 63.8333 29.7182 66.07C29.6816 68.3067 29.6632 70.6167 29.6632 73C29.6632 75.3467 29.6816 77.6383 29.7182 79.875C29.7549 82.1117 29.8099 84.165 29.8832 86.035C29.9566 87.905 31.0749 88.84 33.2382 88.84ZM59.985 95.55C55.8417 95.55 52.89 94.7067 51.13 93.02C49.37 91.2967 48.4533 88.455 48.38 84.495C48.3433 82.955 48.325 81.195 48.325 79.215C48.325 77.1983 48.325 75.1267 48.325 73C48.325 70.8367 48.325 68.7467 48.325 66.73C48.325 64.7133 48.3433 62.935 48.38 61.395C48.4533 58.0217 49.3883 55.3633 51.185 53.42C53.0183 51.44 55.9517 50.45 59.985 50.45C63.945 50.45 66.805 51.3117 68.565 53.035C70.3617 54.7217 71.315 57.5267 71.425 61.45C71.4617 62.3667 71.4617 63.375 71.425 64.475C71.425 65.575 71.4067 66.5833 71.37 67.5H63.12C63.1567 66.8033 63.175 65.9967 63.175 65.08C63.175 64.1633 63.175 63.2467 63.175 62.33C63.2117 61.3767 63.2117 60.57 63.175 59.91C63.1017 58.0767 62.0383 57.16 59.985 57.16C57.8217 57.16 56.7033 58.0767 56.63 59.91C56.5567 62.4767 56.5017 65.3 56.465 68.38C56.4283 71.46 56.4283 74.54 56.465 77.62C56.5017 80.6633 56.5567 83.4683 56.63 86.035C56.7033 87.905 57.8217 88.84 59.985 88.84C62.185 88.84 63.3217 87.905 63.395 86.035C63.4317 85.375 63.45 84.5867 63.45 83.67C63.45 82.7167 63.45 81.7817 63.45 80.865C63.45 79.9483 63.4317 79.16 63.395 78.5H71.645C71.6817 79.38 71.7 80.3883 71.7 81.525C71.7 82.625 71.6817 83.615 71.645 84.495C71.535 88.455 70.5633 91.2967 68.73 93.02C66.9333 94.7067 64.0183 95.55 59.985 95.55ZM72.8451 95L78.9501 51H91.9301L98.0351 95H89.5651L88.6301 85.815H82.2501L81.3151 95H72.8451ZM83.0201 78.555H87.8601L86.8701 68.82L86.2101 58.26H84.6701L84.0101 68.82L83.0201 78.555ZM103.466 95V58.26H96.3705V51H118.756V58.26H111.716V95H103.466ZM120.996 95V51H129.246V95H120.996ZM144.85 95.55C140.816 95.55 137.883 94.7067 136.05 93.02C134.253 91.2967 133.318 88.455 133.245 84.495C133.171 80.9017 133.135 77.07 133.135 73C133.135 68.8933 133.171 65.0433 133.245 61.45C133.318 57.5267 134.253 54.7217 136.05 53.035C137.883 51.3117 140.816 50.45 144.85 50.45C148.883 50.45 151.78 51.3117 153.54 53.035C155.3 54.7217 156.253 57.5267 156.4 61.45C156.546 65.1167 156.62 68.985 156.62 73.055C156.62 77.0883 156.546 80.9017 156.4 84.495C156.253 88.455 155.3 91.2967 153.54 93.02C151.78 94.7067 148.883 95.55 144.85 95.55ZM144.85 88.84C146.976 88.84 148.076 87.905 148.15 86.035C148.223 84.165 148.278 82.1117 148.315 79.875C148.388 77.6383 148.425 75.3467 148.425 73C148.425 70.6167 148.388 68.3067 148.315 66.07C148.278 63.8333 148.223 61.78 148.15 59.91C148.076 58.0767 146.976 57.16 144.85 57.16C142.686 57.16 141.568 58.0767 141.495 59.91C141.421 61.78 141.366 63.8333 141.33 66.07C141.293 68.3067 141.275 70.6167 141.275 73C141.275 75.3467 141.293 77.6383 141.33 79.875C141.366 82.1117 141.421 84.165 141.495 86.035C141.568 87.905 142.686 88.84 144.85 88.84ZM159.936 95V51H171.871L175.171 65.025L178.196 87.74H179.626L178.086 69.865L177.426 51H185.401V95H172.861L169.561 80.59L167.306 58.205H165.766L167.196 78.115L167.911 95H159.936Z" fill="white"/>
</svg>
