<svg width="255" height="94" viewBox="0 0 255 94" fill="none" xmlns="http://www.w3.org/2000/svg">
<path d="M4.464 12V1.296H5.648V12H4.464ZM0.592 2.064V0.992H9.52V2.064H0.592ZM16.7174 12V7.584C16.7174 6.92267 16.52 6.38933 16.1254 5.984C15.7414 5.568 15.2294 5.36 14.5894 5.36C14.152 5.36 13.768 5.456 13.4374 5.648C13.1067 5.84 12.8454 6.10133 12.6534 6.432C12.4614 6.76267 12.3654 7.14133 12.3654 7.568L11.8534 7.28C11.8534 6.71467 11.9867 6.208 12.2534 5.76C12.52 5.312 12.8774 4.96 13.3254 4.704C13.784 4.448 14.3067 4.32 14.8934 4.32C15.4694 4.32 15.9814 4.45333 16.4294 4.72C16.8774 4.976 17.224 5.33333 17.4694 5.792C17.7254 6.25067 17.8534 6.784 17.8534 7.392V12H16.7174ZM11.2454 12V0.672H12.3654V12H11.2454ZM23.4205 12.16C22.6632 12.16 21.9858 11.9893 21.3885 11.648C20.7912 11.3067 20.3165 10.8373 19.9645 10.24C19.6232 9.64267 19.4525 8.97067 19.4525 8.224C19.4525 7.488 19.6232 6.82667 19.9645 6.24C20.3058 5.64267 20.7698 5.17333 21.3565 4.832C21.9432 4.49067 22.5992 4.32 23.3245 4.32C24.0072 4.32 24.6098 4.47467 25.1325 4.784C25.6658 5.09333 26.0818 5.52533 26.3805 6.08C26.6898 6.624 26.8445 7.25333 26.8445 7.968C26.8445 8.05333 26.8392 8.15467 26.8285 8.272C26.8178 8.37867 26.7965 8.50667 26.7645 8.656H20.2525V7.696H26.1565L25.7565 8.048C25.7672 7.49333 25.6712 7.01867 25.4685 6.624C25.2765 6.21867 24.9938 5.90933 24.6205 5.696C24.2578 5.472 23.8152 5.36 23.2925 5.36C22.7485 5.36 22.2738 5.47733 21.8685 5.712C21.4632 5.94667 21.1432 6.27733 20.9085 6.704C20.6845 7.12 20.5725 7.616 20.5725 8.192C20.5725 8.768 20.6898 9.27467 20.9245 9.712C21.1698 10.1493 21.5058 10.4907 21.9325 10.736C22.3698 10.9813 22.8712 11.104 23.4365 11.104C23.8952 11.104 24.3165 11.024 24.7005 10.864C25.0845 10.6933 25.4098 10.4427 25.6765 10.112L26.3965 10.848C26.0445 11.264 25.6072 11.5893 25.0845 11.824C24.5725 12.048 24.0178 12.16 23.4205 12.16ZM32.2674 12V0.992H33.0994L37.8514 8.784H37.2594L42.0114 0.992H42.8434V12H41.6594V3.04L41.9314 3.104L37.9634 9.616H37.1314L33.1634 3.104L33.4354 3.04V12H32.2674ZM48.7784 12.16C48.053 12.16 47.3917 11.984 46.7944 11.632C46.2077 11.28 45.7384 10.8053 45.3864 10.208C45.045 9.61067 44.8744 8.944 44.8744 8.208C44.8744 7.48267 45.045 6.82667 45.3864 6.24C45.7384 5.65333 46.2077 5.18933 46.7944 4.848C47.3917 4.496 48.053 4.32 48.7784 4.32C49.5144 4.32 50.1757 4.49067 50.7624 4.832C51.349 5.17333 51.813 5.64267 52.1544 6.24C52.5064 6.82667 52.6824 7.48267 52.6824 8.208C52.6824 8.95467 52.5064 9.62667 52.1544 10.224C51.813 10.8107 51.349 11.28 50.7624 11.632C50.1757 11.984 49.5144 12.16 48.7784 12.16ZM48.7784 11.072C49.3117 11.072 49.781 10.9493 50.1864 10.704C50.6024 10.4587 50.9277 10.1173 51.1624 9.68C51.4077 9.24267 51.5304 8.752 51.5304 8.208C51.5304 7.664 51.4077 7.184 51.1624 6.768C50.9277 6.34133 50.6024 6.00533 50.1864 5.76C49.781 5.51467 49.3117 5.392 48.7784 5.392C48.2557 5.392 47.7864 5.51467 47.3704 5.76C46.9544 6.00533 46.629 6.34133 46.3944 6.768C46.1597 7.184 46.0424 7.664 46.0424 8.208C46.0424 8.76267 46.1597 9.25867 46.3944 9.696C46.629 10.1227 46.9544 10.4587 47.3704 10.704C47.7864 10.9493 48.2557 11.072 48.7784 11.072ZM57.6641 12.16C56.9708 12.16 56.3468 11.9893 55.7921 11.648C55.2375 11.3067 54.7948 10.8427 54.4641 10.256C54.1441 9.65867 53.9841 8.992 53.9841 8.256C53.9841 7.50933 54.1441 6.84267 54.4641 6.256C54.7948 5.65867 55.2375 5.18933 55.7921 4.848C56.3468 4.496 56.9708 4.32 57.6641 4.32C58.2295 4.32 58.7415 4.432 59.2001 4.656C59.6588 4.88 60.0375 5.2 60.3361 5.616C60.6455 6.02133 60.8268 6.50133 60.8801 7.056V9.408C60.8161 9.952 60.6348 10.432 60.3361 10.848C60.0481 11.2533 59.6748 11.5733 59.2161 11.808C58.7575 12.0427 58.2401 12.16 57.6641 12.16ZM57.8561 11.088C58.3788 11.088 58.8375 10.9707 59.2321 10.736C59.6268 10.4907 59.9361 10.1547 60.1601 9.728C60.3841 9.29067 60.4961 8.79467 60.4961 8.24C60.4961 7.67467 60.3788 7.17867 60.1441 6.752C59.9201 6.32533 59.6108 5.98933 59.2161 5.744C58.8215 5.49867 58.3628 5.376 57.8401 5.376C57.3175 5.376 56.8535 5.49867 56.4481 5.744C56.0428 5.98933 55.7228 6.33067 55.4881 6.768C55.2641 7.19467 55.1521 7.68533 55.1521 8.24C55.1521 8.79467 55.2641 9.29067 55.4881 9.728C55.7228 10.1547 56.0428 10.4907 56.4481 10.736C56.8641 10.9707 57.3335 11.088 57.8561 11.088ZM61.5521 12H60.4321V9.984L60.6561 8.128L60.4321 6.32V0.672H61.5521V12ZM67.2955 12.16C66.5382 12.16 65.8608 11.9893 65.2635 11.648C64.6662 11.3067 64.1915 10.8373 63.8395 10.24C63.4982 9.64267 63.3275 8.97067 63.3275 8.224C63.3275 7.488 63.4982 6.82667 63.8395 6.24C64.1808 5.64267 64.6448 5.17333 65.2315 4.832C65.8182 4.49067 66.4742 4.32 67.1995 4.32C67.8822 4.32 68.4848 4.47467 69.0075 4.784C69.5408 5.09333 69.9568 5.52533 70.2555 6.08C70.5648 6.624 70.7195 7.25333 70.7195 7.968C70.7195 8.05333 70.7142 8.15467 70.7035 8.272C70.6928 8.37867 70.6715 8.50667 70.6395 8.656H64.1275V7.696H70.0315L69.6315 8.048C69.6422 7.49333 69.5462 7.01867 69.3435 6.624C69.1515 6.21867 68.8688 5.90933 68.4955 5.696C68.1328 5.472 67.6902 5.36 67.1675 5.36C66.6235 5.36 66.1488 5.47733 65.7435 5.712C65.3382 5.94667 65.0182 6.27733 64.7835 6.704C64.5595 7.12 64.4475 7.616 64.4475 8.192C64.4475 8.768 64.5648 9.27467 64.7995 9.712C65.0448 10.1493 65.3808 10.4907 65.8075 10.736C66.2448 10.9813 66.7462 11.104 67.3115 11.104C67.7702 11.104 68.1915 11.024 68.5755 10.864C68.9595 10.6933 69.2848 10.4427 69.5515 10.112L70.2715 10.848C69.9195 11.264 69.4822 11.5893 68.9595 11.824C68.4475 12.048 67.8928 12.16 67.2955 12.16ZM72.4329 12V4.48H73.5529V12H72.4329ZM73.5529 7.616L73.0889 7.408C73.0889 6.45867 73.3182 5.70667 73.7769 5.152C74.2462 4.59733 74.8862 4.32 75.6969 4.32C76.0702 4.32 76.4115 4.38933 76.7209 4.528C77.0302 4.656 77.3182 4.864 77.5849 5.152L76.8489 5.936C76.6675 5.73333 76.4649 5.58933 76.2409 5.504C76.0275 5.41867 75.7822 5.376 75.5049 5.376C74.9289 5.376 74.4595 5.568 74.0969 5.952C73.7342 6.32533 73.5529 6.88 73.5529 7.616ZM84.3111 12V7.584C84.3111 6.92267 84.1138 6.38933 83.7191 5.984C83.3351 5.568 82.8231 5.36 82.1831 5.36C81.7458 5.36 81.3618 5.456 81.0311 5.648C80.7005 5.84 80.4391 6.10133 80.2471 6.432C80.0551 6.76267 79.9591 7.14133 79.9591 7.568L79.4471 7.28C79.4471 6.71467 79.5805 6.208 79.8471 5.76C80.1138 5.312 80.4711 4.96 80.9191 4.704C81.3778 4.448 81.9005 4.32 82.4871 4.32C83.0631 4.32 83.5751 4.45867 84.0231 4.736C84.4711 5.01333 84.8178 5.38667 85.0631 5.856C85.3191 6.32533 85.4471 6.83733 85.4471 7.392V12H84.3111ZM78.8391 12V4.48H79.9591V12H78.8391ZM89.9826 12L94.4946 0.992H95.3746L99.8386 12H98.5746L94.6866 2.272H95.1506L91.2306 12H89.9826ZM92.0466 9.136V8.096H97.8066V9.136H92.0466ZM101.574 12V4.48H102.694V12H101.574ZM102.694 7.616L102.23 7.408C102.23 6.45867 102.459 5.70667 102.918 5.152C103.387 4.59733 104.027 4.32 104.838 4.32C105.211 4.32 105.552 4.38933 105.862 4.528C106.171 4.656 106.459 4.864 106.726 5.152L105.99 5.936C105.808 5.73333 105.606 5.58933 105.382 5.504C105.168 5.41867 104.923 5.376 104.646 5.376C104.07 5.376 103.6 5.568 103.238 5.952C102.875 6.32533 102.694 6.88 102.694 7.616ZM109.007 12V1.312H110.127V12H109.007ZM107.103 5.488V4.48H112.015V5.488H107.103ZM122.243 12.144C121.465 12.144 120.739 12 120.067 11.712C119.395 11.424 118.809 11.024 118.307 10.512C117.806 10 117.417 9.40267 117.139 8.72C116.862 8.02667 116.723 7.28 116.723 6.48C116.723 5.68 116.862 4.93867 117.139 4.256C117.427 3.57333 117.822 2.976 118.323 2.464C118.825 1.94133 119.417 1.536 120.099 1.248C120.782 0.959999 121.523 0.815999 122.323 0.815999C123.209 0.815999 124.019 0.991999 124.755 1.344C125.502 1.696 126.115 2.192 126.595 2.832L125.779 3.648C125.395 3.104 124.905 2.688 124.307 2.4C123.71 2.10133 123.049 1.952 122.323 1.952C121.459 1.952 120.697 2.14933 120.035 2.544C119.374 2.928 118.857 3.46133 118.483 4.144C118.121 4.82667 117.939 5.61067 117.939 6.496C117.939 7.37067 118.121 8.14933 118.483 8.832C118.857 9.51467 119.363 10.0533 120.003 10.448C120.654 10.832 121.39 11.024 122.211 11.024C123.033 11.024 123.742 10.8587 124.339 10.528C124.947 10.1973 125.411 9.71733 125.731 9.088C126.062 8.45867 126.233 7.70133 126.243 6.816L126.915 7.312H122.099V6.24H127.459V6.416C127.459 7.65333 127.235 8.69867 126.787 9.552C126.35 10.4053 125.742 11.0507 124.963 11.488C124.185 11.9253 123.278 12.144 122.243 12.144ZM132.634 12.16C131.92 12.16 131.28 11.9893 130.714 11.648C130.149 11.296 129.701 10.8267 129.37 10.24C129.05 9.65333 128.89 8.992 128.89 8.256C128.89 7.50933 129.05 6.84267 129.37 6.256C129.701 5.65867 130.149 5.18933 130.714 4.848C131.28 4.496 131.914 4.32 132.618 4.32C133.194 4.32 133.706 4.43733 134.154 4.672C134.613 4.896 134.981 5.216 135.258 5.632C135.546 6.03733 135.722 6.512 135.786 7.056V9.408C135.722 9.952 135.546 10.432 135.258 10.848C134.981 11.264 134.613 11.5893 134.154 11.824C133.706 12.048 133.2 12.16 132.634 12.16ZM132.81 11.088C133.589 11.088 134.213 10.8267 134.682 10.304C135.162 9.78133 135.402 9.09333 135.402 8.24C135.402 7.67467 135.29 7.17867 135.066 6.752C134.853 6.31467 134.549 5.97867 134.154 5.744C133.77 5.49867 133.317 5.376 132.794 5.376C132.261 5.376 131.786 5.49867 131.37 5.744C130.965 5.98933 130.64 6.33067 130.394 6.768C130.16 7.19467 130.042 7.68533 130.042 8.24C130.042 8.79467 130.16 9.28533 130.394 9.712C130.64 10.1387 130.97 10.4747 131.386 10.72C131.802 10.9653 132.277 11.088 132.81 11.088ZM135.338 12V9.984L135.562 8.128L135.338 6.32V4.48H136.458V12H135.338ZM138.73 12V0.672H139.85V12H138.73ZM142.12 12V0.672H143.24V12H142.12ZM148.983 12.16C148.226 12.16 147.548 11.9893 146.951 11.648C146.354 11.3067 145.879 10.8373 145.527 10.24C145.186 9.64267 145.015 8.97067 145.015 8.224C145.015 7.488 145.186 6.82667 145.527 6.24C145.868 5.64267 146.332 5.17333 146.919 4.832C147.506 4.49067 148.162 4.32 148.887 4.32C149.57 4.32 150.172 4.47467 150.695 4.784C151.228 5.09333 151.644 5.52533 151.943 6.08C152.252 6.624 152.407 7.25333 152.407 7.968C152.407 8.05333 152.402 8.15467 152.391 8.272C152.38 8.37867 152.359 8.50667 152.327 8.656H145.815V7.696H151.719L151.319 8.048C151.33 7.49333 151.234 7.01867 151.031 6.624C150.839 6.21867 150.556 5.90933 150.183 5.696C149.82 5.472 149.378 5.36 148.855 5.36C148.311 5.36 147.836 5.47733 147.431 5.712C147.026 5.94667 146.706 6.27733 146.471 6.704C146.247 7.12 146.135 7.616 146.135 8.192C146.135 8.768 146.252 9.27467 146.487 9.712C146.732 10.1493 147.068 10.4907 147.495 10.736C147.932 10.9813 148.434 11.104 148.999 11.104C149.458 11.104 149.879 11.024 150.263 10.864C150.647 10.6933 150.972 10.4427 151.239 10.112L151.959 10.848C151.607 11.264 151.17 11.5893 150.647 11.824C150.135 12.048 149.58 12.16 148.983 12.16ZM154.12 12V4.48H155.24V12H154.12ZM155.24 7.616L154.776 7.408C154.776 6.45867 155.006 5.70667 155.464 5.152C155.934 4.59733 156.574 4.32 157.384 4.32C157.758 4.32 158.099 4.38933 158.408 4.528C158.718 4.656 159.006 4.864 159.272 5.152L158.536 5.936C158.355 5.73333 158.152 5.58933 157.928 5.504C157.715 5.41867 157.47 5.376 157.192 5.376C156.616 5.376 156.147 5.568 155.784 5.952C155.422 6.32533 155.24 6.88 155.24 7.616ZM162.804 12.032L159.508 4.48H160.74L163.396 10.784H162.932L165.732 4.48H166.98L163.444 12.032H162.804ZM160.756 15.168L162.82 10.896L163.444 12.032L161.988 15.168H160.756ZM171.886 12V4.48H173.022V12H171.886ZM172.446 2.848C172.233 2.848 172.051 2.77333 171.902 2.624C171.753 2.464 171.678 2.27733 171.678 2.064C171.678 1.84 171.753 1.65333 171.902 1.504C172.051 1.35467 172.233 1.28 172.446 1.28C172.681 1.28 172.867 1.35467 173.006 1.504C173.155 1.65333 173.23 1.84 173.23 2.064C173.23 2.27733 173.155 2.464 173.006 2.624C172.867 2.77333 172.681 2.848 172.446 2.848ZM177.596 12.16C177.191 12.16 176.802 12.1067 176.428 12C176.055 11.8827 175.714 11.7227 175.404 11.52C175.106 11.3173 174.844 11.0773 174.62 10.8L175.34 10.064C175.639 10.4267 175.975 10.6987 176.348 10.88C176.732 11.0507 177.159 11.136 177.628 11.136C178.13 11.136 178.519 11.04 178.796 10.848C179.084 10.656 179.228 10.3893 179.228 10.048C179.228 9.728 179.127 9.47733 178.924 9.296C178.722 9.11467 178.46 8.97067 178.14 8.864C177.831 8.75733 177.5 8.656 177.148 8.56C176.796 8.45333 176.46 8.32533 176.14 8.176C175.82 8.016 175.559 7.79733 175.356 7.52C175.164 7.24267 175.068 6.88 175.068 6.432C175.068 6.00533 175.17 5.63733 175.372 5.328C175.586 5.008 175.884 4.76267 176.268 4.592C176.663 4.41067 177.127 4.32 177.66 4.32C178.226 4.32 178.738 4.42133 179.196 4.624C179.655 4.82667 180.023 5.12533 180.3 5.52L179.58 6.24C179.356 5.952 179.074 5.73333 178.732 5.584C178.402 5.424 178.028 5.344 177.612 5.344C177.132 5.344 176.764 5.44 176.508 5.632C176.263 5.81333 176.14 6.05333 176.14 6.352C176.14 6.64 176.242 6.86933 176.444 7.04C176.647 7.2 176.903 7.33333 177.212 7.44C177.532 7.536 177.868 7.63733 178.22 7.744C178.572 7.84 178.908 7.97333 179.228 8.144C179.548 8.304 179.804 8.528 179.996 8.816C180.199 9.09333 180.3 9.472 180.3 9.952C180.3 10.624 180.055 11.1627 179.564 11.568C179.084 11.9627 178.428 12.16 177.596 12.16ZM186.615 12V3.2C186.615 2.67733 186.727 2.21333 186.951 1.808C187.186 1.40267 187.506 1.088 187.911 0.863999C188.327 0.629333 188.796 0.511999 189.319 0.511999C189.724 0.511999 190.082 0.586666 190.391 0.735999C190.7 0.874666 190.983 1.072 191.239 1.328L190.503 2.064C190.332 1.89333 190.151 1.77067 189.959 1.696C189.778 1.61067 189.564 1.568 189.319 1.568C188.818 1.568 188.428 1.71733 188.151 2.016C187.884 2.304 187.751 2.70933 187.751 3.232V12H186.615ZM184.727 5.488V4.48H190.263V5.488H184.727ZM191.542 12V4.48H192.662V12H191.542ZM192.662 7.616L192.198 7.408C192.198 6.45867 192.428 5.70667 192.886 5.152C193.356 4.59733 193.996 4.32 194.806 4.32C195.18 4.32 195.521 4.38933 195.83 4.528C196.14 4.656 196.428 4.864 196.694 5.152L195.958 5.936C195.777 5.73333 195.574 5.58933 195.35 5.504C195.137 5.41867 194.892 5.376 194.614 5.376C194.038 5.376 193.569 5.568 193.206 5.952C192.844 6.32533 192.662 6.88 192.662 7.616ZM201.092 12.16C200.335 12.16 199.658 11.9893 199.06 11.648C198.463 11.3067 197.988 10.8373 197.636 10.24C197.295 9.64267 197.124 8.97067 197.124 8.224C197.124 7.488 197.295 6.82667 197.636 6.24C197.978 5.64267 198.442 5.17333 199.028 4.832C199.615 4.49067 200.271 4.32 200.996 4.32C201.679 4.32 202.282 4.47467 202.804 4.784C203.338 5.09333 203.754 5.52533 204.052 6.08C204.362 6.624 204.516 7.25333 204.516 7.968C204.516 8.05333 204.511 8.15467 204.5 8.272C204.49 8.37867 204.468 8.50667 204.436 8.656H197.924V7.696H203.828L203.428 8.048C203.439 7.49333 203.343 7.01867 203.14 6.624C202.948 6.21867 202.666 5.90933 202.292 5.696C201.93 5.472 201.487 5.36 200.964 5.36C200.42 5.36 199.946 5.47733 199.54 5.712C199.135 5.94667 198.815 6.27733 198.58 6.704C198.356 7.12 198.244 7.616 198.244 8.192C198.244 8.768 198.362 9.27467 198.596 9.712C198.842 10.1493 199.178 10.4907 199.604 10.736C200.042 10.9813 200.543 11.104 201.108 11.104C201.567 11.104 201.988 11.024 202.372 10.864C202.756 10.6933 203.082 10.4427 203.348 10.112L204.068 10.848C203.716 11.264 203.279 11.5893 202.756 11.824C202.244 12.048 201.69 12.16 201.092 12.16ZM209.702 12.16C208.944 12.16 208.267 11.9893 207.67 11.648C207.072 11.3067 206.598 10.8373 206.246 10.24C205.904 9.64267 205.734 8.97067 205.734 8.224C205.734 7.488 205.904 6.82667 206.246 6.24C206.587 5.64267 207.051 5.17333 207.638 4.832C208.224 4.49067 208.88 4.32 209.606 4.32C210.288 4.32 210.891 4.47467 211.414 4.784C211.947 5.09333 212.363 5.52533 212.662 6.08C212.971 6.624 213.126 7.25333 213.126 7.968C213.126 8.05333 213.12 8.15467 213.11 8.272C213.099 8.37867 213.078 8.50667 213.046 8.656H206.534V7.696H212.438L212.038 8.048C212.048 7.49333 211.952 7.01867 211.75 6.624C211.558 6.21867 211.275 5.90933 210.902 5.696C210.539 5.472 210.096 5.36 209.574 5.36C209.03 5.36 208.555 5.47733 208.15 5.712C207.744 5.94667 207.424 6.27733 207.19 6.704C206.966 7.12 206.854 7.616 206.854 8.192C206.854 8.768 206.971 9.27467 207.206 9.712C207.451 10.1493 207.787 10.4907 208.214 10.736C208.651 10.9813 209.152 11.104 209.718 11.104C210.176 11.104 210.598 11.024 210.982 10.864C211.366 10.6933 211.691 10.4427 211.958 10.112L212.678 10.848C212.326 11.264 211.888 11.5893 211.366 11.824C210.854 12.048 210.299 12.16 209.702 12.16ZM219.445 12V1.312H220.565V12H219.445ZM217.541 5.488V4.48H222.453V5.488H217.541ZM227.138 12.16C226.412 12.16 225.751 11.984 225.154 11.632C224.567 11.28 224.098 10.8053 223.746 10.208C223.404 9.61067 223.234 8.944 223.234 8.208C223.234 7.48267 223.404 6.82667 223.746 6.24C224.098 5.65333 224.567 5.18933 225.154 4.848C225.751 4.496 226.412 4.32 227.138 4.32C227.874 4.32 228.535 4.49067 229.122 4.832C229.708 5.17333 230.172 5.64267 230.514 6.24C230.866 6.82667 231.042 7.48267 231.042 8.208C231.042 8.95467 230.866 9.62667 230.514 10.224C230.172 10.8107 229.708 11.28 229.122 11.632C228.535 11.984 227.874 12.16 227.138 12.16ZM227.138 11.072C227.671 11.072 228.14 10.9493 228.546 10.704C228.962 10.4587 229.287 10.1173 229.522 9.68C229.767 9.24267 229.89 8.752 229.89 8.208C229.89 7.664 229.767 7.184 229.522 6.768C229.287 6.34133 228.962 6.00533 228.546 5.76C228.14 5.51467 227.671 5.392 227.138 5.392C226.615 5.392 226.146 5.51467 225.73 5.76C225.314 6.00533 224.988 6.34133 224.754 6.768C224.519 7.184 224.402 7.664 224.402 8.208C224.402 8.76267 224.519 9.25867 224.754 9.696C224.988 10.1227 225.314 10.4587 225.73 10.704C226.146 10.9493 226.615 11.072 227.138 11.072ZM239.525 12.16C238.81 12.16 238.17 11.9893 237.605 11.648C237.04 11.296 236.592 10.8267 236.261 10.24C235.941 9.65333 235.781 8.992 235.781 8.256C235.781 7.50933 235.941 6.84267 236.261 6.256C236.592 5.65867 237.04 5.18933 237.605 4.848C238.17 4.496 238.805 4.32 239.509 4.32C240.085 4.32 240.597 4.43733 241.045 4.672C241.504 4.896 241.872 5.216 242.149 5.632C242.437 6.03733 242.613 6.512 242.677 7.056V9.408C242.613 9.952 242.437 10.432 242.149 10.848C241.872 11.264 241.504 11.5893 241.045 11.824C240.597 12.048 240.09 12.16 239.525 12.16ZM239.701 11.088C240.48 11.088 241.104 10.8267 241.573 10.304C242.053 9.78133 242.293 9.09333 242.293 8.24C242.293 7.67467 242.181 7.17867 241.957 6.752C241.744 6.31467 241.44 5.97867 241.045 5.744C240.661 5.49867 240.208 5.376 239.685 5.376C239.152 5.376 238.677 5.49867 238.261 5.744C237.856 5.98933 237.53 6.33067 237.285 6.768C237.05 7.19467 236.933 7.68533 236.933 8.24C236.933 8.79467 237.05 9.28533 237.285 9.712C237.53 10.1387 237.861 10.4747 238.277 10.72C238.693 10.9653 239.168 11.088 239.701 11.088ZM242.229 12V9.984L242.453 8.128L242.229 6.32V4.48H243.349V12H242.229ZM245.62 12V0.672H246.74V12H245.62ZM249.011 12V0.672H250.131V12H249.011ZM3.76 38L0.288 30.48H1.536L4.464 37.056H3.76L6.704 30.48H7.92L4.416 38H3.76ZM9.3235 38V30.48H10.4595V38H9.3235ZM9.8835 28.848C9.67017 28.848 9.48883 28.7733 9.3395 28.624C9.19017 28.464 9.1155 28.2773 9.1155 28.064C9.1155 27.84 9.19017 27.6533 9.3395 27.504C9.48883 27.3547 9.67017 27.28 9.8835 27.28C10.1182 27.28 10.3048 27.3547 10.4435 27.504C10.5928 27.6533 10.6675 27.84 10.6675 28.064C10.6675 28.2773 10.5928 28.464 10.4435 28.624C10.3048 28.7733 10.1182 28.848 9.8835 28.848ZM15.0338 38.16C14.6284 38.16 14.2391 38.1067 13.8658 38C13.4924 37.8827 13.1511 37.7227 12.8418 37.52C12.5431 37.3173 12.2818 37.0773 12.0578 36.8L12.7778 36.064C13.0764 36.4267 13.4124 36.6987 13.7858 36.88C14.1698 37.0507 14.5964 37.136 15.0658 37.136C15.5671 37.136 15.9564 37.04 16.2338 36.848C16.5218 36.656 16.6658 36.3893 16.6658 36.048C16.6658 35.728 16.5644 35.4773 16.3618 35.296C16.1591 35.1147 15.8978 34.9707 15.5778 34.864C15.2684 34.7573 14.9378 34.656 14.5858 34.56C14.2338 34.4533 13.8978 34.3253 13.5778 34.176C13.2578 34.016 12.9964 33.7973 12.7938 33.52C12.6018 33.2427 12.5058 32.88 12.5058 32.432C12.5058 32.0053 12.6071 31.6373 12.8098 31.328C13.0231 31.008 13.3218 30.7627 13.7057 30.592C14.1004 30.4107 14.5644 30.32 15.0978 30.32C15.6631 30.32 16.1751 30.4213 16.6338 30.624C17.0924 30.8267 17.4604 31.1253 17.7378 31.52L17.0178 32.24C16.7938 31.952 16.5111 31.7333 16.1698 31.584C15.8391 31.424 15.4658 31.344 15.0498 31.344C14.5698 31.344 14.2018 31.44 13.9457 31.632C13.7004 31.8133 13.5778 32.0533 13.5778 32.352C13.5778 32.64 13.6791 32.8693 13.8818 33.04C14.0844 33.2 14.3404 33.3333 14.6498 33.44C14.9698 33.536 15.3058 33.6373 15.6578 33.744C16.0098 33.84 16.3458 33.9733 16.6658 34.144C16.9858 34.304 17.2418 34.528 17.4338 34.816C17.6364 35.0933 17.7378 35.472 17.7378 35.952C17.7378 36.624 17.4924 37.1627 17.0018 37.568C16.5218 37.9627 15.8658 38.16 15.0338 38.16ZM19.511 38V30.48H20.647V38H19.511ZM20.071 28.848C19.8577 28.848 19.6763 28.7733 19.527 28.624C19.3777 28.464 19.303 28.2773 19.303 28.064C19.303 27.84 19.3777 27.6533 19.527 27.504C19.6763 27.3547 19.8577 27.28 20.071 27.28C20.3057 27.28 20.4923 27.3547 20.631 27.504C20.7803 27.6533 20.855 27.84 20.855 28.064C20.855 28.2773 20.7803 28.464 20.631 28.624C20.4923 28.7733 20.3057 28.848 20.071 28.848ZM24.0853 38V27.312H25.2053V38H24.0853ZM22.1813 31.488V30.48H27.0933V31.488H22.1813ZM31.7784 38.16C31.053 38.16 30.3917 37.984 29.7944 37.632C29.2077 37.28 28.7384 36.8053 28.3864 36.208C28.045 35.6107 27.8744 34.944 27.8744 34.208C27.8744 33.4827 28.045 32.8267 28.3864 32.24C28.7384 31.6533 29.2077 31.1893 29.7944 30.848C30.3917 30.496 31.053 30.32 31.7784 30.32C32.5144 30.32 33.1757 30.4907 33.7624 30.832C34.349 31.1733 34.813 31.6427 35.1544 32.24C35.5064 32.8267 35.6824 33.4827 35.6824 34.208C35.6824 34.9547 35.5064 35.6267 35.1544 36.224C34.813 36.8107 34.349 37.28 33.7624 37.632C33.1757 37.984 32.5144 38.16 31.7784 38.16ZM31.7784 37.072C32.3117 37.072 32.781 36.9493 33.1864 36.704C33.6024 36.4587 33.9277 36.1173 34.1624 35.68C34.4077 35.2427 34.5304 34.752 34.5304 34.208C34.5304 33.664 34.4077 33.184 34.1624 32.768C33.9277 32.3413 33.6024 32.0053 33.1864 31.76C32.781 31.5147 32.3117 31.392 31.7784 31.392C31.2557 31.392 30.7864 31.5147 30.3704 31.76C29.9544 32.0053 29.629 32.3413 29.3944 32.768C29.1597 33.184 29.0424 33.664 29.0424 34.208C29.0424 34.7627 29.1597 35.2587 29.3944 35.696C29.629 36.1227 29.9544 36.4587 30.3704 36.704C30.7864 36.9493 31.2557 37.072 31.7784 37.072ZM37.4641 38V30.48H38.5841V38H37.4641ZM38.5841 33.616L38.1201 33.408C38.1201 32.4587 38.3495 31.7067 38.8081 31.152C39.2775 30.5973 39.9175 30.32 40.7281 30.32C41.1015 30.32 41.4428 30.3893 41.7521 30.528C42.0615 30.656 42.3495 30.864 42.6161 31.152L41.8801 31.936C41.6988 31.7333 41.4961 31.5893 41.2721 31.504C41.0588 31.4187 40.8135 31.376 40.5361 31.376C39.9601 31.376 39.4908 31.568 39.1281 31.952C38.7655 32.3253 38.5841 32.88 38.5841 33.616ZM45.94 38.16C45.5347 38.16 45.1453 38.1067 44.772 38C44.3987 37.8827 44.0573 37.7227 43.748 37.52C43.4493 37.3173 43.188 37.0773 42.964 36.8L43.684 36.064C43.9827 36.4267 44.3187 36.6987 44.692 36.88C45.076 37.0507 45.5027 37.136 45.972 37.136C46.4733 37.136 46.8627 37.04 47.14 36.848C47.428 36.656 47.572 36.3893 47.572 36.048C47.572 35.728 47.4707 35.4773 47.268 35.296C47.0653 35.1147 46.804 34.9707 46.484 34.864C46.1747 34.7573 45.844 34.656 45.492 34.56C45.14 34.4533 44.804 34.3253 44.484 34.176C44.164 34.016 43.9027 33.7973 43.7 33.52C43.508 33.2427 43.412 32.88 43.412 32.432C43.412 32.0053 43.5133 31.6373 43.716 31.328C43.9293 31.008 44.228 30.7627 44.612 30.592C45.0067 30.4107 45.4707 30.32 46.004 30.32C46.5693 30.32 47.0813 30.4213 47.54 30.624C47.9987 30.8267 48.3667 31.1253 48.644 31.52L47.924 32.24C47.7 31.952 47.4173 31.7333 47.076 31.584C46.7453 31.424 46.372 31.344 45.956 31.344C45.476 31.344 45.108 31.44 44.852 31.632C44.6067 31.8133 44.484 32.0533 44.484 32.352C44.484 32.64 44.5853 32.8693 44.788 33.04C44.9907 33.2 45.2467 33.3333 45.556 33.44C45.876 33.536 46.212 33.6373 46.564 33.744C46.916 33.84 47.252 33.9733 47.572 34.144C47.892 34.304 48.148 34.528 48.34 34.816C48.5427 35.0933 48.644 35.472 48.644 35.952C48.644 36.624 48.3987 37.1627 47.908 37.568C47.428 37.9627 46.772 38.16 45.94 38.16ZM57.1188 38.16C56.4041 38.16 55.7641 37.9893 55.1988 37.648C54.6334 37.296 54.1854 36.8267 53.8548 36.24C53.5348 35.6533 53.3748 34.992 53.3748 34.256C53.3748 33.5093 53.5348 32.8427 53.8548 32.256C54.1854 31.6587 54.6334 31.1893 55.1988 30.848C55.7641 30.496 56.3988 30.32 57.1028 30.32C57.6788 30.32 58.1908 30.4373 58.6388 30.672C59.0974 30.896 59.4654 31.216 59.7428 31.632C60.0308 32.0373 60.2068 32.512 60.2708 33.056V35.408C60.2068 35.952 60.0308 36.432 59.7428 36.848C59.4654 37.264 59.0974 37.5893 58.6388 37.824C58.1908 38.048 57.6841 38.16 57.1188 38.16ZM57.2948 37.088C58.0734 37.088 58.6974 36.8267 59.1668 36.304C59.6468 35.7813 59.8868 35.0933 59.8868 34.24C59.8868 33.6747 59.7748 33.1787 59.5508 32.752C59.3374 32.3147 59.0334 31.9787 58.6388 31.744C58.2548 31.4987 57.8014 31.376 57.2788 31.376C56.7454 31.376 56.2708 31.4987 55.8548 31.744C55.4494 31.9893 55.1241 32.3307 54.8788 32.768C54.6441 33.1947 54.5268 33.6853 54.5268 34.24C54.5268 34.7947 54.6441 35.2853 54.8788 35.712C55.1241 36.1387 55.4548 36.4747 55.8708 36.72C56.2868 36.9653 56.7614 37.088 57.2948 37.088ZM59.8228 38V35.984L60.0468 34.128L59.8228 32.32V30.48H60.9427V38H59.8228ZM68.6861 38V33.584C68.6861 32.9227 68.4888 32.3893 68.0941 31.984C67.7101 31.568 67.1981 31.36 66.5581 31.36C66.1208 31.36 65.7368 31.456 65.4061 31.648C65.0755 31.84 64.8141 32.1013 64.6221 32.432C64.4301 32.7627 64.3341 33.1413 64.3341 33.568L63.8221 33.28C63.8221 32.7147 63.9555 32.208 64.2221 31.76C64.4888 31.312 64.8461 30.96 65.2941 30.704C65.7528 30.448 66.2755 30.32 66.8621 30.32C67.4381 30.32 67.9501 30.4587 68.3981 30.736C68.8461 31.0133 69.1928 31.3867 69.4381 31.856C69.6941 32.3253 69.8221 32.8373 69.8221 33.392V38H68.6861ZM63.2141 38V30.48H64.3341V38H63.2141ZM75.1173 38.16C74.4239 38.16 73.7999 37.9893 73.2453 37.648C72.6906 37.3067 72.2479 36.8427 71.9173 36.256C71.5973 35.6587 71.4373 34.992 71.4373 34.256C71.4373 33.5093 71.5973 32.8427 71.9173 32.256C72.2479 31.6587 72.6906 31.1893 73.2453 30.848C73.7999 30.496 74.4239 30.32 75.1173 30.32C75.6826 30.32 76.1946 30.432 76.6533 30.656C77.1119 30.88 77.4906 31.2 77.7893 31.616C78.0986 32.0213 78.2799 32.5013 78.3333 33.056V35.408C78.2693 35.952 78.0879 36.432 77.7893 36.848C77.5013 37.2533 77.1279 37.5733 76.6693 37.808C76.2106 38.0427 75.6933 38.16 75.1173 38.16ZM75.3093 37.088C75.8319 37.088 76.2906 36.9707 76.6853 36.736C77.0799 36.4907 77.3893 36.1547 77.6133 35.728C77.8373 35.2907 77.9493 34.7947 77.9493 34.24C77.9493 33.6747 77.8319 33.1787 77.5973 32.752C77.3733 32.3253 77.0639 31.9893 76.6693 31.744C76.2746 31.4987 75.8159 31.376 75.2933 31.376C74.7706 31.376 74.3066 31.4987 73.9013 31.744C73.4959 31.9893 73.1759 32.3307 72.9413 32.768C72.7173 33.1947 72.6053 33.6853 72.6053 34.24C72.6053 34.7947 72.7173 35.2907 72.9413 35.728C73.1759 36.1547 73.4959 36.4907 73.9013 36.736C74.3173 36.9707 74.7866 37.088 75.3093 37.088ZM79.0052 38H77.8853V35.984L78.1093 34.128L77.8853 32.32V26.672H79.0052V38ZM88.1221 38.16C87.3968 38.16 86.7355 37.984 86.1381 37.632C85.5515 37.28 85.0821 36.8053 84.7301 36.208C84.3888 35.6107 84.2181 34.944 84.2181 34.208C84.2181 33.4827 84.3888 32.8267 84.7301 32.24C85.0821 31.6533 85.5515 31.1893 86.1381 30.848C86.7355 30.496 87.3968 30.32 88.1221 30.32C88.8581 30.32 89.5195 30.4907 90.1061 30.832C90.6928 31.1733 91.1568 31.6427 91.4981 32.24C91.8501 32.8267 92.0261 33.4827 92.0261 34.208C92.0261 34.9547 91.8501 35.6267 91.4981 36.224C91.1568 36.8107 90.6928 37.28 90.1061 37.632C89.5195 37.984 88.8581 38.16 88.1221 38.16ZM88.1221 37.072C88.6555 37.072 89.1248 36.9493 89.5301 36.704C89.9461 36.4587 90.2715 36.1173 90.5061 35.68C90.7515 35.2427 90.8741 34.752 90.8741 34.208C90.8741 33.664 90.7515 33.184 90.5061 32.768C90.2715 32.3413 89.9461 32.0053 89.5301 31.76C89.1248 31.5147 88.6555 31.392 88.1221 31.392C87.5995 31.392 87.1301 31.5147 86.7141 31.76C86.2981 32.0053 85.9728 32.3413 85.7381 32.768C85.5035 33.184 85.3861 33.664 85.3861 34.208C85.3861 34.7627 85.5035 35.2587 85.7381 35.696C85.9728 36.1227 86.2981 36.4587 86.7141 36.704C87.1301 36.9493 87.5995 37.072 88.1221 37.072ZM97.6959 38.16C97.1199 38.16 96.6025 38.0427 96.1439 37.808C95.6852 37.5733 95.3065 37.2533 95.0079 36.848C94.7199 36.432 94.5439 35.952 94.4799 35.408V33.056C94.5439 32.5013 94.7252 32.0213 95.0239 31.616C95.3225 31.2 95.7012 30.88 96.1599 30.656C96.6292 30.432 97.1412 30.32 97.6959 30.32C98.3892 30.32 99.0132 30.496 99.5679 30.848C100.123 31.1893 100.56 31.6587 100.88 32.256C101.211 32.8427 101.376 33.5093 101.376 34.256C101.376 34.992 101.216 35.6533 100.896 36.24C100.576 36.8267 100.133 37.296 99.5679 37.648C99.0132 37.9893 98.3892 38.16 97.6959 38.16ZM97.5039 37.088C98.0372 37.088 98.5065 36.9707 98.9119 36.736C99.3172 36.4907 99.6319 36.1547 99.8559 35.728C100.091 35.2907 100.208 34.7947 100.208 34.24C100.208 33.6747 100.091 33.1787 99.8559 32.752C99.6319 32.3253 99.3172 31.9893 98.9119 31.744C98.5065 31.4987 98.0425 31.376 97.5199 31.376C96.9972 31.376 96.5332 31.4987 96.1279 31.744C95.7332 31.9893 95.4239 32.3253 95.1999 32.752C94.9759 33.1787 94.8639 33.6747 94.8639 34.24C94.8639 34.7947 94.9759 35.2907 95.1999 35.728C95.4239 36.1547 95.7332 36.4907 96.1279 36.736C96.5225 36.9707 96.9812 37.088 97.5039 37.088ZM93.8079 41.168V30.48H94.9279V32.4L94.7039 34.224L94.9279 36.064V41.168H93.8079ZM106.639 38.16C105.882 38.16 105.205 37.9893 104.607 37.648C104.01 37.3067 103.535 36.8373 103.183 36.24C102.842 35.6427 102.671 34.9707 102.671 34.224C102.671 33.488 102.842 32.8267 103.183 32.24C103.525 31.6427 103.989 31.1733 104.575 30.832C105.162 30.4907 105.818 30.32 106.543 30.32C107.226 30.32 107.829 30.4747 108.351 30.784C108.885 31.0933 109.301 31.5253 109.599 32.08C109.909 32.624 110.063 33.2533 110.063 33.968C110.063 34.0533 110.058 34.1547 110.047 34.272C110.037 34.3787 110.015 34.5067 109.983 34.656H103.471V33.696H109.375L108.975 34.048C108.986 33.4933 108.89 33.0187 108.687 32.624C108.495 32.2187 108.213 31.9093 107.839 31.696C107.477 31.472 107.034 31.36 106.511 31.36C105.967 31.36 105.493 31.4773 105.087 31.712C104.682 31.9467 104.362 32.2773 104.127 32.704C103.903 33.12 103.791 33.616 103.791 34.192C103.791 34.768 103.909 35.2747 104.143 35.712C104.389 36.1493 104.725 36.4907 105.151 36.736C105.589 36.9813 106.09 37.104 106.655 37.104C107.114 37.104 107.535 37.024 107.919 36.864C108.303 36.6933 108.629 36.4427 108.895 36.112L109.615 36.848C109.263 37.264 108.826 37.5893 108.303 37.824C107.791 38.048 107.237 38.16 106.639 38.16ZM117.249 38V33.584C117.249 32.9227 117.051 32.3893 116.657 31.984C116.273 31.568 115.761 31.36 115.121 31.36C114.683 31.36 114.299 31.456 113.969 31.648C113.638 31.84 113.377 32.1013 113.185 32.432C112.993 32.7627 112.897 33.1413 112.897 33.568L112.385 33.28C112.385 32.7147 112.518 32.208 112.785 31.76C113.051 31.312 113.409 30.96 113.857 30.704C114.315 30.448 114.838 30.32 115.425 30.32C116.001 30.32 116.513 30.4587 116.961 30.736C117.409 31.0133 117.755 31.3867 118.001 31.856C118.257 32.3253 118.385 32.8373 118.385 33.392V38H117.249ZM111.777 38V30.48H112.897V38H111.777ZM126.221 38.16C125.816 38.16 125.427 38.1067 125.053 38C124.68 37.8827 124.339 37.7227 124.029 37.52C123.731 37.3173 123.469 37.0773 123.245 36.8L123.965 36.064C124.264 36.4267 124.6 36.6987 124.973 36.88C125.357 37.0507 125.784 37.136 126.253 37.136C126.755 37.136 127.144 37.04 127.421 36.848C127.709 36.656 127.853 36.3893 127.853 36.048C127.853 35.728 127.752 35.4773 127.549 35.296C127.347 35.1147 127.085 34.9707 126.765 34.864C126.456 34.7573 126.125 34.656 125.773 34.56C125.421 34.4533 125.085 34.3253 124.765 34.176C124.445 34.016 124.184 33.7973 123.981 33.52C123.789 33.2427 123.693 32.88 123.693 32.432C123.693 32.0053 123.795 31.6373 123.997 31.328C124.211 31.008 124.509 30.7627 124.893 30.592C125.288 30.4107 125.752 30.32 126.285 30.32C126.851 30.32 127.363 30.4213 127.821 30.624C128.28 30.8267 128.648 31.1253 128.925 31.52L128.205 32.24C127.981 31.952 127.699 31.7333 127.357 31.584C127.027 31.424 126.653 31.344 126.237 31.344C125.757 31.344 125.389 31.44 125.133 31.632C124.888 31.8133 124.765 32.0533 124.765 32.352C124.765 32.64 124.867 32.8693 125.069 33.04C125.272 33.2 125.528 33.3333 125.837 33.44C126.157 33.536 126.493 33.6373 126.845 33.744C127.197 33.84 127.533 33.9733 127.853 34.144C128.173 34.304 128.429 34.528 128.621 34.816C128.824 35.0933 128.925 35.472 128.925 35.952C128.925 36.624 128.68 37.1627 128.189 37.568C127.709 37.9627 127.053 38.16 126.221 38.16ZM134.171 38.16C133.413 38.16 132.736 37.9893 132.139 37.648C131.541 37.3067 131.067 36.8373 130.715 36.24C130.373 35.6427 130.203 34.9707 130.203 34.224C130.203 33.488 130.373 32.8267 130.715 32.24C131.056 31.6427 131.52 31.1733 132.107 30.832C132.693 30.4907 133.349 30.32 134.075 30.32C134.757 30.32 135.36 30.4747 135.883 30.784C136.416 31.0933 136.832 31.5253 137.131 32.08C137.44 32.624 137.595 33.2533 137.595 33.968C137.595 34.0533 137.589 34.1547 137.579 34.272C137.568 34.3787 137.547 34.5067 137.515 34.656H131.003V33.696H136.907L136.507 34.048C136.517 33.4933 136.421 33.0187 136.219 32.624C136.027 32.2187 135.744 31.9093 135.371 31.696C135.008 31.472 134.565 31.36 134.043 31.36C133.499 31.36 133.024 31.4773 132.619 31.712C132.213 31.9467 131.893 32.2773 131.659 32.704C131.435 33.12 131.323 33.616 131.323 34.192C131.323 34.768 131.44 35.2747 131.674 35.712C131.92 36.1493 132.256 36.4907 132.683 36.736C133.12 36.9813 133.621 37.104 134.187 37.104C134.645 37.104 135.067 37.024 135.451 36.864C135.835 36.6933 136.16 36.4427 136.427 36.112L137.147 36.848C136.795 37.264 136.357 37.5893 135.835 37.824C135.323 38.048 134.768 38.16 134.171 38.16ZM141.807 38L138.335 30.48H139.583L142.511 37.056H141.807L144.751 30.48H145.967L142.463 38H141.807ZM150.53 38.16C149.773 38.16 149.095 37.9893 148.498 37.648C147.901 37.3067 147.426 36.8373 147.074 36.24C146.733 35.6427 146.562 34.9707 146.562 34.224C146.562 33.488 146.733 32.8267 147.074 32.24C147.415 31.6427 147.879 31.1733 148.466 30.832C149.053 30.4907 149.709 30.32 150.434 30.32C151.117 30.32 151.719 30.4747 152.242 30.784C152.775 31.0933 153.191 31.5253 153.49 32.08C153.799 32.624 153.954 33.2533 153.954 33.968C153.954 34.0533 153.949 34.1547 153.938 34.272C153.927 34.3787 153.906 34.5067 153.874 34.656H147.362V33.696H153.266L152.866 34.048C152.877 33.4933 152.781 33.0187 152.578 32.624C152.386 32.2187 152.103 31.9093 151.73 31.696C151.367 31.472 150.925 31.36 150.402 31.36C149.858 31.36 149.383 31.4773 148.978 31.712C148.573 31.9467 148.253 32.2773 148.018 32.704C147.794 33.12 147.682 33.616 147.682 34.192C147.682 34.768 147.799 35.2747 148.034 35.712C148.279 36.1493 148.615 36.4907 149.042 36.736C149.479 36.9813 149.981 37.104 150.546 37.104C151.005 37.104 151.426 37.024 151.81 36.864C152.194 36.6933 152.519 36.4427 152.786 36.112L153.506 36.848C153.154 37.264 152.717 37.5893 152.194 37.824C151.682 38.048 151.127 38.16 150.53 38.16ZM161.139 38V33.584C161.139 32.9227 160.942 32.3893 160.547 31.984C160.163 31.568 159.651 31.36 159.011 31.36C158.574 31.36 158.19 31.456 157.859 31.648C157.529 31.84 157.267 32.1013 157.075 32.432C156.883 32.7627 156.787 33.1413 156.787 33.568L156.275 33.28C156.275 32.7147 156.409 32.208 156.675 31.76C156.942 31.312 157.299 30.96 157.747 30.704C158.206 30.448 158.729 30.32 159.315 30.32C159.891 30.32 160.403 30.4587 160.851 30.736C161.299 31.0133 161.646 31.3867 161.891 31.856C162.147 32.3253 162.275 32.8373 162.275 33.392V38H161.139ZM155.667 38V30.48H156.787V38H155.667ZM171.008 38.16C170.315 38.16 169.691 37.9893 169.136 37.648C168.581 37.3067 168.139 36.8427 167.808 36.256C167.488 35.6587 167.328 34.992 167.328 34.256C167.328 33.5093 167.488 32.8427 167.808 32.256C168.139 31.6587 168.581 31.1893 169.136 30.848C169.691 30.496 170.315 30.32 171.008 30.32C171.573 30.32 172.085 30.432 172.544 30.656C173.003 30.88 173.381 31.2 173.68 31.616C173.989 32.0213 174.171 32.5013 174.224 33.056V35.408C174.16 35.952 173.979 36.432 173.68 36.848C173.392 37.2533 173.019 37.5733 172.56 37.808C172.101 38.0427 171.584 38.16 171.008 38.16ZM171.2 37.088C171.723 37.088 172.181 36.9707 172.576 36.736C172.971 36.4907 173.28 36.1547 173.504 35.728C173.728 35.2907 173.84 34.7947 173.84 34.24C173.84 33.6747 173.723 33.1787 173.488 32.752C173.264 32.3253 172.955 31.9893 172.56 31.744C172.165 31.4987 171.707 31.376 171.184 31.376C170.661 31.376 170.197 31.4987 169.792 31.744C169.387 31.9893 169.067 32.3307 168.832 32.768C168.608 33.1947 168.496 33.6853 168.496 34.24C168.496 34.7947 168.608 35.2907 168.832 35.728C169.067 36.1547 169.387 36.4907 169.792 36.736C170.208 36.9707 170.677 37.088 171.2 37.088ZM174.896 38H173.776V35.984L174 34.128L173.776 32.32V26.672H174.896V38ZM180.431 38.16C179.717 38.16 179.077 37.9893 178.511 37.648C177.946 37.296 177.498 36.8267 177.167 36.24C176.847 35.6533 176.687 34.992 176.687 34.256C176.687 33.5093 176.847 32.8427 177.167 32.256C177.498 31.6587 177.946 31.1893 178.511 30.848C179.077 30.496 179.711 30.32 180.415 30.32C180.991 30.32 181.503 30.4373 181.951 30.672C182.41 30.896 182.778 31.216 183.055 31.632C183.343 32.0373 183.519 32.512 183.583 33.056V35.408C183.519 35.952 183.343 36.432 183.055 36.848C182.778 37.264 182.41 37.5893 181.951 37.824C181.503 38.048 180.997 38.16 180.431 38.16ZM180.607 37.088C181.386 37.088 182.01 36.8267 182.479 36.304C182.959 35.7813 183.199 35.0933 183.199 34.24C183.199 33.6747 183.087 33.1787 182.863 32.752C182.65 32.3147 182.346 31.9787 181.951 31.744C181.567 31.4987 181.114 31.376 180.591 31.376C180.058 31.376 179.583 31.4987 179.167 31.744C178.762 31.9893 178.437 32.3307 178.191 32.768C177.957 33.1947 177.839 33.6853 177.839 34.24C177.839 34.7947 177.957 35.2853 178.191 35.712C178.437 36.1387 178.767 36.4747 179.183 36.72C179.599 36.9653 180.074 37.088 180.607 37.088ZM183.135 38V35.984L183.359 34.128L183.135 32.32V30.48H184.255V38H183.135ZM189.039 38.032L185.743 30.48H186.975L189.631 36.784H189.167L191.967 30.48H193.215L189.679 38.032H189.039ZM186.991 41.168L189.055 36.896L189.679 38.032L188.223 41.168H186.991ZM196.706 38.16C196.3 38.16 195.911 38.1067 195.538 38C195.164 37.8827 194.823 37.7227 194.514 37.52C194.215 37.3173 193.954 37.0773 193.73 36.8L194.45 36.064C194.748 36.4267 195.084 36.6987 195.458 36.88C195.842 37.0507 196.268 37.136 196.738 37.136C197.239 37.136 197.628 37.04 197.906 36.848C198.194 36.656 198.338 36.3893 198.338 36.048C198.338 35.728 198.236 35.4773 198.034 35.296C197.831 35.1147 197.57 34.9707 197.25 34.864C196.94 34.7573 196.61 34.656 196.258 34.56C195.906 34.4533 195.57 34.3253 195.25 34.176C194.93 34.016 194.668 33.7973 194.466 33.52C194.274 33.2427 194.178 32.88 194.178 32.432C194.178 32.0053 194.279 31.6373 194.482 31.328C194.695 31.008 194.994 30.7627 195.378 30.592C195.772 30.4107 196.236 30.32 196.77 30.32C197.335 30.32 197.847 30.4213 198.306 30.624C198.764 30.8267 199.132 31.1253 199.41 31.52L198.69 32.24C198.466 31.952 198.183 31.7333 197.842 31.584C197.511 31.424 197.138 31.344 196.722 31.344C196.242 31.344 195.874 31.44 195.618 31.632C195.372 31.8133 195.25 32.0533 195.25 32.352C195.25 32.64 195.351 32.8693 195.554 33.04C195.756 33.2 196.012 33.3333 196.322 33.44C196.642 33.536 196.978 33.6373 197.33 33.744C197.682 33.84 198.018 33.9733 198.338 34.144C198.658 34.304 198.914 34.528 199.106 34.816C199.308 35.0933 199.41 35.472 199.41 35.952C199.41 36.624 199.164 37.1627 198.674 37.568C198.194 37.9627 197.538 38.16 196.706 38.16ZM207.884 38.16C207.17 38.16 206.53 37.9893 205.964 37.648C205.399 37.296 204.951 36.8267 204.62 36.24C204.3 35.6533 204.14 34.992 204.14 34.256C204.14 33.5093 204.3 32.8427 204.62 32.256C204.951 31.6587 205.399 31.1893 205.964 30.848C206.53 30.496 207.164 30.32 207.868 30.32C208.444 30.32 208.956 30.4373 209.404 30.672C209.863 30.896 210.231 31.216 210.508 31.632C210.796 32.0373 210.972 32.512 211.036 33.056V35.408C210.972 35.952 210.796 36.432 210.508 36.848C210.231 37.264 209.863 37.5893 209.404 37.824C208.956 38.048 208.45 38.16 207.884 38.16ZM208.06 37.088C208.839 37.088 209.463 36.8267 209.932 36.304C210.412 35.7813 210.652 35.0933 210.652 34.24C210.652 33.6747 210.54 33.1787 210.316 32.752C210.103 32.3147 209.799 31.9787 209.404 31.744C209.02 31.4987 208.567 31.376 208.044 31.376C207.511 31.376 207.036 31.4987 206.62 31.744C206.215 31.9893 205.89 32.3307 205.644 32.768C205.41 33.1947 205.292 33.6853 205.292 34.24C205.292 34.7947 205.41 35.2853 205.644 35.712C205.89 36.1387 206.22 36.4747 206.636 36.72C207.052 36.9653 207.527 37.088 208.06 37.088ZM210.588 38V35.984L210.812 34.128L210.588 32.32V30.48H211.708V38H210.588ZM219.513 38L216.617 30.48H217.785L220.073 36.72L219.657 36.736L221.929 30.48H222.585L224.857 36.736L224.441 36.72L226.713 30.48H227.897L224.985 38H224.329L222.009 31.84H222.489L220.185 38H219.513ZM232.577 38.16C231.819 38.16 231.142 37.9893 230.545 37.648C229.947 37.3067 229.473 36.8373 229.121 36.24C228.779 35.6427 228.609 34.9707 228.609 34.224C228.609 33.488 228.779 32.8267 229.121 32.24C229.462 31.6427 229.926 31.1733 230.513 30.832C231.099 30.4907 231.755 30.32 232.481 30.32C233.163 30.32 233.766 30.4747 234.289 30.784C234.822 31.0933 235.238 31.5253 235.537 32.08C235.846 32.624 236.001 33.2533 236.001 33.968C236.001 34.0533 235.995 34.1547 235.985 34.272C235.974 34.3787 235.953 34.5067 235.921 34.656H229.409V33.696H235.313L234.913 34.048C234.923 33.4933 234.827 33.0187 234.625 32.624C234.433 32.2187 234.15 31.9093 233.777 31.696C233.414 31.472 232.971 31.36 232.449 31.36C231.905 31.36 231.43 31.4773 231.025 31.712C230.619 31.9467 230.299 32.2773 230.065 32.704C229.841 33.12 229.729 33.616 229.729 34.192C229.729 34.768 229.846 35.2747 230.081 35.712C230.326 36.1493 230.662 36.4907 231.089 36.736C231.526 36.9813 232.027 37.104 232.593 37.104C233.051 37.104 233.473 37.024 233.857 36.864C234.241 36.6933 234.566 36.4427 234.833 36.112L235.553 36.848C235.201 37.264 234.763 37.5893 234.241 37.824C233.729 38.048 233.174 38.16 232.577 38.16ZM241.186 38.16C240.429 38.16 239.751 37.9893 239.154 37.648C238.557 37.3067 238.082 36.8373 237.73 36.24C237.389 35.6427 237.218 34.9707 237.218 34.224C237.218 33.488 237.389 32.8267 237.73 32.24C238.071 31.6427 238.535 31.1733 239.122 30.832C239.709 30.4907 240.365 30.32 241.09 30.32C241.773 30.32 242.375 30.4747 242.898 30.784C243.431 31.0933 243.847 31.5253 244.146 32.08C244.455 32.624 244.61 33.2533 244.61 33.968C244.61 34.0533 244.605 34.1547 244.594 34.272C244.583 34.3787 244.562 34.5067 244.53 34.656H238.018V33.696H243.922L243.522 34.048C243.533 33.4933 243.437 33.0187 243.234 32.624C243.042 32.2187 242.759 31.9093 242.386 31.696C242.023 31.472 241.581 31.36 241.058 31.36C240.514 31.36 240.039 31.4773 239.634 31.712C239.229 31.9467 238.909 32.2773 238.674 32.704C238.45 33.12 238.338 33.616 238.338 34.192C238.338 34.768 238.455 35.2747 238.69 35.712C238.935 36.1493 239.271 36.4907 239.698 36.736C240.135 36.9813 240.637 37.104 241.202 37.104C241.661 37.104 242.082 37.024 242.466 36.864C242.85 36.6933 243.175 36.4427 243.442 36.112L244.162 36.848C243.81 37.264 243.373 37.5893 242.85 37.824C242.338 38.048 241.783 38.16 241.186 38.16ZM251.172 38L247.332 34.144L251.108 30.48H252.5L248.388 34.432L248.42 33.792L252.66 38H251.172ZM246.324 38V26.672H247.444V38H246.324ZM2.24 64V55.2C2.24 54.6773 2.352 54.2133 2.576 53.808C2.81067 53.4027 3.13067 53.088 3.536 52.864C3.952 52.6293 4.42133 52.512 4.944 52.512C5.34933 52.512 5.70667 52.5867 6.016 52.736C6.32533 52.8747 6.608 53.072 6.864 53.328L6.128 54.064C5.95733 53.8933 5.776 53.7707 5.584 53.696C5.40267 53.6107 5.18933 53.568 4.944 53.568C4.44267 53.568 4.05333 53.7173 3.776 54.016C3.50933 54.304 3.376 54.7093 3.376 55.232V64H2.24ZM0.352 57.488V56.48H5.888V57.488H0.352ZM7.16725 64V56.48H8.28725V64H7.16725ZM8.28725 59.616L7.82325 59.408C7.82325 58.4587 8.05258 57.7067 8.51125 57.152C8.98058 56.5973 9.62058 56.32 10.4313 56.32C10.8046 56.32 11.1459 56.3893 11.4553 56.528C11.7646 56.656 12.0526 56.864 12.3193 57.152L11.5833 57.936C11.4019 57.7333 11.1993 57.5893 10.9753 57.504C10.7619 57.4187 10.5166 57.376 10.2393 57.376C9.66325 57.376 9.19392 57.568 8.83125 57.952C8.46858 58.3253 8.28725 58.88 8.28725 59.616ZM16.6534 64.16C15.928 64.16 15.2667 63.984 14.6694 63.632C14.0827 63.28 13.6134 62.8053 13.2614 62.208C12.92 61.6107 12.7494 60.944 12.7494 60.208C12.7494 59.4827 12.92 58.8267 13.2614 58.24C13.6134 57.6533 14.0827 57.1893 14.6694 56.848C15.2667 56.496 15.928 56.32 16.6534 56.32C17.3894 56.32 18.0507 56.4907 18.6374 56.832C19.224 57.1733 19.688 57.6427 20.0294 58.24C20.3814 58.8267 20.5574 59.4827 20.5574 60.208C20.5574 60.9547 20.3814 61.6267 20.0294 62.224C19.688 62.8107 19.224 63.28 18.6374 63.632C18.0507 63.984 17.3894 64.16 16.6534 64.16ZM16.6534 63.072C17.1867 63.072 17.656 62.9493 18.0614 62.704C18.4774 62.4587 18.8027 62.1173 19.0374 61.68C19.2827 61.2427 19.4054 60.752 19.4054 60.208C19.4054 59.664 19.2827 59.184 19.0374 58.768C18.8027 58.3413 18.4774 58.0053 18.0614 57.76C17.656 57.5147 17.1867 57.392 16.6534 57.392C16.1307 57.392 15.6614 57.5147 15.2454 57.76C14.8294 58.0053 14.504 58.3413 14.2694 58.768C14.0347 59.184 13.9174 59.664 13.9174 60.208C13.9174 60.7627 14.0347 61.2587 14.2694 61.696C14.504 62.1227 14.8294 62.4587 15.2454 62.704C15.6614 62.9493 16.1307 63.072 16.6534 63.072ZM22.3391 64V56.48H23.4591V64H22.3391ZM27.5071 64V59.392C27.5071 58.7733 27.3205 58.2827 26.9471 57.92C26.5738 57.5467 26.1045 57.36 25.5391 57.36C25.1551 57.36 24.8031 57.4453 24.4831 57.616C24.1738 57.776 23.9231 58.0053 23.7311 58.304C23.5498 58.6027 23.4591 58.96 23.4591 59.376L22.9471 59.168C22.9471 58.592 23.0751 58.0907 23.3311 57.664C23.5871 57.2373 23.9285 56.9067 24.3551 56.672C24.7925 56.4373 25.2831 56.32 25.8271 56.32C26.3605 56.32 26.8351 56.4373 27.2511 56.672C27.6778 56.9067 28.0138 57.2373 28.2591 57.664C28.5151 58.0907 28.6431 58.5973 28.6431 59.184V64H27.5071ZM32.6911 64V59.392C32.6911 58.7733 32.5045 58.2827 32.1311 57.92C31.7578 57.5467 31.2831 57.36 30.7071 57.36C30.3338 57.36 29.9871 57.4453 29.6671 57.616C29.3578 57.776 29.1071 58.0053 28.9151 58.304C28.7338 58.6027 28.6431 58.96 28.6431 59.376L27.9711 59.168C28.0031 58.592 28.1525 58.0907 28.4191 57.664C28.6965 57.2373 29.0538 56.9067 29.4911 56.672C29.9391 56.4373 30.4298 56.32 30.9631 56.32C31.4965 56.32 31.9765 56.4373 32.4031 56.672C32.8405 56.9067 33.1818 57.2373 33.4271 57.664C33.6831 58.0907 33.8111 58.5973 33.8111 59.184V64H32.6911ZM42.6348 64.16C41.9201 64.16 41.2854 64.0213 40.7308 63.744C40.1868 63.4667 39.7601 63.088 39.4508 62.608C39.1414 62.1173 38.9868 61.5627 38.9868 60.944C38.9868 60.4533 39.0828 60.0053 39.2747 59.6C39.4774 59.184 39.7601 58.832 40.1228 58.544C40.4854 58.2453 40.9068 58.0427 41.3868 57.936L41.5148 58.272C41.0881 58.1547 40.7254 57.968 40.4268 57.712C40.1281 57.456 39.8988 57.152 39.7388 56.8C39.5788 56.4373 39.4988 56.0587 39.4988 55.664C39.4988 55.0987 39.6321 54.608 39.8988 54.192C40.1761 53.7653 40.5494 53.4293 41.0188 53.184C41.4988 52.9387 42.0374 52.816 42.6348 52.816C43.2428 52.816 43.7814 52.9387 44.2508 53.184C44.7308 53.4293 45.1041 53.7653 45.3708 54.192C45.6374 54.608 45.7708 55.0987 45.7708 55.664C45.7708 56.0587 45.6908 56.4373 45.5308 56.8C45.3814 57.152 45.1574 57.456 44.8588 57.712C44.5601 57.968 44.1921 58.1547 43.7548 58.272L43.8828 57.936C44.3734 58.0427 44.7948 58.2453 45.1468 58.544C45.5094 58.832 45.7868 59.184 45.9788 59.6C46.1814 60.0053 46.2828 60.4533 46.2828 60.944C46.2828 61.5627 46.1281 62.1173 45.8188 62.608C45.5201 63.088 45.0934 63.4667 44.5388 63.744C43.9948 64.0213 43.3601 64.16 42.6348 64.16ZM42.6348 63.104C43.1254 63.104 43.5574 63.008 43.9308 62.816C44.3148 62.624 44.6134 62.3573 44.8268 62.016C45.0401 61.664 45.1468 61.2693 45.1468 60.832C45.1468 60.384 45.0401 59.9947 44.8268 59.664C44.6134 59.3227 44.3148 59.056 43.9308 58.864C43.5574 58.6613 43.1254 58.56 42.6348 58.56C42.1548 58.56 41.7228 58.6613 41.3388 58.864C40.9654 59.056 40.6668 59.3227 40.4428 59.664C40.2294 59.9947 40.1228 60.384 40.1228 60.832C40.1228 61.2693 40.2294 61.664 40.4428 62.016C40.6668 62.3573 40.9654 62.624 41.3388 62.816C41.7121 63.008 42.1441 63.104 42.6348 63.104ZM42.6348 57.648C43.2321 57.648 43.7174 57.472 44.0908 57.12C44.4748 56.7573 44.6668 56.2933 44.6668 55.728C44.6668 55.1627 44.4748 54.704 44.0908 54.352C43.7174 54 43.2321 53.824 42.6348 53.824C42.0481 53.824 41.5628 54 41.1788 54.352C40.7948 54.704 40.6028 55.1627 40.6028 55.728C40.6028 56.2933 40.7948 56.7573 41.1788 57.12C41.5628 57.472 42.0481 57.648 42.6348 57.648ZM51.4469 64.16C50.7322 64.16 50.0922 63.9893 49.5269 63.648C48.9615 63.296 48.5135 62.8267 48.1829 62.24C47.8629 61.6533 47.7029 60.992 47.7029 60.256C47.7029 59.5093 47.8629 58.8427 48.1829 58.256C48.5135 57.6587 48.9615 57.1893 49.5269 56.848C50.0922 56.496 50.7269 56.32 51.4309 56.32C52.0069 56.32 52.5189 56.4373 52.9669 56.672C53.4255 56.896 53.7935 57.216 54.0709 57.632C54.3589 58.0373 54.5349 58.512 54.5989 59.056V61.408C54.5349 61.952 54.3589 62.432 54.0709 62.848C53.7935 63.264 53.4255 63.5893 52.9669 63.824C52.5189 64.048 52.0122 64.16 51.4469 64.16ZM51.6229 63.088C52.4015 63.088 53.0255 62.8267 53.4949 62.304C53.9749 61.7813 54.2149 61.0933 54.2149 60.24C54.2149 59.6747 54.1029 59.1787 53.8789 58.752C53.6655 58.3147 53.3615 57.9787 52.9669 57.744C52.5829 57.4987 52.1295 57.376 51.6069 57.376C51.0735 57.376 50.5989 57.4987 50.1829 57.744C49.7775 57.9893 49.4522 58.3307 49.2069 58.768C48.9722 59.1947 48.8549 59.6853 48.8549 60.24C48.8549 60.7947 48.9722 61.2853 49.2069 61.712C49.4522 62.1387 49.7829 62.4747 50.1989 62.72C50.6149 62.9653 51.0895 63.088 51.6229 63.088ZM54.1509 64V61.984L54.3749 60.128L54.1509 58.32V56.48H55.2709V64H54.1509ZM57.5423 64V56.48H58.6623V64H57.5423ZM62.7103 64V59.392C62.7103 58.7733 62.5236 58.2827 62.1503 57.92C61.7769 57.5467 61.3076 57.36 60.7423 57.36C60.3583 57.36 60.0063 57.4453 59.6863 57.616C59.3769 57.776 59.1263 58.0053 58.9343 58.304C58.7529 58.6027 58.6623 58.96 58.6623 59.376L58.1503 59.168C58.1503 58.592 58.2783 58.0907 58.5343 57.664C58.7903 57.2373 59.1316 56.9067 59.5583 56.672C59.9956 56.4373 60.4863 56.32 61.0303 56.32C61.5636 56.32 62.0383 56.4373 62.4543 56.672C62.8809 56.9067 63.2169 57.2373 63.4623 57.664C63.7183 58.0907 63.8463 58.5973 63.8463 59.184V64H62.7103ZM67.8943 64V59.392C67.8943 58.7733 67.7076 58.2827 67.3343 57.92C66.9609 57.5467 66.4863 57.36 65.9103 57.36C65.5369 57.36 65.1903 57.4453 64.8703 57.616C64.5609 57.776 64.3103 58.0053 64.1183 58.304C63.9369 58.6027 63.8463 58.96 63.8463 59.376L63.1743 59.168C63.2063 58.592 63.3556 58.0907 63.6223 57.664C63.8996 57.2373 64.2569 56.9067 64.6943 56.672C65.1423 56.4373 65.6329 56.32 66.1663 56.32C66.6996 56.32 67.1796 56.4373 67.6063 56.672C68.0436 56.9067 68.3849 57.2373 68.6303 57.664C68.8863 58.0907 69.0143 58.5973 69.0143 59.184V64H67.8943ZM75.7259 64V53.312H76.8459V64H75.7259ZM73.8219 57.488V56.48H78.7339V57.488H73.8219ZM83.419 64.16C82.6937 64.16 82.0323 63.984 81.435 63.632C80.8483 63.28 80.379 62.8053 80.027 62.208C79.6857 61.6107 79.515 60.944 79.515 60.208C79.515 59.4827 79.6857 58.8267 80.027 58.24C80.379 57.6533 80.8483 57.1893 81.435 56.848C82.0323 56.496 82.6937 56.32 83.419 56.32C84.155 56.32 84.8163 56.4907 85.403 56.832C85.9897 57.1733 86.4537 57.6427 86.795 58.24C87.147 58.8267 87.323 59.4827 87.323 60.208C87.323 60.9547 87.147 61.6267 86.795 62.224C86.4537 62.8107 85.9897 63.28 85.403 63.632C84.8163 63.984 84.155 64.16 83.419 64.16ZM83.419 63.072C83.9523 63.072 84.4217 62.9493 84.827 62.704C85.243 62.4587 85.5683 62.1173 85.803 61.68C86.0483 61.2427 86.171 60.752 86.171 60.208C86.171 59.664 86.0483 59.184 85.803 58.768C85.5683 58.3413 85.243 58.0053 84.827 57.76C84.4217 57.5147 83.9523 57.392 83.419 57.392C82.8963 57.392 82.427 57.5147 82.011 57.76C81.595 58.0053 81.2697 58.3413 81.035 58.768C80.8003 59.184 80.683 59.664 80.683 60.208C80.683 60.7627 80.8003 61.2587 81.035 61.696C81.2697 62.1227 81.595 62.4587 82.011 62.704C82.427 62.9493 82.8963 63.072 83.419 63.072ZM93.9023 64L97.3423 59.456L97.7423 59.296C97.5929 59.488 97.4223 59.6533 97.2303 59.792C97.0383 59.9307 96.8143 60.0373 96.5583 60.112C96.3023 60.1867 96.0089 60.224 95.6783 60.224C95.0276 60.224 94.4356 60.064 93.9023 59.744C93.3689 59.424 92.9369 58.992 92.6063 58.448C92.2863 57.904 92.1263 57.2907 92.1263 56.608C92.1263 55.904 92.2969 55.2693 92.6383 54.704C92.9903 54.128 93.4489 53.6747 94.0143 53.344C94.5903 53.0027 95.2303 52.832 95.9343 52.832C96.6489 52.832 97.2889 52.9973 97.8543 53.328C98.4303 53.6587 98.8836 54.1067 99.2143 54.672C99.5556 55.2373 99.7263 55.8667 99.7263 56.56C99.7263 57.4987 99.4009 58.416 98.7503 59.312L95.2783 64H93.9023ZM95.9343 59.28C96.4249 59.28 96.8676 59.1627 97.2623 58.928C97.6569 58.6933 97.9663 58.3733 98.1903 57.968C98.4249 57.552 98.5423 57.0987 98.5423 56.608C98.5423 56.096 98.4249 55.6373 98.1903 55.232C97.9663 54.8267 97.6569 54.5067 97.2623 54.272C96.8676 54.0267 96.4249 53.904 95.9343 53.904C95.4436 53.904 95.0009 54.0267 94.6063 54.272C94.2116 54.5067 93.8969 54.832 93.6623 55.248C93.4276 55.6533 93.3103 56.1067 93.3103 56.608C93.3103 57.0987 93.4276 57.5467 93.6623 57.952C93.8969 58.3573 94.2116 58.6827 94.6063 58.928C95.0116 59.1627 95.4543 59.28 95.9343 59.28ZM105.477 64.16C104.901 64.16 104.384 64.0427 103.925 63.808C103.466 63.5733 103.088 63.2533 102.789 62.848C102.501 62.432 102.325 61.952 102.261 61.408V59.056C102.325 58.5013 102.506 58.0213 102.805 57.616C103.104 57.2 103.482 56.88 103.941 56.656C104.41 56.432 104.922 56.32 105.477 56.32C106.17 56.32 106.794 56.496 107.349 56.848C107.904 57.1893 108.341 57.6587 108.661 58.256C108.992 58.8427 109.157 59.5093 109.157 60.256C109.157 60.992 108.997 61.6533 108.677 62.24C108.357 62.8267 107.914 63.296 107.349 63.648C106.794 63.9893 106.17 64.16 105.477 64.16ZM105.285 63.088C105.818 63.088 106.288 62.9707 106.693 62.736C107.098 62.4907 107.413 62.1547 107.637 61.728C107.872 61.2907 107.989 60.7947 107.989 60.24C107.989 59.6747 107.872 59.1787 107.637 58.752C107.413 58.3253 107.098 57.9893 106.693 57.744C106.288 57.4987 105.824 57.376 105.301 57.376C104.778 57.376 104.314 57.4987 103.909 57.744C103.514 57.9893 103.205 58.3253 102.981 58.752C102.757 59.1787 102.645 59.6747 102.645 60.24C102.645 60.7947 102.757 61.2907 102.981 61.728C103.205 62.1547 103.514 62.4907 103.909 62.736C104.304 62.9707 104.762 63.088 105.285 63.088ZM101.589 67.168V56.48H102.709V58.4L102.485 60.224L102.709 62.064V67.168H101.589ZM110.949 64V56.48H112.069V64H110.949ZM116.117 64V59.392C116.117 58.7733 115.93 58.2827 115.557 57.92C115.183 57.5467 114.714 57.36 114.149 57.36C113.765 57.36 113.413 57.4453 113.093 57.616C112.783 57.776 112.533 58.0053 112.341 58.304C112.159 58.6027 112.069 58.96 112.069 59.376L111.557 59.168C111.557 58.592 111.685 58.0907 111.941 57.664C112.197 57.2373 112.538 56.9067 112.965 56.672C113.402 56.4373 113.893 56.32 114.437 56.32C114.97 56.32 115.445 56.4373 115.861 56.672C116.287 56.9067 116.623 57.2373 116.869 57.664C117.125 58.0907 117.253 58.5973 117.253 59.184V64H116.117ZM121.301 64V59.392C121.301 58.7733 121.114 58.2827 120.741 57.92C120.367 57.5467 119.893 57.36 119.317 57.36C118.943 57.36 118.597 57.4453 118.277 57.616C117.967 57.776 117.717 58.0053 117.525 58.304C117.343 58.6027 117.253 58.96 117.253 59.376L116.581 59.168C116.613 58.592 116.762 58.0907 117.029 57.664C117.306 57.2373 117.663 56.9067 118.101 56.672C118.549 56.4373 119.039 56.32 119.573 56.32C120.106 56.32 120.586 56.4373 121.013 56.672C121.45 56.9067 121.791 57.2373 122.037 57.664C122.293 58.0907 122.421 58.5973 122.421 59.184V64H121.301ZM125.711 64.16C125.444 64.16 125.225 64.0693 125.055 63.888C124.884 63.7067 124.799 63.488 124.799 63.232C124.799 62.976 124.884 62.7627 125.055 62.592C125.225 62.4107 125.444 62.32 125.711 62.32C125.967 62.32 126.18 62.4107 126.351 62.592C126.521 62.7627 126.607 62.976 126.607 63.232C126.607 63.488 126.521 63.7067 126.351 63.888C126.18 64.0693 125.967 64.16 125.711 64.16ZM132.861 64V52.992H134.029V64H132.861ZM133.629 59.024V57.952H139.533V59.024H133.629ZM133.629 54.064V52.992H139.805V54.064H133.629ZM141.667 64V56.48H142.803V64H141.667ZM142.227 54.848C142.014 54.848 141.833 54.7733 141.683 54.624C141.534 54.464 141.459 54.2773 141.459 54.064C141.459 53.84 141.534 53.6533 141.683 53.504C141.833 53.3547 142.014 53.28 142.227 53.28C142.462 53.28 142.649 53.3547 142.787 53.504C142.937 53.6533 143.011 53.84 143.011 54.064C143.011 54.2773 142.937 54.464 142.787 54.624C142.649 54.7733 142.462 54.848 142.227 54.848ZM150.546 64V59.584C150.546 58.9227 150.348 58.3893 149.954 57.984C149.57 57.568 149.058 57.36 148.418 57.36C147.98 57.36 147.596 57.456 147.266 57.648C146.935 57.84 146.674 58.1013 146.482 58.432C146.29 58.7627 146.194 59.1413 146.194 59.568L145.682 59.28C145.682 58.7147 145.815 58.208 146.082 57.76C146.348 57.312 146.706 56.96 147.154 56.704C147.612 56.448 148.135 56.32 148.722 56.32C149.298 56.32 149.81 56.4587 150.258 56.736C150.706 57.0133 151.052 57.3867 151.298 57.856C151.554 58.3253 151.682 58.8373 151.682 59.392V64H150.546ZM145.074 64V56.48H146.194V64H145.074ZM156.977 64.16C156.283 64.16 155.659 63.9893 155.105 63.648C154.55 63.3067 154.107 62.8427 153.777 62.256C153.457 61.6587 153.297 60.992 153.297 60.256C153.297 59.5093 153.457 58.8427 153.777 58.256C154.107 57.6587 154.55 57.1893 155.105 56.848C155.659 56.496 156.283 56.32 156.977 56.32C157.542 56.32 158.054 56.432 158.513 56.656C158.971 56.88 159.35 57.2 159.649 57.616C159.958 58.0213 160.139 58.5013 160.193 59.056V61.408C160.129 61.952 159.947 62.432 159.649 62.848C159.361 63.2533 158.987 63.5733 158.529 63.808C158.07 64.0427 157.553 64.16 156.977 64.16ZM157.169 63.088C157.691 63.088 158.15 62.9707 158.545 62.736C158.939 62.4907 159.249 62.1547 159.473 61.728C159.697 61.2907 159.809 60.7947 159.809 60.24C159.809 59.6747 159.691 59.1787 159.457 58.752C159.233 58.3253 158.923 57.9893 158.529 57.744C158.134 57.4987 157.675 57.376 157.153 57.376C156.63 57.376 156.166 57.4987 155.761 57.744C155.355 57.9893 155.035 58.3307 154.801 58.768C154.577 59.1947 154.465 59.6853 154.465 60.24C154.465 60.7947 154.577 61.2907 154.801 61.728C155.035 62.1547 155.355 62.4907 155.761 62.736C156.177 62.9707 156.646 63.088 157.169 63.088ZM160.865 64H159.745V61.984L159.969 60.128L159.745 58.32V52.672H160.865V64ZM169.549 64.16C168.942 64.16 168.398 64.0213 167.918 63.744C167.438 63.456 167.059 63.0667 166.782 62.576C166.515 62.0853 166.382 61.5093 166.382 60.848V56.48H167.518V60.8C167.518 61.2587 167.598 61.6587 167.758 62C167.928 62.3413 168.168 62.608 168.478 62.8C168.787 62.992 169.144 63.088 169.549 63.088C170.179 63.088 170.675 62.88 171.038 62.464C171.411 62.048 171.598 61.4933 171.598 60.8V56.48H172.718V60.848C172.718 61.4987 172.584 62.0747 172.318 62.576C172.051 63.0773 171.678 63.4667 171.198 63.744C170.718 64.0213 170.168 64.16 169.549 64.16ZM177.112 64.16C176.707 64.16 176.317 64.1067 175.944 64C175.571 63.8827 175.229 63.7227 174.92 63.52C174.621 63.3173 174.36 63.0773 174.136 62.8L174.856 62.064C175.155 62.4267 175.491 62.6987 175.864 62.88C176.248 63.0507 176.675 63.136 177.144 63.136C177.645 63.136 178.035 63.04 178.312 62.848C178.6 62.656 178.744 62.3893 178.744 62.048C178.744 61.728 178.643 61.4773 178.44 61.296C178.237 61.1147 177.976 60.9707 177.656 60.864C177.347 60.7573 177.016 60.656 176.664 60.56C176.312 60.4533 175.976 60.3253 175.656 60.176C175.336 60.016 175.075 59.7973 174.872 59.52C174.68 59.2427 174.584 58.88 174.584 58.432C174.584 58.0053 174.685 57.6373 174.888 57.328C175.101 57.008 175.4 56.7627 175.784 56.592C176.179 56.4107 176.643 56.32 177.176 56.32C177.741 56.32 178.253 56.4213 178.712 56.624C179.171 56.8267 179.539 57.1253 179.816 57.52L179.096 58.24C178.872 57.952 178.589 57.7333 178.248 57.584C177.917 57.424 177.544 57.344 177.128 57.344C176.648 57.344 176.28 57.44 176.024 57.632C175.779 57.8133 175.656 58.0533 175.656 58.352C175.656 58.64 175.757 58.8693 175.96 59.04C176.163 59.2 176.419 59.3333 176.728 59.44C177.048 59.536 177.384 59.6373 177.736 59.744C178.088 59.84 178.424 59.9733 178.744 60.144C179.064 60.304 179.32 60.528 179.512 60.816C179.715 61.0933 179.816 61.472 179.816 61.952C179.816 62.624 179.571 63.1627 179.08 63.568C178.6 63.9627 177.944 64.16 177.112 64.16ZM188.291 64.16C187.576 64.16 186.936 63.9893 186.371 63.648C185.805 63.296 185.357 62.8267 185.027 62.24C184.707 61.6533 184.547 60.992 184.547 60.256C184.547 59.5093 184.707 58.8427 185.027 58.256C185.357 57.6587 185.805 57.1893 186.371 56.848C186.936 56.496 187.571 56.32 188.275 56.32C188.851 56.32 189.363 56.4373 189.811 56.672C190.269 56.896 190.637 57.216 190.915 57.632C191.203 58.0373 191.379 58.512 191.443 59.056V61.408C191.379 61.952 191.203 62.432 190.915 62.848C190.637 63.264 190.269 63.5893 189.811 63.824C189.363 64.048 188.856 64.16 188.291 64.16ZM188.467 63.088C189.245 63.088 189.869 62.8267 190.339 62.304C190.819 61.7813 191.059 61.0933 191.059 60.24C191.059 59.6747 190.947 59.1787 190.723 58.752C190.509 58.3147 190.205 57.9787 189.811 57.744C189.427 57.4987 188.973 57.376 188.451 57.376C187.917 57.376 187.443 57.4987 187.027 57.744C186.621 57.9893 186.296 58.3307 186.051 58.768C185.816 59.1947 185.699 59.6853 185.699 60.24C185.699 60.7947 185.816 61.2853 186.051 61.712C186.296 62.1387 186.627 62.4747 187.043 62.72C187.459 62.9653 187.933 63.088 188.467 63.088ZM190.995 64V61.984L191.219 60.128L190.995 58.32V56.48H192.115V64H190.995ZM195.492 64V53.312H196.612V64H195.492ZM193.588 57.488V56.48H198.5V57.488H193.588ZM204.84 64L208.28 59.456L208.68 59.296C208.53 59.488 208.36 59.6533 208.168 59.792C207.976 59.9307 207.752 60.0373 207.496 60.112C207.24 60.1867 206.946 60.224 206.616 60.224C205.965 60.224 205.373 60.064 204.84 59.744C204.306 59.424 203.874 58.992 203.544 58.448C203.224 57.904 203.064 57.2907 203.064 56.608C203.064 55.904 203.234 55.2693 203.576 54.704C203.928 54.128 204.386 53.6747 204.952 53.344C205.528 53.0027 206.168 52.832 206.872 52.832C207.586 52.832 208.226 52.9973 208.792 53.328C209.368 53.6587 209.821 54.1067 210.152 54.672C210.493 55.2373 210.664 55.8667 210.664 56.56C210.664 57.4987 210.338 58.416 209.688 59.312L206.216 64H204.84ZM206.872 59.28C207.362 59.28 207.805 59.1627 208.2 58.928C208.594 58.6933 208.904 58.3733 209.128 57.968C209.362 57.552 209.48 57.0987 209.48 56.608C209.48 56.096 209.362 55.6373 209.128 55.232C208.904 54.8267 208.594 54.5067 208.2 54.272C207.805 54.0267 207.362 53.904 206.872 53.904C206.381 53.904 205.938 54.0267 205.544 54.272C205.149 54.5067 204.834 54.832 204.6 55.248C204.365 55.6533 204.248 56.1067 204.248 56.608C204.248 57.0987 204.365 57.5467 204.6 57.952C204.834 58.3573 205.149 58.6827 205.544 58.928C205.949 59.1627 206.392 59.28 206.872 59.28ZM213.887 64L217.327 59.456L217.727 59.296C217.577 59.488 217.407 59.6533 217.215 59.792C217.023 59.9307 216.799 60.0373 216.543 60.112C216.287 60.1867 215.993 60.224 215.663 60.224C215.012 60.224 214.42 60.064 213.887 59.744C213.353 59.424 212.921 58.992 212.591 58.448C212.271 57.904 212.111 57.2907 212.111 56.608C212.111 55.904 212.281 55.2693 212.623 54.704C212.975 54.128 213.433 53.6747 213.999 53.344C214.575 53.0027 215.215 52.832 215.919 52.832C216.633 52.832 217.273 52.9973 217.839 53.328C218.415 53.6587 218.868 54.1067 219.199 54.672C219.54 55.2373 219.711 55.8667 219.711 56.56C219.711 57.4987 219.385 58.416 218.735 59.312L215.263 64H213.887ZM215.919 59.28C216.409 59.28 216.852 59.1627 217.247 58.928C217.641 58.6933 217.951 58.3733 218.175 57.968C218.409 57.552 218.527 57.0987 218.527 56.608C218.527 56.096 218.409 55.6373 218.175 55.232C217.951 54.8267 217.641 54.5067 217.247 54.272C216.852 54.0267 216.409 53.904 215.919 53.904C215.428 53.904 214.985 54.0267 214.591 54.272C214.196 54.5067 213.881 54.832 213.647 55.248C213.412 55.6533 213.295 56.1067 213.295 56.608C213.295 57.0987 213.412 57.5467 213.647 57.952C213.881 58.3573 214.196 58.6827 214.591 58.928C214.996 59.1627 215.439 59.28 215.919 59.28ZM232.259 64L226.243 58.256L232.131 52.992H233.699L227.427 58.576L227.443 57.904L233.859 64H232.259ZM225.283 64V52.992H226.451V64H225.283ZM235.558 64V56.48H236.694V64H235.558ZM236.118 54.848C235.905 54.848 235.723 54.7733 235.574 54.624C235.425 54.464 235.35 54.2773 235.35 54.064C235.35 53.84 235.425 53.6533 235.574 53.504C235.723 53.3547 235.905 53.28 236.118 53.28C236.353 53.28 236.539 53.3547 236.678 53.504C236.827 53.6533 236.902 53.84 236.902 54.064C236.902 54.2773 236.827 54.464 236.678 54.624C236.539 54.7733 236.353 54.848 236.118 54.848ZM244.436 64V59.584C244.436 58.9227 244.239 58.3893 243.844 57.984C243.46 57.568 242.948 57.36 242.308 57.36C241.871 57.36 241.487 57.456 241.156 57.648C240.825 57.84 240.564 58.1013 240.372 58.432C240.18 58.7627 240.084 59.1413 240.084 59.568L239.572 59.28C239.572 58.7147 239.705 58.208 239.972 57.76C240.239 57.312 240.596 56.96 241.044 56.704C241.503 56.448 242.025 56.32 242.612 56.32C243.188 56.32 243.7 56.4587 244.148 56.736C244.596 57.0133 244.943 57.3867 245.188 57.856C245.444 58.3253 245.572 58.8373 245.572 59.392V64H244.436ZM238.964 64V56.48H240.084V64H238.964ZM250.771 67.328C250.014 67.328 249.337 67.184 248.739 66.896C248.153 66.6187 247.678 66.224 247.315 65.712L248.051 64.976C248.35 65.3813 248.729 65.696 249.187 65.92C249.646 66.144 250.185 66.256 250.803 66.256C251.657 66.256 252.334 66.0267 252.835 65.568C253.347 65.1093 253.603 64.4853 253.603 63.696V61.824L253.827 60.112L253.603 58.416V56.48H254.723V63.696C254.723 64.4213 254.558 65.056 254.227 65.6C253.897 66.144 253.433 66.5653 252.835 66.864C252.249 67.1733 251.561 67.328 250.771 67.328ZM250.851 63.92C250.158 63.92 249.534 63.7547 248.979 63.424C248.425 63.0933 247.987 62.64 247.667 62.064C247.347 61.488 247.187 60.8373 247.187 60.112C247.187 59.3867 247.342 58.7413 247.651 58.176C247.971 57.6 248.409 57.1467 248.963 56.816C249.518 56.4853 250.142 56.32 250.835 56.32C251.422 56.32 251.945 56.432 252.403 56.656C252.873 56.88 253.246 57.2 253.523 57.616C253.811 58.0213 253.987 58.5013 254.051 59.056V61.184C253.987 61.728 253.811 62.208 253.523 62.624C253.235 63.0293 252.862 63.3493 252.403 63.584C251.945 63.808 251.427 63.92 250.851 63.92ZM251.059 62.848C251.582 62.848 252.035 62.736 252.419 62.512C252.814 62.288 253.118 61.9733 253.331 61.568C253.555 61.152 253.667 60.6667 253.667 60.112C253.667 59.568 253.555 59.0933 253.331 58.688C253.118 58.2827 252.814 57.9627 252.419 57.728C252.025 57.4933 251.566 57.376 251.043 57.376C250.521 57.376 250.051 57.4933 249.635 57.728C249.23 57.9627 248.91 58.2827 248.675 58.688C248.451 59.0933 248.339 59.568 248.339 60.112C248.339 60.6453 248.457 61.12 248.691 61.536C248.926 61.952 249.246 62.2773 249.651 62.512C250.057 62.736 250.526 62.848 251.059 62.848ZM4.448 90.16C3.59467 90.16 2.85867 90 2.24 89.68C1.62133 89.3493 1.07733 88.8907 0.608 88.304L1.424 87.504C1.79733 88.0267 2.22933 88.416 2.72 88.672C3.22133 88.928 3.81333 89.056 4.496 89.056C5.2 89.056 5.77067 88.896 6.208 88.576C6.64533 88.256 6.864 87.8133 6.864 87.248C6.864 86.8107 6.76267 86.4533 6.56 86.176C6.35733 85.888 6.09067 85.6587 5.76 85.488C5.44 85.3067 5.08267 85.1467 4.688 85.008C4.29333 84.8693 3.89867 84.7253 3.504 84.576C3.12 84.416 2.76267 84.2187 2.432 83.984C2.10133 83.7493 1.83467 83.4507 1.632 83.088C1.44 82.7253 1.344 82.2613 1.344 81.696C1.344 81.0987 1.488 80.5867 1.776 80.16C2.064 79.7333 2.45867 79.408 2.96 79.184C3.46133 78.9493 4.032 78.832 4.672 78.832C5.38667 78.832 6.02133 78.9707 6.576 79.248C7.14133 79.5253 7.61067 79.8987 7.984 80.368L7.184 81.168C6.84267 80.7627 6.46933 80.4533 6.064 80.24C5.65867 80.0267 5.184 79.92 4.64 79.92C4 79.92 3.488 80.0693 3.104 80.368C2.72 80.6667 2.528 81.0827 2.528 81.616C2.528 82.032 2.624 82.368 2.816 82.624C3.01867 82.88 3.28533 83.0933 3.616 83.264C3.94667 83.4347 4.304 83.5893 4.688 83.728C5.08267 83.856 5.47733 84 5.872 84.16C6.26667 84.32 6.624 84.5227 6.944 84.768C7.27467 85.0133 7.54133 85.328 7.744 85.712C7.94667 86.0853 8.048 86.5653 8.048 87.152C8.048 88.1013 7.72267 88.8427 7.072 89.376C6.432 89.8987 5.55733 90.16 4.448 90.16ZM11.1634 90V79.312H12.2834V90H11.1634ZM9.25938 83.488V82.48H14.1714V83.488H9.25938ZM15.7141 90V82.48H16.8341V90H15.7141ZM16.8341 85.616L16.3701 85.408C16.3701 84.4587 16.5995 83.7067 17.0581 83.152C17.5275 82.5973 18.1675 82.32 18.9781 82.32C19.3515 82.32 19.6928 82.3893 20.0021 82.528C20.3115 82.656 20.5995 82.864 20.8661 83.152L20.1301 83.936C19.9488 83.7333 19.7461 83.5893 19.5221 83.504C19.3088 83.4187 19.0635 83.376 18.7861 83.376C18.2101 83.376 17.7408 83.568 17.3781 83.952C17.0155 84.3253 16.8341 84.88 16.8341 85.616ZM25.2643 90.16C24.5069 90.16 23.8296 89.9893 23.2323 89.648C22.6349 89.3067 22.1603 88.8373 21.8083 88.24C21.4669 87.6427 21.2963 86.9707 21.2963 86.224C21.2963 85.488 21.4669 84.8267 21.8083 84.24C22.1496 83.6427 22.6136 83.1733 23.2003 82.832C23.7869 82.4907 24.4429 82.32 25.1683 82.32C25.8509 82.32 26.4536 82.4747 26.9763 82.784C27.5096 83.0933 27.9256 83.5253 28.2243 84.08C28.5336 84.624 28.6883 85.2533 28.6883 85.968C28.6883 86.0533 28.6829 86.1547 28.6723 86.272C28.6616 86.3787 28.6403 86.5067 28.6083 86.656H22.0963V85.696H28.0003L27.6003 86.048C27.6109 85.4933 27.5149 85.0187 27.3123 84.624C27.1203 84.2187 26.8376 83.9093 26.4643 83.696C26.1016 83.472 25.6589 83.36 25.1363 83.36C24.5923 83.36 24.1176 83.4773 23.7123 83.712C23.3069 83.9467 22.9869 84.2773 22.7523 84.704C22.5283 85.12 22.4163 85.616 22.4163 86.192C22.4163 86.768 22.5336 87.2747 22.7682 87.712C23.0136 88.1493 23.3496 88.4907 23.7763 88.736C24.2136 88.9813 24.7149 89.104 25.2803 89.104C25.7389 89.104 26.1603 89.024 26.5443 88.864C26.9283 88.6933 27.2536 88.4427 27.5203 88.112L28.2403 88.848C27.8883 89.264 27.4509 89.5893 26.9283 89.824C26.4163 90.048 25.8616 90.16 25.2643 90.16ZM33.8736 90.16C33.1163 90.16 32.439 89.9893 31.8416 89.648C31.2443 89.3067 30.7696 88.8373 30.4176 88.24C30.0763 87.6427 29.9056 86.9707 29.9056 86.224C29.9056 85.488 30.0763 84.8267 30.4176 84.24C30.759 83.6427 31.223 83.1733 31.8096 82.832C32.3963 82.4907 33.0523 82.32 33.7776 82.32C34.4603 82.32 35.063 82.4747 35.5856 82.784C36.119 83.0933 36.535 83.5253 36.8336 84.08C37.143 84.624 37.2976 85.2533 37.2976 85.968C37.2976 86.0533 37.2923 86.1547 37.2816 86.272C37.271 86.3787 37.2496 86.5067 37.2176 86.656H30.7056V85.696H36.6096L36.2096 86.048C36.2203 85.4933 36.1243 85.0187 35.9216 84.624C35.7296 84.2187 35.447 83.9093 35.0736 83.696C34.711 83.472 34.2683 83.36 33.7456 83.36C33.2016 83.36 32.727 83.4773 32.3216 83.712C31.9163 83.9467 31.5963 84.2773 31.3616 84.704C31.1376 85.12 31.0256 85.616 31.0256 86.192C31.0256 86.768 31.143 87.2747 31.3776 87.712C31.623 88.1493 31.959 88.4907 32.3856 88.736C32.823 88.9813 33.3243 89.104 33.8896 89.104C34.3483 89.104 34.7696 89.024 35.1536 88.864C35.5376 88.6933 35.863 88.4427 36.1296 88.112L36.8496 88.848C36.4976 89.264 36.0603 89.5893 35.5376 89.824C35.0256 90.048 34.471 90.16 33.8736 90.16ZM39.9134 90V79.312H41.0334V90H39.9134ZM38.0094 83.488V82.48H42.9214V83.488H38.0094ZM44.0773 91.648L44.9893 89.872L45.3893 89.776C45.3466 89.872 45.2879 89.952 45.2133 90.016C45.1386 90.0907 45.0479 90.128 44.9413 90.128C44.7386 90.128 44.5519 90.048 44.3813 89.888C44.2213 89.7173 44.1413 89.5093 44.1413 89.264C44.1413 89.008 44.2319 88.7893 44.4133 88.608C44.5946 88.416 44.8133 88.32 45.0693 88.32C45.3146 88.32 45.5279 88.416 45.7093 88.608C45.9013 88.7893 45.9973 89.008 45.9973 89.264C45.9973 89.3707 45.9759 89.4987 45.9333 89.648C45.9013 89.7867 45.8266 89.9733 45.7093 90.208L44.7493 92.016L44.0773 91.648ZM52.0174 90V78.992H52.8494L53.1854 80.384V90H52.0174ZM59.6334 90L52.6734 80.56L52.8494 78.992L59.7934 88.432L59.6334 90ZM59.6334 90L59.2814 88.672V78.992H60.4654V90H59.6334ZM66.4674 90.16C65.71 90.16 65.0327 89.9893 64.4354 89.648C63.838 89.3067 63.3634 88.8373 63.0114 88.24C62.67 87.6427 62.4994 86.9707 62.4994 86.224C62.4994 85.488 62.67 84.8267 63.0114 84.24C63.3527 83.6427 63.8167 83.1733 64.4034 82.832C64.99 82.4907 65.646 82.32 66.3714 82.32C67.054 82.32 67.6567 82.4747 68.1794 82.784C68.7127 83.0933 69.1287 83.5253 69.4274 84.08C69.7367 84.624 69.8914 85.2533 69.8914 85.968C69.8914 86.0533 69.886 86.1547 69.8754 86.272C69.8647 86.3787 69.8434 86.5067 69.8114 86.656H63.2994V85.696H69.2034L68.8034 86.048C68.814 85.4933 68.718 85.0187 68.5154 84.624C68.3234 84.2187 68.0407 83.9093 67.6674 83.696C67.3047 83.472 66.862 83.36 66.3394 83.36C65.7954 83.36 65.3207 83.4773 64.9154 83.712C64.51 83.9467 64.19 84.2773 63.9554 84.704C63.7314 85.12 63.6194 85.616 63.6194 86.192C63.6194 86.768 63.7367 87.2747 63.9714 87.712C64.2167 88.1493 64.5527 88.4907 64.9794 88.736C65.4167 88.9813 65.918 89.104 66.4834 89.104C66.942 89.104 67.3634 89.024 67.7474 88.864C68.1314 88.6933 68.4567 88.4427 68.7234 88.112L69.4434 88.848C69.0914 89.264 68.654 89.5893 68.1314 89.824C67.6194 90.048 67.0647 90.16 66.4674 90.16ZM73.607 90L70.711 82.48H71.879L74.167 88.72L73.751 88.736L76.023 82.48H76.679L78.951 88.736L78.535 88.72L80.807 82.48H81.991L79.079 90H78.423L76.103 83.84H76.583L74.279 90H73.607ZM87.3365 90.16C86.7605 90.16 86.2432 90.0427 85.7845 89.808C85.3258 89.5733 84.9472 89.2533 84.6485 88.848C84.3605 88.432 84.1845 87.952 84.1205 87.408V85.056C84.1845 84.5013 84.3658 84.0213 84.6645 83.616C84.9632 83.2 85.3418 82.88 85.8005 82.656C86.2698 82.432 86.7818 82.32 87.3365 82.32C88.0298 82.32 88.6538 82.496 89.2085 82.848C89.7632 83.1893 90.2005 83.6587 90.5205 84.256C90.8512 84.8427 91.0165 85.5093 91.0165 86.256C91.0165 86.992 90.8565 87.6533 90.5365 88.24C90.2165 88.8267 89.7738 89.296 89.2085 89.648C88.6538 89.9893 88.0298 90.16 87.3365 90.16ZM87.1445 89.088C87.6778 89.088 88.1472 88.9707 88.5525 88.736C88.9578 88.4907 89.2725 88.1547 89.4965 87.728C89.7312 87.2907 89.8485 86.7947 89.8485 86.24C89.8485 85.6747 89.7312 85.1787 89.4965 84.752C89.2725 84.3253 88.9578 83.9893 88.5525 83.744C88.1472 83.4987 87.6832 83.376 87.1605 83.376C86.6378 83.376 86.1738 83.4987 85.7685 83.744C85.3738 83.9893 85.0645 84.3253 84.8405 84.752C84.6165 85.1787 84.5045 85.6747 84.5045 86.24C84.5045 86.7947 84.6165 87.2907 84.8405 87.728C85.0645 88.1547 85.3738 88.4907 85.7685 88.736C86.1632 88.9707 86.6218 89.088 87.1445 89.088ZM83.4485 93.168V82.48H84.5685V84.4L84.3445 86.224L84.5685 88.064V93.168H83.4485ZM96.2159 90.16C95.4905 90.16 94.8292 89.984 94.2319 89.632C93.6452 89.28 93.1759 88.8053 92.8239 88.208C92.4825 87.6107 92.3119 86.944 92.3119 86.208C92.3119 85.4827 92.4825 84.8267 92.8239 84.24C93.1759 83.6533 93.6452 83.1893 94.2319 82.848C94.8292 82.496 95.4905 82.32 96.2159 82.32C96.9519 82.32 97.6132 82.4907 98.1999 82.832C98.7865 83.1733 99.2505 83.6427 99.5919 84.24C99.9439 84.8267 100.12 85.4827 100.12 86.208C100.12 86.9547 99.9439 87.6267 99.5919 88.224C99.2505 88.8107 98.7865 89.28 98.1999 89.632C97.6132 89.984 96.9519 90.16 96.2159 90.16ZM96.2159 89.072C96.7492 89.072 97.2185 88.9493 97.6239 88.704C98.0399 88.4587 98.3652 88.1173 98.5999 87.68C98.8452 87.2427 98.9679 86.752 98.9679 86.208C98.9679 85.664 98.8452 85.184 98.5999 84.768C98.3652 84.3413 98.0399 84.0053 97.6239 83.76C97.2185 83.5147 96.7492 83.392 96.2159 83.392C95.6932 83.392 95.2239 83.5147 94.8079 83.76C94.3919 84.0053 94.0665 84.3413 93.8319 84.768C93.5972 85.184 93.4799 85.664 93.4799 86.208C93.4799 86.7627 93.5972 87.2587 93.8319 87.696C94.0665 88.1227 94.3919 88.4587 94.8079 88.704C95.2239 88.9493 95.6932 89.072 96.2159 89.072ZM101.902 90V82.48H103.022V90H101.902ZM103.022 85.616L102.558 85.408C102.558 84.4587 102.787 83.7067 103.246 83.152C103.715 82.5973 104.355 82.32 105.166 82.32C105.539 82.32 105.88 82.3893 106.19 82.528C106.499 82.656 106.787 82.864 107.054 83.152L106.318 83.936C106.136 83.7333 105.934 83.5893 105.71 83.504C105.496 83.4187 105.251 83.376 104.974 83.376C104.398 83.376 103.928 83.568 103.566 83.952C103.203 84.3253 103.022 84.88 103.022 85.616ZM109.335 90V79.312H110.455V90H109.335ZM107.431 83.488V82.48H112.343V83.488H107.431ZM113.499 91.648L114.411 89.872L114.811 89.776C114.768 89.872 114.71 89.952 114.635 90.016C114.56 90.0907 114.47 90.128 114.363 90.128C114.16 90.128 113.974 90.048 113.803 89.888C113.643 89.7173 113.563 89.5093 113.563 89.264C113.563 89.008 113.654 88.7893 113.835 88.608C114.016 88.416 114.235 88.32 114.491 88.32C114.736 88.32 114.95 88.416 115.131 88.608C115.323 88.7893 115.419 89.008 115.419 89.264C115.419 89.3707 115.398 89.4987 115.355 89.648C115.323 89.7867 115.248 89.9733 115.131 90.208L114.171 92.016L113.499 91.648ZM125.455 90.16C124.655 90.16 123.941 89.984 123.311 89.632C122.693 89.2693 122.202 88.7787 121.839 88.16C121.477 87.5307 121.295 86.8267 121.295 86.048V78.992H122.479V85.984C122.479 86.6027 122.607 87.1413 122.863 87.6C123.119 88.0587 123.471 88.4107 123.919 88.656C124.378 88.9013 124.89 89.024 125.455 89.024C126.021 89.024 126.522 88.9013 126.959 88.656C127.407 88.4107 127.759 88.064 128.015 87.616C128.282 87.1573 128.415 86.6187 128.415 86V78.992H129.583V86.064C129.583 86.8427 129.402 87.5413 129.039 88.16C128.687 88.7787 128.197 89.2693 127.567 89.632C126.949 89.984 126.245 90.16 125.455 90.16ZM135.167 90.16C134.313 90.16 133.577 90 132.959 89.68C132.34 89.3493 131.796 88.8907 131.327 88.304L132.143 87.504C132.516 88.0267 132.948 88.416 133.439 88.672C133.94 88.928 134.532 89.056 135.215 89.056C135.919 89.056 136.489 88.896 136.927 88.576C137.364 88.256 137.583 87.8133 137.583 87.248C137.583 86.8107 137.481 86.4533 137.279 86.176C137.076 85.888 136.809 85.6587 136.479 85.488C136.159 85.3067 135.801 85.1467 135.407 85.008C135.012 84.8693 134.617 84.7253 134.223 84.576C133.839 84.416 133.481 84.2187 133.151 83.984C132.82 83.7493 132.553 83.4507 132.351 83.088C132.159 82.7253 132.063 82.2613 132.063 81.696C132.063 81.0987 132.207 80.5867 132.495 80.16C132.783 79.7333 133.177 79.408 133.679 79.184C134.18 78.9493 134.751 78.832 135.391 78.832C136.105 78.832 136.74 78.9707 137.295 79.248C137.86 79.5253 138.329 79.8987 138.703 80.368L137.903 81.168C137.561 80.7627 137.188 80.4533 136.783 80.24C136.377 80.0267 135.903 79.92 135.359 79.92C134.719 79.92 134.207 80.0693 133.823 80.368C133.439 80.6667 133.247 81.0827 133.247 81.616C133.247 82.032 133.343 82.368 133.535 82.624C133.737 82.88 134.004 83.0933 134.335 83.264C134.665 83.4347 135.023 83.5893 135.407 83.728C135.801 83.856 136.196 84 136.591 84.16C136.985 84.32 137.343 84.5227 137.663 84.768C137.993 85.0133 138.26 85.328 138.463 85.712C138.665 86.0853 138.767 86.5653 138.767 87.152C138.767 88.1013 138.441 88.8427 137.791 89.376C137.151 89.8987 136.276 90.16 135.167 90.16ZM139.795 90L144.307 78.992H145.187L149.651 90H148.387L144.499 80.272H144.963L141.043 90H139.795ZM141.859 87.136V86.096H147.619V87.136H141.859ZM152.57 90.16C152.303 90.16 152.085 90.0693 151.914 89.888C151.743 89.7067 151.658 89.488 151.658 89.232C151.658 88.976 151.743 88.7627 151.914 88.592C152.085 88.4107 152.303 88.32 152.57 88.32C152.826 88.32 153.039 88.4107 153.21 88.592C153.381 88.7627 153.466 88.976 153.466 89.232C153.466 89.488 153.381 89.7067 153.21 89.888C153.039 90.0693 152.826 90.16 152.57 90.16Z" fill="#151515"/>
</svg>
