<svg width="174" height="132" viewBox="0 0 174 132" fill="none" xmlns="http://www.w3.org/2000/svg">
<path d="M7.5 41V31.45L6.95 29.2L7.07805e-08 0.999999H7.65L9.8 10.7L10.55 22.45H11.95L12.7 10.7L14.85 0.999999H22.5L15.55 29.15L15 31.45V41H7.5ZM33.6715 41.5C30.0048 41.5 27.3382 40.7333 25.6715 39.2C24.0382 37.6333 23.1882 35.05 23.1215 31.45C23.0548 28.1833 23.0215 24.7 23.0215 21C23.0215 17.2667 23.0548 13.7667 23.1215 10.5C23.1882 6.93333 24.0382 4.38333 25.6715 2.85C27.3382 1.28333 30.0048 0.499997 33.6715 0.499997C37.3382 0.499997 39.9715 1.28333 41.5715 2.85C43.1715 4.38333 44.0382 6.93333 44.1715 10.5C44.3048 13.8333 44.3715 17.35 44.3715 21.05C44.3715 24.7167 44.3048 28.1833 44.1715 31.45C44.0382 35.05 43.1715 37.6333 41.5715 39.2C39.9715 40.7333 37.3382 41.5 33.6715 41.5ZM33.6715 35.4C35.6048 35.4 36.6048 34.55 36.6715 32.85C36.7382 31.15 36.7882 29.2833 36.8215 27.25C36.8882 25.2167 36.9215 23.1333 36.9215 21C36.9215 18.8333 36.8882 16.7333 36.8215 14.7C36.7882 12.6667 36.7382 10.8 36.6715 9.1C36.6048 7.43333 35.6048 6.6 33.6715 6.6C31.7048 6.6 30.6882 7.43333 30.6215 9.1C30.5548 10.8 30.5048 12.6667 30.4715 14.7C30.4382 16.7333 30.4215 18.8333 30.4215 21C30.4215 23.1333 30.4382 25.2167 30.4715 27.25C30.5048 29.2833 30.5548 31.15 30.6215 32.85C30.6882 34.55 31.7048 35.4 33.6715 35.4ZM58.0367 41.5C54.3034 41.5 51.6201 40.7333 49.9867 39.2C48.3867 37.6333 47.5534 35.05 47.4867 31.45C47.3201 21.2833 47.3201 11.1333 47.4867 0.999999H54.9867C54.9201 4.33333 54.8701 7.83333 54.8367 11.5C54.8367 15.1333 54.8534 18.7667 54.8867 22.4C54.9201 26 54.9534 29.4833 54.9867 32.85C54.9867 34.55 56.0034 35.4 58.0367 35.4C60.0367 35.4 61.0367 34.55 61.0367 32.85C61.0701 29.4833 61.1034 26 61.1367 22.4C61.1701 18.7667 61.1701 15.1333 61.1367 11.5C61.1367 7.83333 61.1034 4.33333 61.0367 0.999999H68.5367C68.7034 11.1333 68.7034 21.2833 68.5367 31.45C68.5034 35.05 67.6701 37.6333 66.0367 39.2C64.4367 40.7333 61.7701 41.5 58.0367 41.5ZM72.6309 41V0.999999H82.2809C86.0142 0.999999 88.6975 1.76667 90.3309 3.3C91.9975 4.8 92.8975 7.28333 93.0309 10.75C93.0642 11.6833 93.0809 12.5 93.0809 13.2C93.1142 13.9 93.1142 14.6 93.0809 15.3C93.0809 16 93.0642 16.8167 93.0309 17.75C92.9642 19.9167 92.5975 21.7 91.9309 23.1C91.2642 24.4667 90.2475 25.5167 88.8809 26.25L93.5809 41H85.6309L81.8309 27.5H80.1309V41H72.6309ZM80.1309 20.9H82.2809C84.3475 20.9 85.4309 19.9833 85.5309 18.15C85.6975 15.55 85.6975 12.95 85.5309 10.35C85.4309 8.51666 84.3475 7.6 82.2809 7.6H80.1309V20.9ZM107.543 41V0.999999H117.693C121.46 0.999999 124.176 1.8 125.843 3.4C127.51 4.96666 128.376 7.58333 128.443 11.25C128.51 13.55 128.543 15.75 128.543 17.85C128.576 19.9167 128.576 22 128.543 24.1C128.543 26.1667 128.51 28.3667 128.443 30.7C128.376 34.3667 127.51 37 125.843 38.6C124.176 40.2 121.46 41 117.693 41H107.543ZM115.043 34.4H117.693C119.793 34.4 120.876 33.4667 120.943 31.6C121.143 24.5 121.143 17.4167 120.943 10.35C120.876 8.51666 119.793 7.6 117.693 7.6H115.043V34.4ZM130.566 41L136.116 0.999999H147.916L153.466 41H145.766L144.916 32.65H139.116L138.266 41H130.566ZM139.816 26.05H144.216L143.316 17.2L142.716 7.6H141.316L140.716 17.2L139.816 26.05ZM158.477 41V31.45L157.927 29.2L150.977 0.999999H158.627L160.777 10.7L161.527 22.45H162.927L163.677 10.7L165.827 0.999999H173.477L166.527 29.15L165.977 31.45V41H158.477ZM7.07805e-08 86L5.55 46H17.35L22.9 86H15.2L14.35 77.65H8.55L7.7 86H7.07805e-08ZM9.25 71.05H13.65L12.75 62.2L12.15 52.6H10.75L10.15 62.2L9.25 71.05ZM27.8367 86V52.6H21.3867V46H41.7367V52.6H35.3367V86H27.8367ZM60.698 86V52.6H54.248V46H74.598V52.6H68.198V86H60.698ZM76.6348 86V46H84.1348V62.35H89.3848V46H96.8848V86H89.3848V68.95H84.1348V86H76.6348ZM100.902 86V46H118.202V52.6H108.402V62.35H117.702V68.95H108.402V79.4H118.202V86H100.902ZM11.7 131.5C9.2 131.5 7.18333 131.167 5.65 130.5C4.15 129.8 3.05 128.717 2.35 127.25C1.65 125.783 1.25 123.85 1.15 121.45C1.11667 120.05 1.08333 118.467 1.05 116.7C1.01667 114.9 1 113.05 1 111.15C1 109.217 1.01667 107.367 1.05 105.6C1.08333 103.833 1.11667 102.283 1.15 100.95C1.25 98.4167 1.65 96.3833 2.35 94.85C3.08333 93.3167 4.2 92.2167 5.7 91.55C7.23333 90.85 9.23333 90.5 11.7 90.5C15.2 90.5 17.75 91.2833 19.35 92.85C20.95 94.3833 21.8667 96.9333 22.1 100.5C22.1667 101.267 22.2 102.183 22.2 103.25C22.2 104.317 22.1667 105.233 22.1 106H14.6C14.6667 105.067 14.7 103.917 14.7 102.55C14.7 101.183 14.6667 100.033 14.6 99.1C14.5 97.4333 13.5333 96.6 11.7 96.6C9.76667 96.6 8.75 97.4333 8.65 99.1C8.51667 101.433 8.41667 104 8.35 106.8C8.31667 109.6 8.31667 112.4 8.35 115.2C8.41667 117.967 8.51667 120.517 8.65 122.85C8.75 124.55 9.76667 125.4 11.7 125.4C12.6667 125.4 13.4333 125.183 14 124.75C14.5667 124.317 14.8833 123.683 14.95 122.85C14.9833 122.45 15 121.95 15 121.35C15.0333 120.717 15.0333 120.083 15 119.45C15 118.817 14.9833 118.317 14.95 117.95H12.2V111.45H22.25C22.3167 112.983 22.3333 114.65 22.3 116.45C22.3 118.25 22.2667 119.917 22.2 121.45C22.0333 125.05 21.1333 127.633 19.5 129.2C17.8667 130.733 15.2667 131.5 11.7 131.5ZM23.3887 131L28.9387 91H40.7387L46.2887 131H38.5887L37.7387 122.65H31.9387L31.0887 131H23.3887ZM32.6387 116.05H37.0387L36.1387 107.2L35.5387 97.6H34.1387L33.5387 107.2L32.6387 116.05ZM48.3145 131V91H55.8145V124.4H65.6645V131H48.3145ZM68.1875 131V91H75.6875V124.4H85.5375V131H68.1875ZM88.0605 131V91H105.361V97.6H95.5605V107.35H104.861V113.95H95.5605V124.4H105.361V131H88.0605ZM107.885 131V91H117.535C121.268 91 123.951 91.7667 125.585 93.3C127.251 94.8 128.151 97.2833 128.285 100.75C128.318 101.683 128.335 102.5 128.335 103.2C128.368 103.9 128.368 104.6 128.335 105.3C128.335 106 128.318 106.817 128.285 107.75C128.218 109.917 127.851 111.7 127.185 113.1C126.518 114.467 125.501 115.517 124.135 116.25L128.835 131H120.885L117.085 117.5H115.385V131H107.885ZM115.385 110.9H117.535C119.601 110.9 120.685 109.983 120.785 108.15C120.951 105.55 120.951 102.95 120.785 100.35C120.685 98.5167 119.601 97.6 117.535 97.6H115.385V110.9ZM136.309 131V121.45L135.759 119.2L128.809 91H136.459L138.609 100.7L139.359 112.45H140.759L141.509 100.7L143.659 91H151.309L144.359 119.15L143.809 121.45V131H136.309Z" fill="#151515"/>
</svg>
